<svg xmlns="http://www.w3.org/2000/svg" style="display:none;">

<symbol id="view" viewBox="0 0 16 12.8">
  <title>View</title>
  	<path d="M0,0v2.1v10.7h16V2.1V0H0z M15.5,12.3H0.5V2.7h14.9V12.3z M8,10.7c2.4,0,4.2-1.3,5.3-3.2 C12.2,5.6,10.4,4.3,8,4.3S3.8,5.6,2.7,7.5C3.8,9.4,5.6,10.7,8,10.7z M8,4.8c1.9,0,3.6,0.9,4.7,2.7c-1.1,1.7-2.8,2.7-4.7,2.7 S4.4,9.2,3.3,7.5C4.4,5.7,6.1,4.8,8,4.8z M8,9.3c1,0,1.9-0.8,1.9-1.9S9,5.6,8,5.6c-1,0-1.9,0.8-1.9,1.9S7,9.3,8,9.3z M8,6.8 c0.3,0,0.6,0.3,0.6,0.6S8.3,8.1,8,8.1S7.4,7.8,7.4,7.5S7.7,6.8,8,6.8z"/>
</symbol>

<symbol id="new" viewBox="0 0 16 16">
  <title>New</title>
  <path d="M8.6,7.4H12v1.1H8.6V12H7.4V8.6H4V7.4h3.4V4h1.1V7.4z M16,8c0,4.4-3.6,8-8,8c-4.4,0-8-3.6-8-8s3.6-8,8-8 C12.4,0,16,3.6,16,8z M15.4,8c0-4.1-3.3-7.4-7.4-7.4S0.6,3.9,0.6,8s3.3,7.4,7.4,7.4S15.4,12.1,15.4,8z"/>
</symbol>

<symbol id="history" viewBox="0 0 16 11.7">
  <title>History</title>
  <path d="M6.4,4.8h3.2v1.1H6.4V4.8z M16,0v2.7h-1.1v8.5v0.5h-3.2v-0.5H4.3v0.5H1.1v-0.5V2.7H0V0H16z M14.4,10.7V3.2H1.6 v7.5H14.4z"/>
</symbol>

</svg>