<?xml version="1.0" encoding="utf-8"?>
<!-- Generator: Adobe Illustrator 18.1.1, SVG Export Plug-In . SVG Version: 6.00 Build 0)  -->
<svg version="1.1" xmlns="http://www.w3.org/2000/svg" xmlns:xlink="http://www.w3.org/1999/xlink" x="0px" y="0px"
	 viewBox="0 0 1608.5 600.2" enable-background="new 0 0 1608.5 600.2" xml:space="preserve">
<g id="Layer_1">
</g>
<g id="Layer_2">
	<g>
		<rect x="1055.9" y="300.4" fill="none" stroke="#C8C7C6" stroke-miterlimit="10" width="427.8" height="132"/>
		<line fill="none" stroke="#C8C7C6" stroke-miterlimit="10" x1="1068.4" y1="301.3" x2="1068.4" y2="432.5"/>
		<line fill="none" stroke="#C8C7C6" stroke-miterlimit="10" x1="1093.9" y1="301.3" x2="1093.9" y2="432.5"/>
		<line fill="none" stroke="#C8C7C6" stroke-miterlimit="10" x1="1119.1" y1="301.3" x2="1119.1" y2="432.5"/>
		<line fill="none" stroke="#C8C7C6" stroke-miterlimit="10" x1="1144" y1="301.3" x2="1144" y2="432.5"/>
		<line fill="none" stroke="#C8C7C6" stroke-miterlimit="10" x1="1169.3" y1="301.3" x2="1169.3" y2="432.5"/>
		<line fill="none" stroke="#C8C7C6" stroke-miterlimit="10" x1="1195" y1="301.3" x2="1195" y2="432.5"/>
		<line fill="none" stroke="#C8C7C6" stroke-miterlimit="10" x1="1220.2" y1="301.3" x2="1220.2" y2="432.5"/>
		<line fill="none" stroke="#C8C7C6" stroke-miterlimit="10" x1="1246.3" y1="301.3" x2="1246.3" y2="432.5"/>
		<line fill="none" stroke="#C8C7C6" stroke-miterlimit="10" x1="1271.5" y1="301.3" x2="1271.5" y2="432.5"/>
		<line fill="none" stroke="#C8C7C6" stroke-miterlimit="10" x1="1295.9" y1="301.3" x2="1295.9" y2="432.5"/>
		<line fill="none" stroke="#C8C7C6" stroke-miterlimit="10" x1="1321.1" y1="301.3" x2="1321.1" y2="432.5"/>
		<line fill="none" stroke="#C8C7C6" stroke-miterlimit="10" x1="1346.1" y1="301.3" x2="1346.1" y2="432.5"/>
		<line fill="none" stroke="#C8C7C6" stroke-miterlimit="10" x1="1371.3" y1="301.3" x2="1371.3" y2="432.5"/>
		<line fill="none" stroke="#C8C7C6" stroke-miterlimit="10" x1="1396.7" y1="301.3" x2="1396.7" y2="432.5"/>
		<line fill="none" stroke="#C8C7C6" stroke-miterlimit="10" x1="1422" y1="301.3" x2="1422" y2="432.5"/>
		<line fill="none" stroke="#C8C7C6" stroke-miterlimit="10" x1="1447.2" y1="301.3" x2="1447.2" y2="432.5"/>
		<line fill="none" stroke="#C8C7C6" stroke-miterlimit="10" x1="1472.1" y1="301.3" x2="1472.1" y2="432.5"/>
		<line fill="none" stroke="#C8C7C6" stroke-miterlimit="10" x1="1055.9" y1="300.4" x2="1483.7" y2="300.4"/>
		<line fill="none" stroke="#C8C7C6" stroke-miterlimit="10" x1="1483.7" y1="322.7" x2="1055.9" y2="322.7"/>
		<line fill="none" stroke="#C8C7C6" stroke-miterlimit="10" x1="1055.9" y1="344.6" x2="1483.7" y2="344.6"/>
		<line fill="none" stroke="#C8C7C6" stroke-miterlimit="10" x1="1483.7" y1="367" x2="1055.9" y2="367"/>
		<line fill="none" stroke="#C8C7C6" stroke-miterlimit="10" x1="1055.9" y1="389.3" x2="1483.7" y2="389.3"/>
		<line fill="none" stroke="#C8C7C6" stroke-miterlimit="10" x1="1483.7" y1="411.7" x2="1055.9" y2="411.7"/>
		<text transform="matrix(1 0 0 1 1047.3042 303.6284)" fill="#B5B6B5" font-family="'MyriadPro-Regular'" font-size="6.8523">15</text>
		<text transform="matrix(1 0 0 1 1047.3042 347.4633)" fill="#B5B6B5" font-family="'MyriadPro-Regular'" font-size="6.8523">10</text>
		<text transform="matrix(1 0 0 1 1045.8853 369.2436)" fill="#B5B6B5" font-family="'MyriadPro-Regular'" font-size="6.8523">7.5</text>
		<text transform="matrix(1 0 0 1 1050.8179 391.146)" fill="#B5B6B5" font-family="'MyriadPro-Regular'" font-size="6.8523">5</text>
		<text transform="matrix(1 0 0 1 1045.8853 412.9262)" fill="#B5B6B5" font-family="'MyriadPro-Regular'" font-size="6.8523">2.5</text>
		<text transform="matrix(1 0 0 1 1050.8179 434.7065)" fill="#B5B6B5" font-family="'MyriadPro-Regular'" font-size="6.8523">0</text>
		<text transform="matrix(1 0 0 1 1066.5884 440.269)" fill="#B5B6B5" font-family="'MyriadPro-Regular'" font-size="6.8523">1</text>
		<text transform="matrix(1 0 0 1 1092.1509 440.269)" fill="#B5B6B5" font-family="'MyriadPro-Regular'" font-size="6.8523">2</text>
		<text transform="matrix(1 0 0 1 1117.3394 440.269)" fill="#B5B6B5" font-family="'MyriadPro-Regular'" font-size="6.8523">3</text>
		<text transform="matrix(1 0 0 1 1142.2329 440.269)" fill="#B5B6B5" font-family="'MyriadPro-Regular'" font-size="6.8523">4</text>
		<text transform="matrix(1 0 0 1 1167.5679 440.269)" fill="#B5B6B5" font-family="'MyriadPro-Regular'" font-size="6.8523">5</text>
		<text transform="matrix(1 0 0 1 1193.2886 440.269)" fill="#B5B6B5" font-family="'MyriadPro-Regular'" font-size="6.8523">6</text>
		<text transform="matrix(1 0 0 1 1218.4419 440.269)" fill="#B5B6B5" font-family="'MyriadPro-Regular'" font-size="6.8523">7</text>
		<text transform="matrix(1 0 0 1 1244.5503 440.269)" fill="#B5B6B5" font-family="'MyriadPro-Regular'" font-size="6.8523">8</text>
		<text transform="matrix(1 0 0 1 1269.7017 440.269)" fill="#B5B6B5" font-family="'MyriadPro-Regular'" font-size="6.8523">9</text>
		<text transform="matrix(1 0 0 1 1292.4517 440.269)" fill="#B5B6B5" font-family="'MyriadPro-Regular'" font-size="6.8523">10</text>
		<text transform="matrix(1 0 0 1 1316.9106 440.269)" fill="#B5B6B5" font-family="'MyriadPro-Regular'" font-size="6.8523">11</text>
		<text transform="matrix(1 0 0 1 1342.6304 440.269)" fill="#B5B6B5" font-family="'MyriadPro-Regular'" font-size="6.8523">12</text>
		<text transform="matrix(1 0 0 1 1367.7827 440.269)" fill="#B5B6B5" font-family="'MyriadPro-Regular'" font-size="6.8523">13</text>
		<text transform="matrix(1 0 0 1 1393.1704 440.269)" fill="#B5B6B5" font-family="'MyriadPro-Regular'" font-size="6.8523">14</text>
		<text transform="matrix(1 0 0 1 1418.4282 440.269)" fill="#B5B6B5" font-family="'MyriadPro-Regular'" font-size="6.8523">15</text>
		<text transform="matrix(1 0 0 1 1443.6958 440.269)" fill="#B5B6B5" font-family="'MyriadPro-Regular'" font-size="6.8523">16</text>
		<text transform="matrix(1 0 0 1 1468.5464 440.269)" fill="#B5B6B5" font-family="'MyriadPro-Regular'" font-size="6.8523">17</text>
		
			<text transform="matrix(4.489659e-11 -1 1 4.489659e-11 1029.6519 373.2934)" fill="#868686" font-family="'MyriadPro-Semibold'" font-size="8.2228">Sentiment</text>
		<text transform="matrix(1 0 0 1 1265.0161 456.3452)" fill="#868686" font-family="'MyriadPro-Semibold'" font-size="8.2228">Date</text>
		<polyline fill="none" stroke="#95C127" stroke-width="2" stroke-miterlimit="10" points="1068.4,410.8 1093.9,405.7 1119.1,421.9 
			1144,413.9 1169.3,420.8 1195,412.7 1220.2,404.5 1246.3,412.7 1271.5,420.8 1295.9,426.9 1321.1,418.7 1346.1,410.7 
			1371.3,386.9 1396.7,361.8 1422,354.6 1447.2,335.9 1472.1,325.2 		"/>
		<circle fill="#95C127" cx="1068.4" cy="410.8" r="2"/>
		<circle fill="#95C127" cx="1093.9" cy="405.7" r="2"/>
		<circle fill="#95C127" cx="1119.1" cy="421.9" r="2"/>
		<circle fill="#95C127" cx="1144" cy="413.9" r="2"/>
		<circle fill="#95C127" cx="1169.3" cy="420.8" r="2"/>
		<circle fill="#95C127" cx="1195" cy="412.7" r="2"/>
		<circle fill="#95C127" cx="1220.2" cy="404.5" r="2"/>
		<circle fill="#95C127" cx="1246.3" cy="412.7" r="2"/>
		<circle fill="#95C127" cx="1271.5" cy="420.8" r="2"/>
		<circle fill="#95C127" cx="1295.9" cy="426.9" r="2"/>
		<circle fill="#95C127" cx="1321.1" cy="418.7" r="2"/>
		<circle fill="#95C127" cx="1346.1" cy="410.7" r="2"/>
		<circle fill="#95C127" cx="1371.3" cy="386.9" r="2"/>
		<circle fill="#95C127" cx="1396.7" cy="361.8" r="2"/>
		<circle fill="#95C127" cx="1422" cy="354.6" r="2"/>
		<circle fill="#95C127" cx="1447.2" cy="335.9" r="2"/>
		<circle fill="#95C127" cx="1472.1" cy="325.2" r="2"/>
		<text transform="matrix(1 0 0 1 1103.5903 278.7641)" fill="#99989B" font-family="'MyriadPro-Regular'" font-size="14.7409">What is the</text>
		<text transform="matrix(1 0 0 1 1172.2163 278.7641)" fill="#1F1F1D" font-family="'MyriadPro-Regular'" font-size="14.7409"> </text>
		<text transform="matrix(1 0 0 1 1175.3306 278.7641)" fill="#41A2D1" font-family="'MyriadPro-Semibold'" font-size="14.7409">Sentiment </text>
		<text transform="matrix(1 0 0 1 1244.6929 278.7641)" fill="#99989B" font-family="'MyriadPro-Regular'" font-size="14.7409">towards </text>
		<text transform="matrix(1 0 0 1 1297.7603 278.7641)" fill="#42A4D3" font-family="'MyriadPro-Semibold'" font-size="14.7409">Vaccination</text>
		<text transform="matrix(1 0 0 1 1372.6938 278.7641)" fill="#6ABEEC" font-family="'MyriadPro-Regular'" font-size="14.7409"> </text>
		<text transform="matrix(1 0 0 1 1375.8862 278.7641)" fill="#99989B" font-family="'MyriadPro-Regular'" font-size="14.7409">in </text>
		<text transform="matrix(1 0 0 1 1390.6274 278.7641)" fill="#46A3D4" font-family="'MyriadPro-Semibold'" font-size="14.7409">Denver?</text>
		<text transform="matrix(1 0 0 1 1042.3716 322.7036)" fill="#B5B6B5" font-family="'MyriadPro-Regular'" font-size="6.8523">12.5</text>
	</g>
	<g>
		<rect x="160.1" y="153.8" fill="none" stroke="#C8C7C6" stroke-miterlimit="10" width="762.2" height="273.4"/>
		<line fill="none" stroke="#C8C7C6" stroke-miterlimit="10" x1="182.3" y1="153.8" x2="182.3" y2="427.2"/>
		<line fill="none" stroke="#C8C7C6" stroke-miterlimit="10" x1="227.8" y1="153.8" x2="227.8" y2="427.2"/>
		<line fill="none" stroke="#C8C7C6" stroke-miterlimit="10" x1="272.6" y1="153.8" x2="272.6" y2="427.2"/>
		<line fill="none" stroke="#C8C7C6" stroke-miterlimit="10" x1="316.9" y1="153.8" x2="316.9" y2="427.2"/>
		<line fill="none" stroke="#C8C7C6" stroke-miterlimit="10" x1="362.2" y1="153.8" x2="362.2" y2="427.2"/>
		<line fill="none" stroke="#C8C7C6" stroke-miterlimit="10" x1="408" y1="153.8" x2="408" y2="427.2"/>
		<line fill="none" stroke="#C8C7C6" stroke-miterlimit="10" x1="452.8" y1="153.8" x2="452.8" y2="427.2"/>
		<line fill="none" stroke="#C8C7C6" stroke-miterlimit="10" x1="499.3" y1="153.8" x2="499.3" y2="427.2"/>
		<line fill="none" stroke="#C8C7C6" stroke-miterlimit="10" x1="544.1" y1="153.8" x2="544.1" y2="427.2"/>
		<line fill="none" stroke="#C8C7C6" stroke-miterlimit="10" x1="587.7" y1="153.8" x2="587.7" y2="427.2"/>
		<line fill="none" stroke="#C8C7C6" stroke-miterlimit="10" x1="632.5" y1="153.8" x2="632.5" y2="427.2"/>
		<line fill="none" stroke="#C8C7C6" stroke-miterlimit="10" x1="677.1" y1="153.8" x2="677.1" y2="427.2"/>
		<line fill="none" stroke="#C8C7C6" stroke-miterlimit="10" x1="721.9" y1="153.8" x2="721.9" y2="427.2"/>
		<line fill="none" stroke="#C8C7C6" stroke-miterlimit="10" x1="767.2" y1="153.8" x2="767.2" y2="427.2"/>
		<line fill="none" stroke="#C8C7C6" stroke-miterlimit="10" x1="812.1" y1="153.8" x2="812.1" y2="427.2"/>
		<line fill="none" stroke="#C8C7C6" stroke-miterlimit="10" x1="857.2" y1="153.8" x2="857.2" y2="427.2"/>
		<line fill="none" stroke="#C8C7C6" stroke-miterlimit="10" x1="901.4" y1="153.8" x2="901.4" y2="427.2"/>
		<line fill="none" stroke="#C8C7C6" stroke-miterlimit="10" x1="160.1" y1="192" x2="922.2" y2="192"/>
		<line fill="none" stroke="#C8C7C6" stroke-miterlimit="10" x1="922.2" y1="231.7" x2="160.1" y2="231.7"/>
		<line fill="none" stroke="#C8C7C6" stroke-miterlimit="10" x1="160.1" y1="270.8" x2="922.2" y2="270.8"/>
		<line fill="none" stroke="#C8C7C6" stroke-miterlimit="10" x1="922.2" y1="310.5" x2="160.1" y2="310.5"/>
		<line fill="none" stroke="#C8C7C6" stroke-miterlimit="10" x1="160.1" y1="350.5" x2="922.2" y2="350.5"/>
		<line fill="none" stroke="#C8C7C6" stroke-miterlimit="10" x1="922.2" y1="390.3" x2="160.1" y2="390.3"/>
		<text transform="matrix(1 0 0 1 135.5429 158.8745)" fill="#B5B6B5" font-family="'MyriadPro-Regular'" font-size="12.2074">200</text>
		<text transform="matrix(1 0 0 1 135.5429 194.8521)" fill="#B5B6B5" font-family="'MyriadPro-Regular'" font-size="12.2074">175</text>
		<text transform="matrix(1 0 0 1 135.5429 275.8599)" fill="#B5B6B5" font-family="'MyriadPro-Regular'" font-size="12.2074">125</text>
		<text transform="matrix(1 0 0 1 135.5429 314.6611)" fill="#B5B6B5" font-family="'MyriadPro-Regular'" font-size="12.2074">100</text>
		<text transform="matrix(1 0 0 1 141.8065 353.6807)" fill="#B5B6B5" font-family="'MyriadPro-Regular'" font-size="12.2074">75</text>
		<text transform="matrix(1 0 0 1 141.8065 392.4834)" fill="#B5B6B5" font-family="'MyriadPro-Regular'" font-size="12.2074">50</text>
		<text transform="matrix(1 0 0 1 148.0673 431.2842)" fill="#B5B6B5" font-family="'MyriadPro-Regular'" font-size="12.2074">0</text>
		<text transform="matrix(1 0 0 1 179.08 441.1904)" fill="#B5B6B5" font-family="'MyriadPro-Regular'" font-size="12.2074">1</text>
		<text transform="matrix(1 0 0 1 224.621 441.1904)" fill="#B5B6B5" font-family="'MyriadPro-Regular'" font-size="12.2074">2</text>
		<text transform="matrix(1 0 0 1 269.4921 441.1904)" fill="#B5B6B5" font-family="'MyriadPro-Regular'" font-size="12.2074">3</text>
		<text transform="matrix(1 0 0 1 313.8407 441.1904)" fill="#B5B6B5" font-family="'MyriadPro-Regular'" font-size="12.2074">4</text>
		<text transform="matrix(1 0 0 1 358.9726 441.1904)" fill="#B5B6B5" font-family="'MyriadPro-Regular'" font-size="12.2074">5</text>
		<text transform="matrix(1 0 0 1 404.7978 441.1904)" fill="#B5B6B5" font-family="'MyriadPro-Regular'" font-size="12.2074">6</text>
		<text transform="matrix(1 0 0 1 449.6054 441.1904)" fill="#B5B6B5" font-family="'MyriadPro-Regular'" font-size="12.2074">7</text>
		<text transform="matrix(1 0 0 1 496.121 441.1904)" fill="#B5B6B5" font-family="'MyriadPro-Regular'" font-size="12.2074">8</text>
		<text transform="matrix(1 0 0 1 540.9276 441.1904)" fill="#B5B6B5" font-family="'MyriadPro-Regular'" font-size="12.2074">9</text>
		<text transform="matrix(1 0 0 1 581.455 441.1904)" fill="#B5B6B5" font-family="'MyriadPro-Regular'" font-size="12.2074">10</text>
		<text transform="matrix(1 0 0 1 625.0262 441.1904)" fill="#B5B6B5" font-family="'MyriadPro-Regular'" font-size="12.2074">11</text>
		<text transform="matrix(1 0 0 1 670.8505 441.1904)" fill="#B5B6B5" font-family="'MyriadPro-Regular'" font-size="12.2074">12</text>
		<text transform="matrix(1 0 0 1 715.6581 441.1904)" fill="#B5B6B5" font-family="'MyriadPro-Regular'" font-size="12.2074">13</text>
		<text transform="matrix(1 0 0 1 760.8866 441.1904)" fill="#B5B6B5" font-family="'MyriadPro-Regular'" font-size="12.2074">14</text>
		<text transform="matrix(1 0 0 1 805.8817 441.1904)" fill="#B5B6B5" font-family="'MyriadPro-Regular'" font-size="12.2074">15</text>
		<text transform="matrix(1 0 0 1 850.8983 441.1904)" fill="#B5B6B5" font-family="'MyriadPro-Regular'" font-size="12.2074">16</text>
		<text transform="matrix(1 0 0 1 895.1688 441.1904)" fill="#B5B6B5" font-family="'MyriadPro-Regular'" font-size="12.2074">17</text>
		
			<text transform="matrix(4.489659e-11 -1 1 4.489659e-11 111.577 333.0654)" fill="#868686" font-family="'MyriadPro-Semibold'" font-size="14.6489">No. Performed</text>
		<text transform="matrix(1 0 0 1 512.2379 469.4092)" fill="#868686" font-family="'MyriadPro-Semibold'" font-size="14.6489">Week</text>
		<polyline fill="none" stroke="#41A2D1" stroke-width="2" stroke-miterlimit="10" points="182.3,361.4 227.8,352.3 272.6,310.5 
			316.9,237.2 362.2,245.8 408,198.6 452.8,213.6 499.3,310.5 544.1,290.5 587.7,297.6 632.5,261.3 677.1,275.9 721.9,253 
			767.2,242.2 812.1,222.9 857.2,245.8 901.4,256.6 		"/>
		<circle fill="#41A2D1" cx="182.3" cy="361.4" r="3.6"/>
		<circle fill="#41A2D1" cx="227.8" cy="352.3" r="3.6"/>
		<circle fill="#41A2D1" cx="272.6" cy="310.5" r="3.6"/>
		<circle fill="#41A2D1" cx="316.9" cy="238.7" r="3.6"/>
		<circle fill="#41A2D1" cx="362.2" cy="245.8" r="3.6"/>
		<circle fill="#41A2D1" cx="408" cy="198.6" r="3.6"/>
		<circle fill="#41A2D1" cx="452.8" cy="213.6" r="3.6"/>
		<circle fill="#41A2D1" cx="499.3" cy="310.5" r="3.6"/>
		<circle fill="#41A2D1" cx="544.1" cy="290.5" r="3.6"/>
		<circle fill="#41A2D1" cx="587.7" cy="297.6" r="3.6"/>
		<circle fill="#41A2D1" cx="632.5" cy="261.3" r="3.6"/>
		<circle fill="#41A2D1" cx="677.1" cy="275.9" r="3.6"/>
		<circle fill="#41A2D1" cx="721.9" cy="253" r="3.6"/>
		<circle fill="#41A2D1" cx="767.2" cy="242.2" r="3.6"/>
		<circle fill="#41A2D1" cx="812.1" cy="222.9" r="3.6"/>
		<circle fill="#41A2D1" cx="857.2" cy="245.8" r="3.6"/>
		<circle fill="#41A2D1" cx="901.4" cy="256.6" r="3.6"/>
		<text transform="matrix(1 0 0 1 298.8847 121.4624)" fill="#41A2D1" font-family="'MyriadPro-Semibold'" font-size="26.2609">Vaccinations </text>
		<text transform="matrix(1 0 0 1 448.8642 121.4624)" fill="#99989B" font-family="'MyriadPro-Regular'" font-size="26.2609">Performed In </text>
		<text transform="matrix(1 0 0 1 597.0917 121.4624)" fill="#41A2D1" font-family="'MyriadPro-Semibold'" font-size="26.2609">Denver Since PSA</text>
		<text transform="matrix(1 0 0 1 135.5429 231.7495)" fill="#B5B6B5" font-family="'MyriadPro-Regular'" font-size="12.2074">150</text>
	</g>
	<rect x="1008.4" y="249.3" fill="none" stroke="#706F6F" stroke-miterlimit="10" width="512.1" height="228.7"/>
	<g>
		<circle fill="#86BD39" cx="1045.9" cy="172.4" r="27"/>
		<circle fill="#86BD39" cx="1122.1" cy="153.8" r="6.7"/>
		<circle fill="#86BD39" cx="1122.1" cy="172.4" r="6.7"/>
		<circle fill="#86BD39" cx="1122.1" cy="192.1" r="6.7"/>
		<line fill="none" stroke="#86BD39" stroke-miterlimit="10" x1="1072.9" y1="172.4" x2="1115.5" y2="172.4"/>
		<polyline fill="none" stroke="#86BD39" stroke-miterlimit="10" points="1115.5,153.8 1095.8,153.8 1091.7,171.9 1095.6,192.1 
			1115.5,192.1 		"/>
		<g>
			<path fill="#FFFFFF" d="M1030.8,169.8c0.5-0.1,1-0.1,1.6-0.1c1.1,0,1.9,0.3,2.4,0.7c0.5,0.5,0.8,1.2,0.8,2.1c0,1-0.3,1.7-0.8,2.3
				c-0.5,0.5-1.4,0.8-2.6,0.8c-0.5,0-1,0-1.4-0.1V169.8z M1031.6,175c0.2,0,0.5,0,0.8,0c1.6,0,2.5-0.9,2.5-2.5
				c0-1.4-0.8-2.3-2.4-2.3c-0.4,0-0.7,0-0.9,0.1V175z"/>
			<path fill="#FFFFFF" d="M1039.6,172.8h-2.3v2.1h2.5v0.6h-3.3v-5.8h3.2v0.6h-2.4v1.8h2.3V172.8z"/>
			<path fill="#FFFFFF" d="M1040.9,175.6v-5.8h0.8l1.9,3c0.4,0.7,0.8,1.3,1,1.9l0,0c-0.1-0.8-0.1-1.5-0.1-2.4v-2.4h0.7v5.8h-0.8
				l-1.9-3c-0.4-0.6-0.8-1.3-1.1-1.9l0,0c0,0.7,0.1,1.4,0.1,2.4v2.5H1040.9z"/>
			<path fill="#FFFFFF" d="M1047.9,175.6l-1.9-5.8h0.8l0.9,2.9c0.3,0.8,0.5,1.5,0.6,2.2h0c0.2-0.7,0.4-1.4,0.7-2.2l1-2.9h0.8
				l-2.1,5.8H1047.9z"/>
			<path fill="#FFFFFF" d="M1054.4,172.8h-2.3v2.1h2.5v0.6h-3.3v-5.8h3.2v0.6h-2.4v1.8h2.3V172.8z"/>
			<path fill="#FFFFFF" d="M1055.7,169.8c0.4-0.1,0.9-0.1,1.4-0.1c0.8,0,1.3,0.1,1.7,0.5c0.3,0.3,0.5,0.7,0.5,1.1
				c0,0.8-0.5,1.3-1.1,1.5v0c0.5,0.2,0.7,0.6,0.9,1.2c0.2,0.8,0.3,1.4,0.5,1.6h-0.8c-0.1-0.2-0.2-0.7-0.4-1.4
				c-0.2-0.8-0.5-1.1-1.2-1.1h-0.7v2.5h-0.8V169.8z M1056.4,172.5h0.8c0.8,0,1.3-0.4,1.3-1.1c0-0.8-0.5-1.1-1.3-1.1
				c-0.4,0-0.6,0-0.7,0.1V172.5z"/>
		</g>
	</g>
	<rect x="1008.4" y="87.5" fill="none" stroke="#706F6F" stroke-miterlimit="10" width="214.7" height="142.7"/>
	<text transform="matrix(1 0 0 1 1018.9713 109.5893)"><tspan x="0" y="0" fill="#99989B" font-family="'MyriadPro-Regular'" font-size="12">Top three trends related to </tspan><tspan x="136.6" y="0" fill="#41A2D1" font-family="'MyriadPro-Semibold'" font-size="12">Measles</tspan><tspan x="178.1" y="0" fill="#99989B" font-family="'MyriadPro-Regular'" font-size="12"> </tspan><tspan x="0" y="14.4" fill="#99989B" font-family="'MyriadPro-Regular'" font-size="12">in </tspan><tspan x="12" y="14.4" fill="#41A2D1" font-family="'MyriadPro-Semibold'" font-size="12">Denver </tspan><tspan x="52.3" y="14.4" fill="#99989B" font-family="'MyriadPro-Regular'" font-size="12">this week:</tspan></text>
	<rect x="80.4" y="86.3" fill="none" stroke="#706F6F" stroke-miterlimit="10" width="881.2" height="391.8"/>
	<g>
		<text transform="matrix(1 0 0 1 1135.2329 154.8745)" fill="#99989B" font-family="'MyriadPro-Regular'" font-size="10">Disneyland</text>
	</g>
	<g>
		<text transform="matrix(1 0 0 1 1135.2328 175.5748)" fill="#99989B" font-family="'MyriadPro-Regular'" font-size="10">Public Ser...</text>
	</g>
	<g>
		<text transform="matrix(1 0 0 1 1135.2327 195.8521)" fill="#99989B" font-family="'MyriadPro-Regular'" font-size="10">Killer Ducks</text>
	</g>
	<rect x="1242.4" y="87.5" fill="none" stroke="#706F6F" stroke-miterlimit="10" width="278.2" height="142.7"/>
	<text transform="matrix(1 0 0 1 1252.9657 109.5893)"><tspan x="0" y="0" fill="#41A2D1" font-family="'MyriadPro-Semibold'" font-size="12">Snippets </tspan><tspan x="48.1" y="0" fill="#99989B" font-family="'MyriadPro-Regular'" font-size="12">from all channels:</tspan></text>
	<g>
		<rect x="1253" y="123.5" fill="#41A2D1" width="18.9" height="18.9"/>
		<path fill="#FFFFFF" d="M1269.9,128.9c-0.6,0.2-1.1,0.4-1.8,0.5c0.6-0.4,1.1-1,1.4-1.7c-0.6,0.4-1.3,0.6-2,0.7
			c-0.6-0.6-1.4-1-2.2-1c-1.7,0-3.1,1.4-3.1,3.1c0,0.2,0,0.5,0.1,0.7c-2.6-0.1-4.8-1.4-6.3-3.2c-0.3,0.5-0.4,1-0.4,1.5
			c0,1.1,0.5,2,1.4,2.6c-0.5,0-1-0.2-1.4-0.4c0,0,0,0,0,0c0,1.5,1.1,2.7,2.5,3c-0.3,0.1-0.5,0.1-0.8,0.1c-0.2,0-0.4,0-0.6-0.1
			c0.4,1.2,1.5,2.1,2.9,2.1c-1.1,0.8-2.4,1.3-3.8,1.3c-0.2,0-0.5,0-0.7,0c1.4,0.9,3,1.4,4.7,1.4c5.7,0,8.8-4.7,8.8-8.8
			c0-0.1,0-0.3,0-0.4C1269,130,1269.5,129.5,1269.9,128.9z"/>
	</g>
	<text transform="matrix(1 0 0 1 1277.9126 163.0192)"><tspan x="0" y="0" fill="#99989B" font-family="'MyriadPro-Regular'" font-size="10">Noooo, the Measles are coming to our city! </tspan><tspan x="179.7" y="0" fill="#41A2D1" font-family="'MyriadPro-Regular'" font-size="10">#Denver </tspan><tspan x="0" y="12" fill="#41A2D1" font-family="'MyriadPro-Regular'" font-size="10">#NoAntivaccine</tspan></text>
	<text transform="matrix(1 0 0 1 1277.9126 196.0732)"><tspan x="0" y="0" fill="#99989B" font-family="'MyriadPro-Regular'" font-size="10">Another day off from school, so easy! Just mention the</tspan><tspan x="0" y="12" fill="#99989B" font-family="'MyriadPro-Regular'" font-size="10">measles!</tspan><tspan x="35.8" y="12" fill="#41A2D1" font-family="'MyriadPro-Regular'" font-size="10"> #PSA</tspan></text>
	<text transform="matrix(1 0 0 1 1277.9126 129.9185)"><tspan x="0" y="0" fill="#99989B" font-family="'MyriadPro-Regular'" font-size="10">Wooo I loved the PSA, Scott is a Gentleman, a Scholar</tspan><tspan x="0" y="12" fill="#99989B" font-family="'MyriadPro-Regular'" font-size="10">and well respected in the community </tspan><tspan x="157" y="12" fill="#41A2D1" font-family="'MyriadPro-Regular'" font-size="10">#boom</tspan></text>
	<g>
		<g>
			<rect x="1253" y="156.4" fill="#41A2D1" width="18.9" height="18.9"/>
		</g>
		<path fill="#FFFFFF" d="M1267,175.3v-8.8h-2.9v-2.2h2.9v-3.1c0-1.2,0.4-2.3,1-2.9c0.7-0.6,1.6-1,2.8-1c0.8,0,1.5,0,2,0.1v1.9
			l-1.2,0c-2.3,0-2.3,1.7-2.3,2.3v2.8h3.3l-0.3,2.2h-3v8.8H1267z"/>
	</g>
	<g>
		<g>
			<rect x="1253" y="189" fill="#41A2D1" width="18.9" height="18.9"/>
		</g>
		<path fill="#FFFFFF" d="M1263.5,205.9c-0.5,0-1-0.1-1.4-0.3c-0.4-0.2-0.7-0.4-0.8-0.6c-0.2-0.3-0.3-0.6-0.4-1.1
			c0-0.2-0.1-0.8-0.1-2.2v-6h-1.5v-1.6h1.5v-2.7l2.3-1.3v4h2.3v1.6h-2.3v5.6c0,1.4,0,1.8,0.1,1.9c0.1,0.3,0.2,0.5,0.5,0.7
			c0.4,0.3,0.9,0.3,1.8,0.1l0.2,1.5C1264.9,205.8,1264.2,205.9,1263.5,205.9z"/>
	</g>
	<g>
		<path opacity="0.61" fill="#DADADA" d="M782.7,560.6c11.7,0,27.4,1.2,41,2.1c13.7,1,14.1,16,14.1,16c0.1,8,9.3,6.2,9.3,6.2
			s278.8,0,288.3,0c9.5,0,17.6,15.3,17.6,15.3H782.7h-0.7H411.6c0,0,8.1-15.3,17.6-15.3s288.3,0,288.3,0s9.3,1.8,9.3-6.2
			c0,0,0.5-15,14.1-16c13.7-1,29.3-2.1,41-2.1"/>
		<path fill="#F6F6F6" d="M831.8,600.2v-28.4c0,0,3.9-6.4-48-6.4h-2.6c-51.8,0-48,6.4-48,6.4v28.4H831.8z"/>
	</g>
	<path fill="#9E9D9D" d="M793.7,594h-22.6v-18.5h22.6V594z M778.2,580.3h-5.4v5.7h5.4V580.3z M785.1,580.3h-5.4v5.7h5.4V580.3z
		 M792,580.3h-5.4v5.7h5.4V580.3z M778.1,587.1h-5.4v5.7h5.4V587.1z M785,587.1h-5.4v5.7h5.4V587.1z M792,587.1h-5.4v5.7h5.4V587.1z
		"/>
	<text transform="matrix(1 0 0 1 28.937 30.5102)" font-family="'MyriadPro-Regular'" font-size="21">Tab 1</text>
	<rect x="11.4" y="48.2" fill="#67C5DE" width="82.8" height="8.7"/>
</g>
</svg>
