<?xml version="1.0" encoding="utf-8"?>
<!-- Generator: Adobe Illustrator 18.1.1, SVG Export Plug-In . SVG Version: 6.00 Build 0)  -->
<svg version="1.1" id="Layer_1" xmlns="http://www.w3.org/2000/svg" xmlns:xlink="http://www.w3.org/1999/xlink" x="0px" y="0px"
	 viewBox="0 0 85 85" enable-background="new 0 0 85 85" xml:space="preserve">
<path d="M29.9,45.3 M29.1,46.6 M35.1,56.2L13.6,70.4l14-21.5 M35.1,56.2 M38.6,54.1 M29.9,45.3l-9.1-9.1l1.8-0.7
	c1.2-0.5,11.1-4.4,15.7-1.9l9.5-9.5c-1.1-2.2-1.7-6.1,1.5-10l0.9-1.1L71,33.9l-1.1,0.9c-3.9,3.2-7.8,2.6-10,1.5l-9.5,9.5
	c2.5,4.6-1.4,14.5-1.9,15.7l-0.7,1.8l-9.1-9.1 M39,50.8l7.8,7.8c1.6-4.5,2.7-10.4,1-12.1l-0.9-0.9l12.7-12.7l0.9,0.7
	c0.1,0.1,3,2.1,6.6,0L50.4,17c-2.1,3.6,0,6.6,0,6.6l0.7,0.9L38.4,37.1l-0.9-0.9c-1.7-1.7-7.5-0.6-12.1,1l7.8,7.8L39,50.8z M39,50.8
	 M31.9,47 M33.2,45"/>
</svg>
