<?xml version="1.0" encoding="utf-8"?>
<!-- Generator: Adobe Illustrator 18.1.1, SVG Export Plug-In . SVG Version: 6.00 Build 0)  -->
<svg version="1.1" id="Layer_1" xmlns="http://www.w3.org/2000/svg" xmlns:xlink="http://www.w3.org/1999/xlink" x="0px" y="0px"
	 viewBox="0 0 56.7 56.7" enable-background="new 0 0 56.7 56.7" xml:space="preserve">
<g>
	<g>
		<path fill="#BD4B6C" d="M34.9,32.5h-32V7.6h32V32.5z M5.1,30.3h27.5V9.9H5.1V30.3z"/>
	</g>
	<g>
		<path fill="#BD4B6C" d="M53.9,19H36.7V7.6h17.1V19z M39,16.8h12.6V9.9H39V16.8z"/>
	</g>
	<g>
		<path fill="#BD4B6C" d="M53.9,32.5H36.7V21.1h17.1V32.5z M39,30.3h12.6v-6.9H39V30.3z"/>
	</g>
	<g>
		<path fill="#BD4B6C" d="M53.9,51.2h-51V35.5h51V51.2z M5.1,49h46.5V37.7H5.1V49z"/>
	</g>
	<g>
		<path fill="#BD4B6C" d="M15.6,29.7c-5.3,0-9.6-4.3-9.6-9.6s4.3-9.6,9.6-9.6s9.6,4.3,9.6,9.6S20.9,29.7,15.6,29.7z M15.6,12.7
			c-4,0-7.3,3.3-7.3,7.3s3.3,7.3,7.3,7.3s7.3-3.3,7.3-7.3S19.7,12.7,15.6,12.7z"/>
	</g>
	<g>
		<path fill="#BD4B6C" d="M28.5,29.7c-1.9,0-3.4-1.5-3.4-3.4c0-1.9,1.5-3.4,3.4-3.4c1.9,0,3.4,1.5,3.4,3.4
			C32,28.1,30.4,29.7,28.5,29.7z M28.5,25c-0.6,0-1.2,0.5-1.2,1.2c0,0.6,0.5,1.2,1.2,1.2c0.6,0,1.2-0.5,1.2-1.2
			C29.7,25.6,29.2,25,28.5,25z"/>
	</g>
</g>
</svg>
