<?xml version="1.0" encoding="utf-8"?>
<!-- Generator: Adobe Illustrator 18.1.1, SVG Export Plug-In . SVG Version: 6.00 Build 0)  -->
<svg version="1.1" id="Layer_1" xmlns="http://www.w3.org/2000/svg" xmlns:xlink="http://www.w3.org/1999/xlink" x="0px" y="0px"
	 viewBox="0 0 85 85" enable-background="new 0 0 85 85" xml:space="preserve">
<g>
	<path fill="#E3E2E2" d="M33.9,59.4c-6.7,0-12.1-5.4-12.1-12.1s5.4-12.1,12.1-12.1c0,0-0.1-9.8,9.3-10c9.5-0.2,9.7,10,9.7,10
		c6.7,1,9.1,5.4,9.1,12.1S56.7,59.4,50,59.4H33.9z"/>
	<path fill="#E3E3E2" d="M42,73.8c-17.4,0-31.5-14.1-31.5-31.5c0-17.4,14.1-31.5,31.5-31.5s31.5,14.1,31.5,31.5
		C73.5,59.7,59.3,73.8,42,73.8z M42,13.4c-16,0-29,13-29,29c0,16,13,29,29,29s29-13,29-29C70.9,26.3,57.9,13.4,42,13.4z"/>
</g>
</svg>
