<?xml version="1.0" encoding="utf-8"?>
<!-- Generator: Adobe Illustrator 18.1.1, SVG Export Plug-In . SVG Version: 6.00 Build 0)  -->
<svg version="1.1" id="Layer_1" xmlns="http://www.w3.org/2000/svg" xmlns:xlink="http://www.w3.org/1999/xlink" x="0px" y="0px"
	 viewBox="0 0 56.7 56.7" enable-background="new 0 0 56.7 56.7" xml:space="preserve">
<g>
	<g>
		<path fill="#2199D6" d="M25.7,48.2c-10,0-18.2-8.1-18.2-18.2c0-10,8.1-18.2,18.2-18.2s18.2,8.1,18.2,18.2
			C43.9,40.1,35.8,48.2,25.7,48.2z M25.7,16.1c-7.7,0-13.9,6.2-13.9,13.9S18.1,44,25.7,44s13.9-6.2,13.9-13.9S33.4,16.1,25.7,16.1z"
			/>
	</g>
	<g>
		<polygon fill="#2199D6" points="52.3,35 48,35 48,7.3 19,7.3 19,3.1 52.3,3.1 		"/>
	</g>
	<g>
		<polygon fill="#2199D6" points="15.3,53.6 2.2,53.6 2.2,38.7 3.2,38.7 3.2,52.6 15.3,52.6 		"/>
	</g>
	<g>
		<path fill="#2199D6" d="M17.1,41.1c-1.3,0-2.4-1.1-2.4-2.4c0-1.3,1.1-2.4,2.4-2.4s2.4,1.1,2.4,2.4C19.5,40,18.4,41.1,17.1,41.1z
			 M17.1,37.3c-0.7,0-1.3,0.6-1.3,1.3c0,0.7,0.6,1.3,1.3,1.3s1.3-0.6,1.3-1.3C18.5,37.9,17.9,37.3,17.1,37.3z"/>
	</g>
	<g>
		<path fill="#2199D6" d="M33.8,32.8c-4.5,0-8.1-3.6-8.1-8.1s3.6-8.1,8.1-8.1c4.5,0,8.1,3.6,8.1,8.1S38.2,32.8,33.8,32.8z
			 M33.8,20.8c-2.1,0-3.9,1.7-3.9,3.9s1.7,3.9,3.9,3.9s3.9-1.7,3.9-3.9S35.9,20.8,33.8,20.8z"/>
	</g>
</g>
</svg>
