<?xml version="1.0" encoding="utf-8"?>
<!-- Generator: Adobe Illustrator 18.1.1, SVG Export Plug-In . SVG Version: 6.00 Build 0)  -->
<svg version="1.1" id="Layer_1" xmlns="http://www.w3.org/2000/svg" xmlns:xlink="http://www.w3.org/1999/xlink" x="0px" y="0px"
	 viewBox="0 0 1445.7 42.5" enable-background="new 0 0 1445.7 42.5" xml:space="preserve">
<rect x="123.4" y="1.1" fill="#E8E8E8" stroke="#B9BBBD" stroke-miterlimit="10" width="158.7" height="40.7"/>
<rect x="282.1" y="1.1" fill="#E8E8E8" stroke="#B9BBBD" stroke-miterlimit="10" width="101.3" height="40.7"/>
<rect x="383.4" y="1.1" fill="#E8E8E8" stroke="#B9BBBD" stroke-miterlimit="10" width="111.3" height="40.7"/>
<rect x="494.8" y="1.1" fill="#E8E8E8" stroke="#B9BBBD" stroke-miterlimit="10" width="102" height="40.7"/>
<rect x="596.8" y="1.1" fill="#E8E8E8" stroke="#B9BBBD" stroke-miterlimit="10" width="130.7" height="40.7"/>
<rect x="727.4" y="1.1" fill="#E8E8E8" stroke="#B9BBBD" stroke-miterlimit="10" width="100.7" height="40.7"/>
<rect x="828.1" y="1.1" fill="#E8E8E8" stroke="#B9BBBD" stroke-miterlimit="10" width="109.3" height="40.7"/>
<rect x="937.4" y="1.1" fill="#E8E8E8" stroke="#B9BBBD" stroke-miterlimit="10" width="141.3" height="40.7"/>
<rect x="1078.8" y="1.1" fill="#E8E8E8" stroke="#B9BBBD" stroke-miterlimit="10" width="161.3" height="40.7"/>
<rect x="1240.1" y="1.1" fill="#E8E8E8" stroke="#B9BBBD" stroke-miterlimit="10" width="117.9" height="40.7"/>
<rect x="1358" y="1.1" fill="#E8E8E8" stroke="#B9BBBD" stroke-miterlimit="10" width="45.9" height="40.7"/>
<rect x="1404.6" y="1.1" fill="#E8E8E8" stroke="#B9BBBD" stroke-miterlimit="10" width="39.1" height="40.7"/>
<rect x="83.3" y="1.1" fill="#E8E8E8" stroke="#B9BBBD" stroke-miterlimit="10" width="41" height="40.7"/>
<rect x="43.4" y="1.1" fill="#E8E8E8" stroke="#B9BBBD" stroke-miterlimit="10" width="39.7" height="40.7"/>
<rect x="3.8" y="1.1" fill="#E8E8E8" stroke="#B9BBBD" stroke-miterlimit="10" width="40.1" height="40.7"/>
<text transform="matrix(1 0 0 1 158.475 25.1383)" fill="#4E4E4E" font-family="'HelvNeueforIBM'" font-size="14">Population Density</text>
<text transform="matrix(1 0 0 1 323.8083 25.1387)" fill="#4E4E4E" font-family="'HelvNeueforIBM'" font-size="14">Flights</text>
<text transform="matrix(1 0 0 1 421.475 26.138)" fill="#4E4E4E" font-family="'HelvNeueforIBM'" font-size="14">Vaccines</text>
<text transform="matrix(1 0 0 1 533.1417 26.138)" fill="#4E4E4E" font-family="'HelvNeueforIBM'" font-size="14">Measles</text>
<text transform="matrix(1 0 0 1 631.4749 26.138)" fill="#4E4E4E" font-family="'HelvNeueforIBM'" font-size="14">Symptoms</text>
<text transform="matrix(1 0 0 1 765.4749 25.1387)" fill="#4E4E4E" font-family="'HelvNeueforIBM'" font-size="14">Types</text>
<text transform="matrix(1 0 0 1 867.4749 26.138)" fill="#4E4E4E" font-family="'HelvNeueforIBM'" font-size="14">Illness</text>
<text transform="matrix(1 0 0 1 976.9426 26.138)" fill="#4E4E4E" font-family="'HelvNeueforIBM'" font-size="14">Disney</text>
<text transform="matrix(1 0 0 1 1118.475 26.138)" fill="#4E4E4E" font-family="'HelvNeueforIBM'" font-size="14">Mouse</text>
<text transform="matrix(1 0 0 1 1281.1416 26.138)" fill="#4E4E4E" font-family="'HelvNeueforIBM'" font-size="14">Other</text>
<circle fill="none" stroke="#777777" stroke-miterlimit="10" cx="144.6" cy="18.1" r="7.1"/>
<ellipse fill="#676767" cx="144.5" cy="18" rx="4.4" ry="4.6"/>
<circle fill="#B1B1B1" stroke="#777777" stroke-miterlimit="10" cx="303.1" cy="19.1" r="7.1"/>
<ellipse fill="#B1B1B1" cx="303" cy="19" rx="4.4" ry="4.6"/>
<line fill="none" stroke="#B1B1B1" stroke-width="3" stroke-miterlimit="10" x1="107.6" y1="15.4" x2="100" y2="23.1"/>
<line fill="none" stroke="#B1B1B1" stroke-width="3" stroke-miterlimit="10" x1="99.9" y1="21.3" x2="107.6" y2="28.9"/>
<line fill="#4E4E4E" stroke="#676767" stroke-width="3" stroke-miterlimit="10" x1="1420.9" y1="16.6" x2="1427.2" y2="23.1"/>
<line fill="#4E4E4E" stroke="#676767" stroke-width="3" stroke-miterlimit="10" x1="1426.7" y1="21.5" x2="1420.3" y2="27.9"/>
<polygon fill="#4E4E4E" points="67.5,14.4 71.5,18.5 63.5,18.5 "/>
<rect x="66.3" y="18.5" fill="#4E4E4E" width="2.4" height="10.2"/>
<polygon fill="#4E4E4E" points="60.7,28.8 56.7,24.8 64.7,24.8 "/>
<rect x="59.5" y="14.6" fill="#4E4E4E" width="2.4" height="10.2"/>
<rect x="27.2" y="22.5" transform="matrix(-0.7256 0.6881 -0.6881 -0.7256 66.6273 25.2316)" fill="#4E4E4E" width="2.2" height="6.8"/>
<ellipse fill="none" stroke="#4E4E4E" stroke-width="2" stroke-miterlimit="10" cx="22.5" cy="20.5" rx="4.5" ry="4.4"/>
<polygon fill="#22ACE3" points="411.5,14.1 411.5,24.8 400.6,24.8 "/>
<rect x="401" y="10.6" transform="matrix(-0.6824 0.731 -0.731 -0.6824 691.5336 -266.0885)" fill="#22ACE3" width="5.2" height="13.1"/>
<polygon fill="#22ACE3" points="523.1,14.1 523.1,24.8 512.2,24.8 "/>
<rect x="512.6" y="10.6" transform="matrix(-0.6824 0.731 -0.731 -0.6824 879.2476 -347.6442)" fill="#22ACE3" width="5.2" height="13.1"/>
<polygon fill="#22ACE3" points="624.6,14.1 624.6,24.8 613.7,24.8 "/>
<rect x="614.1" y="10.6" transform="matrix(-0.6824 0.731 -0.731 -0.6824 1050.0137 -421.8359)" fill="#22ACE3" width="5.2" height="13.1"/>
<polygon fill="#22ACE3" points="755.1,14.1 755.1,24.8 744.2,24.8 "/>
<rect x="744.6" y="10.6" transform="matrix(-0.6824 0.731 -0.731 -0.6824 1269.5697 -517.226)" fill="#22ACE3" width="5.2" height="13.1"/>
<polygon fill="#22ACE3" points="857.4,14.1 857.4,24.8 846.5,24.8 "/>
<rect x="846.9" y="10.6" transform="matrix(-0.6824 0.731 -0.731 -0.6824 1441.7373 -592.028)" fill="#22ACE3" width="5.2" height="13.1"/>
<polygon fill="#22ACE3" points="966.3,14.1 966.3,24.8 955.4,24.8 "/>
<rect x="955.8" y="10.6" transform="matrix(-0.6824 0.731 -0.731 -0.6824 1624.9813 -671.641)" fill="#22ACE3" width="5.2" height="13.1"/>
<polygon fill="#22ACE3" points="1107.3,14.1 1107.3,24.8 1096.4,24.8 "/>
<rect x="1096.8" y="10.6" transform="matrix(-0.6824 0.731 -0.731 -0.6824 1862.2025 -774.7067)" fill="#22ACE3" width="5.2" height="13.1"/>
<polygon fill="#22ACE3" points="1268.3,14.1 1268.3,24.8 1257.4,24.8 "/>
<rect x="1257.8" y="10.6" transform="matrix(-0.6824 0.731 -0.731 -0.6824 2133.0728 -892.3904)" fill="#22ACE3" width="5.2" height="13.1"/>
<polygon fill="#22ACE3" points="1387.4,14.1 1387.4,24.8 1376.5,24.8 "/>
<rect x="1376.9" y="10.6" transform="matrix(-0.6824 0.731 -0.731 -0.6824 2333.4211 -979.4354)" fill="#22ACE3" width="5.2" height="13.1"/>
<ellipse fill="#676767" cx="303.1" cy="19.1" rx="4.4" ry="4.6"/>
</svg>
