<?xml version="1.0" encoding="utf-8"?>
<!-- Generator: Adobe Illustrator 18.0.0, SVG Export Plug-In . SVG Version: 6.00 Build 0)  -->
<!DOCTYPE svg PUBLIC "-//W3C//DTD SVG 1.1//EN" "http://www.w3.org/Graphics/SVG/1.1/DTD/svg11.dtd">
<svg version="1.1" id="Layer_1" xmlns="http://www.w3.org/2000/svg" xmlns:xlink="http://www.w3.org/1999/xlink" x="0px" y="0px"
	 viewBox="0 0 800 350" enable-background="new 0 0 800 350" xml:space="preserve">
<rect x="80.7" y="40.3" fill="none" stroke="#E0E0E0" stroke-miterlimit="10" width="694.5" height="250"/>
<line fill="none" stroke="#EFEFEF" stroke-miterlimit="10" x1="80.7" y1="78" x2="775.2" y2="78"/>
<line fill="none" stroke="#EFEFEF" stroke-miterlimit="10" x1="80.7" y1="113.5" x2="775.2" y2="113.5"/>
<line fill="none" stroke="#EFEFEF" stroke-miterlimit="10" x1="80.7" y1="149.3" x2="775.2" y2="149.3"/>
<line fill="none" stroke="#EFEFEF" stroke-miterlimit="10" x1="80.7" y1="184.8" x2="775.2" y2="184.8"/>
<line fill="none" stroke="#EFEFEF" stroke-miterlimit="10" x1="80.7" y1="219" x2="775.2" y2="219"/>
<line fill="none" stroke="#EFEFEF" stroke-miterlimit="10" x1="80.7" y1="254.5" x2="775.2" y2="254.5"/>
<line fill="none" stroke="#EFEFEF" stroke-miterlimit="10" x1="386.7" y1="40.3" x2="386.7" y2="290.3"/>
<line fill="none" stroke="#EFEFEF" stroke-miterlimit="10" x1="346" y1="40.3" x2="346" y2="290.3"/>
<line fill="none" stroke="#EFEFEF" stroke-miterlimit="10" x1="468.6" y1="40.3" x2="468.6" y2="290.3"/>
<line fill="none" stroke="#EFEFEF" stroke-miterlimit="10" x1="428" y1="40.3" x2="428" y2="290.3"/>
<line fill="none" stroke="#EFEFEF" stroke-miterlimit="10" x1="549" y1="39.8" x2="549" y2="289.8"/>
<line fill="none" stroke="#EFEFEF" stroke-miterlimit="10" x1="508.3" y1="39.8" x2="508.3" y2="289.8"/>
<line fill="none" stroke="#EFEFEF" stroke-miterlimit="10" x1="630.5" y1="39.8" x2="630.5" y2="289.8"/>
<line fill="none" stroke="#EFEFEF" stroke-miterlimit="10" x1="589.8" y1="39.8" x2="589.8" y2="289.8"/>
<line fill="none" stroke="#EFEFEF" stroke-miterlimit="10" x1="589.7" y1="39.8" x2="589.7" y2="289.8"/>
<line fill="none" stroke="#EFEFEF" stroke-miterlimit="10" x1="549" y1="39.8" x2="549" y2="289.8"/>
<line fill="none" stroke="#EFEFEF" stroke-miterlimit="10" x1="671.2" y1="39.8" x2="671.2" y2="289.8"/>
<line fill="none" stroke="#EFEFEF" stroke-miterlimit="10" x1="630.5" y1="39.8" x2="630.5" y2="289.8"/>
<line fill="none" stroke="#EFEFEF" stroke-miterlimit="10" x1="224.7" y1="39.3" x2="224.7" y2="289.3"/>
<line fill="none" stroke="#EFEFEF" stroke-miterlimit="10" x1="184" y1="39.3" x2="184" y2="289.3"/>
<line fill="none" stroke="#EFEFEF" stroke-miterlimit="10" x1="306.2" y1="39.3" x2="306.2" y2="289.3"/>
<line fill="none" stroke="#EFEFEF" stroke-miterlimit="10" x1="265.5" y1="39.3" x2="265.5" y2="289.3"/>
<line fill="none" stroke="#EFEFEF" stroke-miterlimit="10" x1="142.2" y1="39.8" x2="142.2" y2="289.8"/>
<line fill="none" stroke="#EFEFEF" stroke-miterlimit="10" x1="101.5" y1="39.8" x2="101.5" y2="289.8"/>
<line fill="none" stroke="#EFEFEF" stroke-miterlimit="10" x1="753.5" y1="39.3" x2="753.5" y2="289.3"/>
<line fill="none" stroke="#EFEFEF" stroke-miterlimit="10" x1="712.8" y1="39.3" x2="712.8" y2="289.3"/>
<rect x="101.5" y="184.8" fill="#58B3DF" width="40.7" height="105.1"/>
<rect x="184" y="232.8" fill="#58B3DF" width="40.7" height="57.1"/>
<rect x="346" y="254.3" fill="#58B3DF" width="40.7" height="35.6"/>
<rect x="265.8" y="100.8" fill="#58B3DF" width="44.5" height="189.1"/>
<rect x="507.2" y="113.9" fill="#58B3DF" width="41.8" height="175.9"/>
<rect x="589.7" y="193.8" fill="#58B3DF" width="41.8" height="96"/>
<rect x="671.2" y="140.5" fill="#58B3DF" width="41.8" height="149.3"/>
<rect x="428" y="155" fill="#58B3DF" width="41.8" height="134.8"/>
<g>
	<text transform="matrix(1 0 0 1 107.5 304.3333)" fill="#767474" font-family="'HelvNeueforIBM-Light'" font-size="10">Austin</text>
</g>
<g>
	<text transform="matrix(1 0 0 1 189.5 304.3333)" fill="#767474" font-family="'HelvNeueforIBM-Light'" font-size="10">Atlanta</text>
</g>
<g>
	<text transform="matrix(1 0 0 1 270.5 304.3337)" fill="#767474" font-family="'HelvNeueforIBM-Light'" font-size="10">Denver</text>
</g>
<g>
	<text transform="matrix(1 0 0 1 351.0833 304.3337)" fill="#767474" font-family="'HelvNeueforIBM-Light'" font-size="10">Chicago</text>
</g>
<g>
	<text transform="matrix(1 0 0 1 427.9531 305.333)" fill="#767474" font-family="'HelvNeueforIBM-Light'" font-size="10">New York</text>
</g>
<g>
	<text transform="matrix(1 0 0 1 517.2864 304.334)" fill="#767474" font-family="'HelvNeueforIBM-Light'" font-size="10">Dallas</text>
</g>
<g>
	<text transform="matrix(1 0 0 1 596 304.3341)" fill="#767474" font-family="'HelvNeueforIBM-Light'" font-size="10">Albany</text>
</g>
<g>
	<text transform="matrix(1 0 0 1 667.1198 305.333)" fill="#767474" font-family="'HelvNeueforIBM-Light'" font-size="10">Philidelphia</text>
</g>
<text transform="matrix(1 0 0 1 395.7865 325.333)" fill="#767474" font-family="'HelvNeueforIBM-Bold'" font-size="12">Destination</text>
<text transform="matrix(4.489659e-011 -1 1 4.489659e-011 38.4533 210.999)" fill="#767474" font-family="'HelvNeueforIBM-Bold'" font-size="14">No. of People</text>
<g>
	<text transform="matrix(1 0 0 1 65.5 291.6671)" fill="#767474" font-family="'HelvNeueforIBM-Light'" font-size="10">0</text>
</g>
<g>
	<text transform="matrix(1 0 0 1 61.1667 258.0004)" fill="#767474" font-family="'HelvNeueforIBM-Light'" font-size="10">10</text>
</g>
<g>
	<text transform="matrix(1 0 0 1 60.1663 222.0005)" fill="#767474" font-family="'HelvNeueforIBM-Light'" font-size="10">20</text>
</g>
<g>
	<text transform="matrix(1 0 0 1 59.8337 186.8341)" fill="#767474" font-family="'HelvNeueforIBM-Light'" font-size="10">30</text>
</g>
<g>
	<text transform="matrix(1 0 0 1 58.5003 153.1674)" fill="#767474" font-family="'HelvNeueforIBM-Light'" font-size="10">40</text>
</g>
<g>
	<text transform="matrix(1 0 0 1 59.5 117.1674)" fill="#767474" font-family="'HelvNeueforIBM-Light'" font-size="10">50</text>
</g>
<g>
	<text transform="matrix(1 0 0 1 58.5003 82.1674)" fill="#767474" font-family="'HelvNeueforIBM-Light'" font-size="10">60</text>
</g>
</svg>
