<?xml version="1.0" encoding="utf-8"?>
<!-- Generator: Adobe Illustrator 18.1.1, SVG Export Plug-In . SVG Version: 6.00 Build 0)  -->
<svg version="1.1" id="Layer_3" xmlns="http://www.w3.org/2000/svg" xmlns:xlink="http://www.w3.org/1999/xlink" x="0px" y="0px"
	 viewBox="0 0 1190.6 757.6" enable-background="new 0 0 1190.6 757.6" xml:space="preserve">
<g id="Layer_2_1_">
	<rect y="0" fill="#F2CAE1" width="1190.6" height="757.6"/>
</g>
<g id="Layer_3_1_">
	<g opacity="0.5">
		<g>
			<path fill="#FFFFFF" d="M650.6,0v210.3h399.1V0h32.8v243.1H617.8V0H650.6z"/>
		</g>
		<g>
			<path fill="#FFFFFF" d="M1190.6,243.1h-81.2V77.6h81.2v32.8h-48.4v99.9h48.4V243.1z"/>
		</g>
		<g>
			<path fill="#FFFFFF" d="M1190.6,514.2H617.8V285.8h572.8v32.8h-540v162.8h540V514.2z"/>
		</g>
		<g>
			<path fill="#FFFFFF" d="M921.6,0c21.8,20.3,21.1,62.4,21.1,62.4c0,76.7-62.4,139.1-139.1,139.1S664.4,139.1,664.4,62.4
				c0,0,0-35.7,19.4-62.4h33.7 M720.5,0c-22.6,24.1-23.3,60.6-23.3,60.6v1.8c0,58.6,47.7,106.3,106.3,106.3
				c58.6,0,106.4-47.7,106.4-106.3c0,0,2.3-37.7-20.3-62.4"/>
		</g>
		<g>
			<path fill="#FFFFFF" d="M990.8,201.5c-27.5,0-49.8-22.3-49.8-49.8s22.3-49.8,49.8-49.8s49.8,22.3,49.8,49.8
				S1018.2,201.5,990.8,201.5z M990.8,134.7c-9.4,0-17,7.6-17,17s7.6,17,17,17c9.4,0,17-7.6,17-17S1000.2,134.7,990.8,134.7z"/>
		</g>
	</g>
	<path opacity="0.5" fill="#FFFFFF" enable-background="new    " d="M379.7,314.3l-25.5-120h-52.8l3.1-7.4c2.1-4.9,19.4-44.8,40-51
		V81c-9.5-3.2-22.6-12.8-24.7-33.3l-0.6-5.9h121.1l-0.6,5.9C437.6,68.2,424.4,77.8,415,81v54.9c20.6,6.3,37.9,46.1,40,51l3.1,7.4
		h-52.8L379.7,314.3z M317.6,183.6h45.2l16.9,79.3l16.8-79.3h45.2c-8.6-17.7-22.3-37.9-32.1-37.9h-5.3V72.3l4.5-0.7
		c0.6-0.1,14.8-2.7,19.2-19.1h-96.6c4.5,16.7,19,19.1,19.2,19.1l4.5,0.7v73.4h-5.3C339.9,145.7,326.2,166,317.6,183.6z"/>
	<g>
		<g opacity="0.5">
			<polygon fill="#FFFFFF" points="552.1,105.9 530.4,55.2 506.6,105.9 			"/>
		</g>
		<rect x="506.6" y="255.2" opacity="0.5" fill="#FFFFFF" enable-background="new    " width="44.9" height="29.8"/>
		<path opacity="0.5" fill="#FFFFFF" enable-background="new    " d="M551.5,243.5h-44.9V115h44.9V243.5z M543.7,124.8h-29.6v106.8
			h29.6V124.8z"/>
	</g>
	<path opacity="0.5" fill="#FFFFFF" enable-background="new    " d="M0,298.5v-10.4h34.9c0,0,26.7,0,50.1,18.4
		c0,0,9.5-18.4,59.7-18.4h76.2V540h-90.7c0,0-38,0.6-49.4,19h-1.3c0,0-20.9-19-44.4-17.8H0v-11.8l30.2-0.3c0,0,43.6,0.3,49.2,15
		v-221c0,0-12.8-24.7-51.5-24.7L0,298.5z M187.8,360.4h-73v10.2h73V360.4z M187.8,392.4h-73v10.2h73V392.4z M187.8,423.6h-73v10.2
		h73V423.6z M187.8,455.5h-73v10.2h73V455.5z"/>
	<path opacity="0.5" fill="#FFFFFF" enable-background="new    " d="M748.6,635.4"/>
	<path fill="#FFFFFF" d="M714.7,757.6"/>
	<path fill="#FFFFFF" d="M1102.2,757.6"/>
	<path opacity="0.5" fill="#FFFFFF" enable-background="new    " d="M272.4,757.6l-42.1-41.1l104.8-15.2l46.9-95l46.9,95l104.8,15.2
		l-42.1,41.1 M467.2,757.6l25.5-24.9l-76.5-11.1L382,652.3l-34.2,69.3l-76.5,11.1l25.5,24.9"/>
	<polygon opacity="0.5" fill="#FFFFFF" enable-background="new    " points="119.3,617.4 130.7,640.6 156.3,644.3 137.8,662.4 
		142.2,687.9 119.3,675.8 96.4,687.9 100.8,662.4 82.3,644.3 107.9,640.6 	"/>
	<polygon opacity="0.5" fill="#FFFFFF" enable-background="new    " points="230.3,606.3 239.9,625.9 261.5,629 245.9,644.3 
		249.6,665.8 230.3,655.6 211,665.8 214.7,644.3 199,629 220.6,625.9 	"/>
	<g opacity="0.5">
		<g>
			<path fill="#FFFFFF" d="M321.9,375.9v-7.6c7.1-0.7,12.1-1.9,14.9-3.5c2.8-1.6,4.9-5.5,6.3-11.6h7.8v78.3h-10.5v-55.7h-18.5V375.9
				z"/>
			<path fill="#FFFFFF" d="M426.1,365.5c3.5,6.5,5.3,15.4,5.3,26.6c0,10.7-1.6,19.5-4.8,26.5c-4.6,10-12.2,15-22.6,15
				c-9.4,0-16.5-4.1-21.1-12.3c-3.8-6.8-5.8-16-5.8-27.6c0-8.9,1.2-16.6,3.5-23c4.3-11.9,12.1-17.9,23.4-17.9
				C414.2,353,421.6,357.2,426.1,365.5z M416.2,417.9c3-4.5,4.6-13,4.6-25.4c0-8.9-1.1-16.3-3.3-22c-2.2-5.8-6.5-8.6-12.8-8.6
				c-5.8,0-10.1,2.7-12.8,8.2c-2.7,5.5-4,13.5-4,24.2c0,8,0.9,14.5,2.6,19.3c2.6,7.4,7.1,11.1,13.5,11.1
				C409.1,424.7,413.2,422.5,416.2,417.9z"/>
			<path fill="#FFFFFF" d="M446.9,375.9v-7.6c7.1-0.7,12.1-1.9,14.9-3.5s4.9-5.5,6.3-11.6h7.8v78.3h-10.5v-55.7h-18.5V375.9z"/>
			<path fill="#FFFFFF" d="M551.2,365.5c3.5,6.5,5.3,15.4,5.3,26.6c0,10.7-1.6,19.5-4.8,26.5c-4.6,10-12.2,15-22.6,15
				c-9.4,0-16.5-4.1-21.1-12.3c-3.8-6.8-5.8-16-5.8-27.6c0-8.9,1.2-16.6,3.5-23c4.3-11.9,12.1-17.9,23.4-17.9
				C539.3,353,546.7,357.2,551.2,365.5z M541.3,417.9c3-4.5,4.6-13,4.6-25.4c0-8.9-1.1-16.3-3.3-22c-2.2-5.8-6.5-8.6-12.8-8.6
				c-5.8,0-10.1,2.7-12.8,8.2c-2.7,5.5-4,13.5-4,24.2c0,8,0.9,14.5,2.6,19.3c2.6,7.4,7.1,11.1,13.5,11.1
				C534.1,424.7,538.2,422.5,541.3,417.9z"/>
		</g>
		<g>
			<path fill="#FFFFFF" d="M328,474.9v-4.7c4.5-0.4,7.6-1.2,9.4-2.2c1.8-1,3.1-3.4,4-7.2h4.9v49.1h-6.6V475L328,474.9L328,474.9z"/>
			<path fill="#FFFFFF" d="M393.3,468.4c2.2,4.1,3.3,9.6,3.3,16.7c0,6.7-1,12.2-3,16.6c-2.9,6.3-7.6,9.4-14.2,9.4
				c-5.9,0-10.3-2.6-13.2-7.7c-2.4-4.3-3.6-10-3.6-17.3c0-5.6,0.7-10.4,2.2-14.4c2.7-7.5,7.6-11.2,14.7-11.2
				C385.9,460.5,390.5,463.1,393.3,468.4z M387.1,501.2c1.9-2.8,2.9-8.1,2.9-15.9c0-5.6-0.7-10.2-2.1-13.8c-1.4-3.6-4.1-5.4-8-5.4
				c-3.7,0-6.3,1.7-8,5.1c-1.7,3.4-2.5,8.5-2.5,15.2c0,5,0.5,9.1,1.6,12.1c1.7,4.7,4.5,7,8.5,7C382.6,505.5,385.2,504,387.1,501.2z"
				/>
			<path fill="#FFFFFF" d="M406.4,474.9v-4.7c4.5-0.4,7.6-1.2,9.4-2.2s3.1-3.4,4-7.2h4.9v49.1H418V475L406.4,474.9L406.4,474.9z"/>
			<path fill="#FFFFFF" d="M471.7,468.4c2.2,4.1,3.3,9.6,3.3,16.7c0,6.7-1,12.2-3,16.6c-2.9,6.3-7.6,9.4-14.2,9.4
				c-5.9,0-10.3-2.6-13.2-7.7c-2.4-4.3-3.6-10-3.6-17.3c0-5.6,0.7-10.4,2.2-14.4c2.7-7.5,7.6-11.2,14.7-11.2
				C464.3,460.5,468.9,463.1,471.7,468.4z M465.5,501.2c1.9-2.8,2.9-8.1,2.9-15.9c0-5.6-0.7-10.2-2.1-13.8c-1.4-3.6-4.1-5.4-8-5.4
				c-3.7,0-6.3,1.7-8,5.1c-1.7,3.4-2.5,8.5-2.5,15.2c0,5,0.5,9.1,1.6,12.1c1.7,4.7,4.5,7,8.5,7C461,505.5,463.6,504,465.5,501.2z"/>
		</g>
		<g>
			<path fill="#FFFFFF" d="M535,440.2h5c0.5,4.7,1.2,7.9,2.3,9.8c1.1,1.8,3.6,3.2,7.6,4.1v5.1h-51.3v-6.9H535V440.2z"/>
			<path fill="#FFFFFF" d="M541.8,508.4c-4.2,2.3-10.1,3.5-17.4,3.5c-7,0-12.8-1-17.4-3.1c-6.6-3-9.9-8-9.9-14.8
				c0-6.2,2.7-10.8,8.1-13.8c4.5-2.5,10.5-3.8,18.1-3.8c5.8,0,10.9,0.8,15.1,2.3c7.8,2.8,11.7,7.9,11.7,15.4
				C550,500.6,547.3,505.5,541.8,508.4z M507.5,501.9c3,2,8.5,3,16.6,3c5.8,0,10.7-0.7,14.4-2.2c3.8-1.4,5.7-4.2,5.7-8.4
				c0-3.8-1.8-6.6-5.4-8.4c-3.6-1.8-8.9-2.6-15.8-2.6c-5.2,0-9.5,0.6-12.7,1.7c-4.9,1.7-7.3,4.7-7.3,8.9
				C503,497.3,504.5,499.9,507.5,501.9z"/>
			<path fill="#FFFFFF" d="M535,522.1h5c0.5,4.7,1.2,7.9,2.3,9.8c1.1,1.8,3.6,3.2,7.6,4.1v5.1h-51.3v-6.9H535V522.1z"/>
			<path fill="#FFFFFF" d="M541.8,590.3c-4.2,2.3-10.1,3.5-17.4,3.5c-7,0-12.8-1-17.4-3.1c-6.6-3-9.9-8-9.9-14.8
				c0-6.2,2.7-10.8,8.1-13.8c4.5-2.5,10.5-3.8,18.1-3.8c5.8,0,10.9,0.8,15.1,2.3c7.8,2.8,11.7,7.9,11.7,15.4
				C550,582.6,547.3,587.4,541.8,590.3z M507.5,583.8c3,2,8.5,3,16.6,3c5.8,0,10.7-0.7,14.4-2.2c3.8-1.4,5.7-4.2,5.7-8.4
				c0-3.8-1.8-6.6-5.4-8.4c-3.6-1.8-8.9-2.6-15.8-2.6c-5.2,0-9.5,0.6-12.7,1.7c-4.9,1.7-7.3,4.7-7.3,8.9
				C503,579.2,504.5,581.8,507.5,583.8z"/>
		</g>
		<g>
			<path fill="#FFFFFF" d="M328,551.3v-4.7c4.5-0.4,7.6-1.2,9.4-2.2c1.8-1,3.1-3.4,4-7.2h4.9v49.1h-6.6v-34.9L328,551.3L328,551.3z"
				/>
			<path fill="#FFFFFF" d="M393.3,544.8c2.2,4.1,3.3,9.6,3.3,16.7c0,6.7-1,12.2-3,16.6c-2.9,6.3-7.6,9.4-14.2,9.4
				c-5.9,0-10.3-2.6-13.2-7.7c-2.4-4.3-3.6-10-3.6-17.3c0-5.6,0.7-10.4,2.2-14.4c2.7-7.5,7.6-11.2,14.7-11.2
				C385.9,536.9,390.5,539.5,393.3,544.8z M387.1,577.6c1.9-2.8,2.9-8.1,2.9-15.9c0-5.6-0.7-10.2-2.1-13.8c-1.4-3.6-4.1-5.4-8-5.4
				c-3.7,0-6.3,1.7-8,5.1c-1.7,3.4-2.5,8.5-2.5,15.2c0,5,0.5,9.1,1.6,12.1c1.7,4.7,4.5,7,8.5,7C382.6,581.9,385.2,580.5,387.1,577.6
				z"/>
			<path fill="#FFFFFF" d="M406.4,551.3v-4.7c4.5-0.4,7.6-1.2,9.4-2.2c1.8-1,3.1-3.4,4-7.2h4.9v49.1H418v-34.9L406.4,551.3
				L406.4,551.3z"/>
			<path fill="#FFFFFF" d="M471.7,544.8c2.2,4.1,3.3,9.6,3.3,16.7c0,6.7-1,12.2-3,16.6c-2.9,6.3-7.6,9.4-14.2,9.4
				c-5.9,0-10.3-2.6-13.2-7.7c-2.4-4.3-3.6-10-3.6-17.3c0-5.6,0.7-10.4,2.2-14.4c2.7-7.5,7.6-11.2,14.7-11.2
				C464.3,536.9,468.9,539.5,471.7,544.8z M465.5,577.6c1.9-2.8,2.9-8.1,2.9-15.9c0-5.6-0.7-10.2-2.1-13.8c-1.4-3.6-4.1-5.4-8-5.4
				c-3.7,0-6.3,1.7-8,5.1c-1.7,3.4-2.5,8.5-2.5,15.2c0,5,0.5,9.1,1.6,12.1c1.7,4.7,4.5,7,8.5,7C461,581.9,463.6,580.5,465.5,577.6z"
				/>
		</g>
	</g>
	
		<line opacity="0.5" fill="none" stroke="#FFFFFF" stroke-width="5" stroke-miterlimit="10" enable-background="new    " x1="14.4" y1="186.2" x2="3.5" y2="198.8"/>
	
		<line opacity="0.5" fill="none" stroke="#FFFFFF" stroke-width="5" stroke-miterlimit="10" enable-background="new    " x1="39.1" y1="197.6" x2="17.2" y2="245.2"/>
	
		<line opacity="0.5" fill="none" stroke="#FFFFFF" stroke-width="5" stroke-miterlimit="10" enable-background="new    " x1="62.4" y1="202.9" x2="51.5" y2="249"/>
	
		<line opacity="0.5" fill="none" stroke="#FFFFFF" stroke-width="5" stroke-miterlimit="10" enable-background="new    " x1="88.1" y1="207.2" x2="88.1" y2="255.2"/>
	
		<line opacity="0.5" fill="none" stroke="#FFFFFF" stroke-width="5" stroke-miterlimit="10" enable-background="new    " x1="112.4" y1="202.9" x2="126.2" y2="251.6"/>
	
		<line opacity="0.5" fill="none" stroke="#FFFFFF" stroke-width="5" stroke-miterlimit="10" enable-background="new    " x1="137.1" y1="197.6" x2="156.9" y2="241.9"/>
	
		<line opacity="0.5" fill="none" stroke="#FFFFFF" stroke-width="5" stroke-miterlimit="10" enable-background="new    " x1="161.4" y1="186.2" x2="186.6" y2="227.2"/>
	
		<line opacity="0.5" fill="none" stroke="#FFFFFF" stroke-width="5" stroke-miterlimit="10" enable-background="new    " x1="181.8" y1="170.1" x2="213.1" y2="202.9"/>
	
		<line opacity="0.5" fill="none" stroke="#FFFFFF" stroke-width="5" stroke-miterlimit="10" enable-background="new    " x1="197.4" y1="148.2" x2="238" y2="175.7"/>
	
		<line opacity="0.5" fill="none" stroke="#FFFFFF" stroke-width="5" stroke-miterlimit="10" enable-background="new    " x1="213.1" y1="126.3" x2="255.1" y2="144.4"/>
	
		<line opacity="0.5" fill="none" stroke="#FFFFFF" stroke-width="5" stroke-miterlimit="10" enable-background="new    " x1="217.7" y1="99.2" x2="263.2" y2="110.1"/>
	
		<line opacity="0.5" fill="none" stroke="#FFFFFF" stroke-width="5" stroke-miterlimit="10" enable-background="new    " x1="220.8" y1="74.9" x2="267.9" y2="75.8"/>
	
		<line opacity="0.5" fill="none" stroke="#FFFFFF" stroke-width="5" stroke-miterlimit="10" enable-background="new    " x1="217.7" y1="47.8" x2="263.2" y2="39.2"/>
	
		<line opacity="0.5" fill="none" stroke="#FFFFFF" stroke-width="5" stroke-miterlimit="10" enable-background="new    " x1="213.1" y1="24.9" x2="251.9" y2="1.9"/>
	<path opacity="0.5" fill="none" stroke="#FFFFFF" stroke-width="5" stroke-miterlimit="10" enable-background="new    " d="
		M166.6,0"/>
	<path opacity="0.5" fill="#FFFFFF" enable-background="new    " d="M169,1.9c16.1,18.9,23.4,41.4,23.4,68.2
		c0,59.6-48.3,108-108,108c-34.2,0-62.9-13.7-82.7-38.5V0h160.5L169,1.9z M45.5,15.1v24.8h4.7V5h-3.5c-0.6,2.7-1.6,4.4-2.8,5.1
		c-1.3,0.7-3.5,1.2-6.6,1.6v3.4H45.5z M73.8,4.9c-5,0-8.5,2.7-10.4,8c-1,2.8-1.5,6.3-1.5,10.2c0,5.1,0.9,9.2,2.6,12.3
		c2.1,3.6,5.2,5.5,9.4,5.5c4.7,0,8-2.2,10.1-6.7c1.4-3.1,2.1-7,2.1-11.8c0-5-0.8-9-2.3-11.8C81.6,6.7,78.4,4.9,73.8,4.9z M73.8,36.8
		c-2.8,0-4.8-1.7-6-5c-0.8-2.2-1.1-5-1.1-8.6c0-4.7,0.6-8.3,1.8-10.8c1.2-2.4,3.1-3.6,5.7-3.6c2.8,0,4.7,1.3,5.7,3.8
		c1,2.6,1.5,5.8,1.5,9.8c0,5.5-0.7,9.3-2,11.3C77.9,35.8,76.1,36.8,73.8,36.8z M101.1,15.1v24.8h4.7V5h-3.5
		c-0.6,2.7-1.6,4.4-2.8,5.1c-1.3,0.7-3.5,1.2-6.6,1.6v3.4H101.1z M129.5,4.9c-5,0-8.5,2.7-10.4,8c-1,2.8-1.5,6.3-1.5,10.2
		c0,5.1,0.9,9.2,2.6,12.3c2.1,3.6,5.2,5.5,9.4,5.5c4.7,0,8-2.2,10.1-6.7c1.4-3.1,2.1-7,2.1-11.8c0-5-0.8-9-2.3-11.8
		C137.3,6.7,134,4.9,129.5,4.9z M129.4,36.8c-2.8,0-4.8-1.7-6-5c-0.8-2.2-1.1-5-1.1-8.6c0-4.7,0.6-8.3,1.8-10.8
		c1.2-2.4,3.1-3.6,5.7-3.6c2.8,0,4.7,1.3,5.7,3.8c1,2.6,1.5,5.8,1.5,9.8c0,5.5-0.7,9.3-2,11.3C133.5,35.8,131.7,36.8,129.4,36.8z
		 M45.5,75.1v24.8h4.7V65h-3.5c-0.6,2.7-1.6,4.4-2.8,5.1c-1.3,0.7-3.5,1.2-6.6,1.6v3.4H45.5z M73.8,64.9c-5,0-8.5,2.7-10.4,8
		c-1,2.8-1.5,6.3-1.5,10.2c0,5.1,0.9,9.2,2.6,12.3c2.1,3.6,5.2,5.5,9.4,5.5c4.7,0,8-2.2,10.1-6.7c1.4-3.1,2.1-7,2.1-11.8
		c0-5-0.8-9-2.3-11.8C81.6,66.7,78.4,64.9,73.8,64.9z M73.8,96.8c-2.8,0-4.8-1.7-6-5c-0.8-2.2-1.1-5-1.1-8.6c0-4.7,0.6-8.3,1.8-10.8
		c1.2-2.4,3.1-3.6,5.7-3.6c2.8,0,4.7,1.3,5.7,3.8c1,2.6,1.5,5.8,1.5,9.8c0,5.5-0.7,9.3-2,11.3C77.9,95.8,76.1,96.8,73.8,96.8z
		 M101.1,75.1v24.8h4.7V65h-3.5c-0.6,2.7-1.6,4.4-2.8,5.1c-1.3,0.7-3.5,1.2-6.6,1.6v3.4H101.1z M129.5,64.9c-5,0-8.5,2.7-10.4,8
		c-1,2.8-1.5,6.3-1.5,10.2c0,5.1,0.9,9.2,2.6,12.3c2.1,3.6,5.2,5.5,9.4,5.5c4.7,0,8-2.2,10.1-6.7c1.4-3.1,2.1-7,2.1-11.8
		c0-5-0.8-9-2.3-11.8C137.3,66.7,134,64.9,129.5,64.9z M129.4,96.8c-2.8,0-4.8-1.7-6-5c-0.8-2.2-1.1-5-1.1-8.6
		c0-4.7,0.6-8.3,1.8-10.8c1.2-2.4,3.1-3.6,5.7-3.6c2.8,0,4.7,1.3,5.7,3.8c1,2.6,1.5,5.8,1.5,9.8c0,5.5-0.7,9.3-2,11.3
		C133.5,95.8,131.7,96.8,129.4,96.8z M45.5,135.1v24.8h4.7V125h-3.5c-0.6,2.7-1.6,4.4-2.8,5.1c-1.3,0.7-3.5,1.2-6.6,1.6v3.4H45.5z
		 M73.8,124.9c-5,0-8.5,2.7-10.4,8c-1,2.8-1.5,6.3-1.5,10.2c0,5.1,0.9,9.2,2.6,12.3c2.1,3.6,5.2,5.5,9.4,5.5c4.7,0,8-2.2,10.1-6.7
		c1.4-3.1,2.1-7,2.1-11.8c0-5-0.8-9-2.3-11.8C81.6,126.7,78.4,124.9,73.8,124.9z M73.8,156.8c-2.8,0-4.8-1.7-6-5
		c-0.8-2.2-1.1-5-1.1-8.6c0-4.7,0.6-8.3,1.8-10.8c1.2-2.4,3.1-3.6,5.7-3.6c2.8,0,4.7,1.3,5.7,3.8c1,2.6,1.5,5.8,1.5,9.8
		c0,5.5-0.7,9.3-2,11.3C77.9,155.8,76.1,156.8,73.8,156.8z M101.1,135.1v24.8h4.7V125h-3.5c-0.6,2.7-1.6,4.4-2.8,5.1
		c-1.3,0.7-3.5,1.2-6.6,1.6v3.4H101.1z M129.5,124.9c-5,0-8.5,2.7-10.4,8c-1,2.8-1.5,6.3-1.5,10.2c0,5.1,0.9,9.2,2.6,12.3
		c2.1,3.6,5.2,5.5,9.4,5.5c4.7,0,8-2.2,10.1-6.7c1.4-3.1,2.1-7,2.1-11.8c0-5-0.8-9-2.3-11.8C137.3,126.7,134,124.9,129.5,124.9z
		 M129.4,156.8c-2.8,0-4.8-1.7-6-5c-0.8-2.2-1.1-5-1.1-8.6c0-4.7,0.6-8.3,1.8-10.8c1.2-2.4,3.1-3.6,5.7-3.6c2.8,0,4.7,1.3,5.7,3.8
		c1,2.6,1.5,5.8,1.5,9.8c0,5.5-0.7,9.3-2,11.3C133.5,155.8,131.7,156.8,129.4,156.8z M17.1,4.5c-5,0-8.5,2.7-10.4,8
		c-1,2.8-1.5,6.3-1.5,10.2c0,5.1,0.9,9.2,2.6,12.3c2.1,3.6,5.2,5.5,9.4,5.5c4.7,0,8-2.2,10.1-6.7c1.4-3.1,2.1-7,2.1-11.8
		c0-5-0.8-9-2.3-11.8C24.9,6.3,21.7,4.5,17.1,4.5z M17.1,36.4c-2.8,0-4.8-1.7-6-5c-0.8-2.2-1.1-5-1.1-8.6c0-4.7,0.6-8.3,1.8-10.8
		c1.2-2.4,3.1-3.6,5.7-3.6c2.8,0,4.7,1.3,5.7,3.8c1,2.6,1.5,5.8,1.5,9.8c0,5.5-0.7,9.3-2,11.3C21.2,35.4,19.4,36.4,17.1,36.4z
		 M158.6,15.1v24.8h4.7V5h-3.5c-0.6,2.7-1.6,4.4-2.8,5.1c-1.3,0.7-3.5,1.2-6.6,1.6v3.4H158.6z M17.9,64.5c-5,0-8.5,2.7-10.4,8
		C6.5,75.3,6,78.8,6,82.7c0,5.1,0.9,9.2,2.6,12.3c2.1,3.6,5.2,5.5,9.4,5.5c4.7,0,8-2.2,10.1-6.7c1.4-3.1,2.1-7,2.1-11.8
		c0-5-0.8-9-2.3-11.8C25.7,66.3,22.4,64.5,17.9,64.5z M17.8,96.4c-2.8,0-4.8-1.7-6-5c-0.8-2.2-1.1-5-1.1-8.6c0-4.7,0.6-8.3,1.8-10.8
		c1.2-2.4,3.1-3.6,5.7-3.6c2.8,0,4.7,1.3,5.7,3.8c1,2.6,1.5,5.8,1.5,9.8c0,5.5-0.7,9.3-2,11.3C21.9,95.4,20.1,96.4,17.8,96.4z
		 M159.4,75.1v24.8h4.7V65h-3.5c-0.6,2.7-1.6,4.4-2.8,5.1c-1.3,0.7-3.5,1.2-6.6,1.6v3.4H159.4z"/>
	<g>
		<path fill="#FFFFFF" d="M679.2,0"/>
	</g>
	<path opacity="0.5" fill="#FFFFFF" enable-background="new    " d="M772.5,757.6V648c-20.8-7.2-49.9-28.2-54.5-73.4l-1.3-12.9
		h266.8l-1.3,12.9c-4.6,45.2-33.6,66.3-54.5,73.4v109.6l-23.5-0.1V628.8l10-1.5c1.4-0.2,32.6-5.9,42.3-42.1H743.7
		c9.8,36.7,41.9,42.1,42.3,42.1l10,1.5v128.8H772.5z"/>
	<g opacity="0.5">
		<path fill="#FFFFFF" d="M1082.5,694.3c-27.5,0-49.8-22.3-49.8-49.8s22.3-49.8,49.8-49.8c27.5,0,49.8,22.3,49.8,49.8
			S1109.9,694.3,1082.5,694.3z M1082.5,627.5c-9.4,0-17,7.6-17,17c0,9.4,7.6,17,17,17s17-7.6,17-17
			C1099.5,635.1,1091.9,627.5,1082.5,627.5z"/>
	</g>
</g>
</svg>
