<?xml version="1.0" encoding="utf-8"?>
<!-- Generator: Adobe Illustrator 18.1.1, SVG Export Plug-In . SVG Version: 6.00 Build 0)  -->
<svg version="1.1" id="Layer_1" xmlns="http://www.w3.org/2000/svg" xmlns:xlink="http://www.w3.org/1999/xlink" x="0px" y="0px"
	 viewBox="0 84.2 1190.6 757.7" enable-background="new 0 84.2 1190.6 757.7" xml:space="preserve">
<g>
	<g>
		<g>
			<defs>
				<rect id="SVGID_1_" y="84.2" width="1190.6" height="756"/>
			</defs>
			<clipPath id="SVGID_2_">
				<use xlink:href="#SVGID_1_"  overflow="visible"/>
			</clipPath>
			<rect y="84.2" clip-path="url(#SVGID_2_)" fill="#C8D5E2" width="1190.6" height="756"/>
		</g>
		<g>
			<defs>
				<rect id="SVGID_3_" y="84.2" width="1190.6" height="756"/>
			</defs>
			<clipPath id="SVGID_4_">
				<use xlink:href="#SVGID_3_"  overflow="visible"/>
			</clipPath>
			<rect y="84.2" clip-path="url(#SVGID_4_)" fill="none" width="1190.6" height="164.8"/>
		</g>
		<g>
			<defs>
				<rect id="SVGID_5_" y="84.2" width="1190.6" height="756"/>
			</defs>
			<clipPath id="SVGID_6_">
				<use xlink:href="#SVGID_5_"  overflow="visible"/>
			</clipPath>
			<rect y="84.2" clip-path="url(#SVGID_6_)" fill="none" width="1190.6" height="164.8"/>
		</g>
		<g>
			<defs>
				<rect id="SVGID_7_" y="84.2" width="1190.6" height="756"/>
			</defs>
			<clipPath id="SVGID_8_">
				<use xlink:href="#SVGID_7_"  overflow="visible"/>
			</clipPath>
			<g clip-path="url(#SVGID_8_)">
				<path fill="#D9E2EA" d="M829.1,23.7c8.2,15.1,12.2,35.7,12.2,61.9c0,24.9-3.8,45.4-11.2,61.6c-10.8,23.3-28.3,35-52.6,35
					c-21.9,0-38.4-9.6-49-28.7c-8.9-15.9-13.5-37.3-13.5-64.1c0-20.7,2.7-38.6,8.1-53.4c10.1-27.7,28.3-41.6,54.5-41.6
					C801.4-5.6,818.5,4.2,829.1,23.7z M805.9,145.5c7.1-10.5,10.6-30.3,10.6-58.9c0-20.7-2.6-37.8-7.7-51.3s-15.1-20.1-29.7-20.1
					c-13.6,0-23.4,6.3-29.7,19.1c-6.3,12.8-9.4,31.5-9.4,56.3c0,18.7,2,33.6,6.1,44.9c6.2,17.2,16.7,26,31.5,26
					C789.3,161.2,798.8,156,805.9,145.5z"/>
			</g>
		</g>
		<g>
			<defs>
				<rect id="SVGID_9_" y="84.2" width="1190.6" height="756"/>
			</defs>
			<clipPath id="SVGID_10_">
				<use xlink:href="#SVGID_9_"  overflow="visible"/>
			</clipPath>
			<rect y="84.2" clip-path="url(#SVGID_10_)" fill="none" width="1190.6" height="164.8"/>
		</g>
		<g>
			<defs>
				<rect id="SVGID_11_" y="84.2" width="1190.6" height="756"/>
			</defs>
			<clipPath id="SVGID_12_">
				<use xlink:href="#SVGID_11_"  overflow="visible"/>
			</clipPath>
			<g clip-path="url(#SVGID_12_)">
				<path fill="#D9E2EA" d="M1035.5,23.7c8.2,15.1,12.2,35.7,12.2,61.9c0,24.9-3.8,45.4-11.2,61.6c-10.8,23.3-28.3,35-52.6,35
					c-21.9,0-38.4-9.6-49-28.7c-8.9-15.9-13.5-37.3-13.5-64.1c0-20.7,2.7-38.6,8.1-53.4C939.6,8.3,957.8-5.6,984-5.6
					C1007.9-5.6,1025,4.2,1035.5,23.7z M1012.4,145.5c7.1-10.5,10.6-30.3,10.6-58.9c0-20.7-2.6-37.8-7.7-51.3s-15.1-20.1-29.7-20.1
					c-13.6,0-23.4,6.3-29.7,19.1c-6.3,12.8-9.4,31.5-9.4,56.3c0,18.7,2,33.6,6.1,44.9c6.2,17.2,16.7,26,31.5,26
					C995.8,161.2,1005.4,156,1012.4,145.5z"/>
			</g>
		</g>
		<g>
			<defs>
				<rect id="SVGID_13_" y="84.2" width="1190.6" height="756"/>
			</defs>
			<clipPath id="SVGID_14_">
				<use xlink:href="#SVGID_13_"  overflow="visible"/>
			</clipPath>
			<rect y="84.2" clip-path="url(#SVGID_14_)" fill="none" width="1190.6" height="164.8"/>
		</g>
		<g>
			<defs>
				<rect id="SVGID_15_" y="84.2" width="1190.6" height="756"/>
			</defs>
			<clipPath id="SVGID_16_">
				<use xlink:href="#SVGID_15_"  overflow="visible"/>
			</clipPath>
			<rect x="872.4" y="0.8" clip-path="url(#SVGID_16_)" fill="#D9E2EA" width="22.7" height="181.4"/>
		</g>
		<g>
			<defs>
				<rect id="SVGID_17_" y="84.2" width="1190.6" height="756"/>
			</defs>
			<clipPath id="SVGID_18_">
				<use xlink:href="#SVGID_17_"  overflow="visible"/>
			</clipPath>
			<g clip-path="url(#SVGID_18_)">
				<g>
					<defs>
						<rect id="SVGID_19_" y="84.2" width="1190.6" height="164.8"/>
					</defs>
					<clipPath id="SVGID_20_">
						<use xlink:href="#SVGID_19_"  overflow="visible"/>
					</clipPath>
					<g clip-path="url(#SVGID_20_)">
						<path fill="#D9E2EA" d="M593.3,137.8c-6.6,3.5-15.6,5.4-26.9,5.4c-10.8,0-19.8-1.6-26.8-4.8c-10.1-4.7-15.2-12.2-15.2-22.9
							c0-9.6,4.2-16.7,12.5-21.4c6.7-3.9,16-5.8,27.7-5.8c9,0,16.8,1.2,23.3,3.5c12.1,4.3,18.2,12.2,18.2,23.7
							C606.1,125.8,601.8,133.2,593.3,137.8z M540.3,127.8c4.6,3.1,13.2,4.6,25.7,4.6c9,0,16.4-1.1,22.3-3.4
							c5.8-2.3,8.7-6.6,8.7-12.9c0-5.9-2.8-10.2-8.3-12.9s-13.7-4-24.5-4c-8.1,0-14.7,0.8-19.5,2.6c-7.5,2.7-11.3,7.3-11.3,13.7
							C533.4,120.6,535.7,124.8,540.3,127.8z"/>
					</g>
				</g>
				<g>
					<defs>
						<rect id="SVGID_21_" y="84.2" width="1190.6" height="756"/>
					</defs>
					<clipPath id="SVGID_22_">
						<use xlink:href="#SVGID_21_"  overflow="visible"/>
					</clipPath>
					<g clip-path="url(#SVGID_22_)">
						<g>
							<defs>
								<rect id="SVGID_23_" y="84.2" width="1190.6" height="164.8"/>
							</defs>
							<clipPath id="SVGID_24_">
								<use xlink:href="#SVGID_23_"  overflow="visible"/>
							</clipPath>
							<rect x="524.3" y="156.8" clip-path="url(#SVGID_24_)" fill="#D9E2EA" width="79" height="10"/>
						</g>
						<g>
							<defs>
								<rect id="SVGID_25_" y="84.2" width="1190.6" height="756"/>
							</defs>
							<clipPath id="SVGID_26_">
								<use xlink:href="#SVGID_25_"  overflow="visible"/>
							</clipPath>
							<g clip-path="url(#SVGID_26_)">
								<g>
									<defs>
										<rect id="SVGID_27_" y="84.2" width="1190.6" height="164.8"/>
									</defs>
									<clipPath id="SVGID_28_">
										<use xlink:href="#SVGID_27_"  overflow="visible"/>
									</clipPath>
									<g clip-path="url(#SVGID_28_)">
										<path fill="#D9E2EA" d="M1196.2,220c-9.3,5-22.1,7.5-38.2,7.5c-15.3,0-28-2.3-38.1-6.9c-14.4-6.6-21.5-17.5-21.5-32.4
											c0-13.6,5.9-23.7,17.6-30.3c9.8-5.5,23-8.3,39.6-8.3c12.8,0,23.8,1.6,33,5c17.1,6.2,25.7,17.4,25.7,33.6
											C1214.4,203.1,1208.3,213.6,1196.2,220z M1121.2,205.8c6.5,4.3,18.7,6.6,36.5,6.6c12.8,0,23.4-1.6,31.6-4.7
											c8.3-3.1,12.4-9.3,12.4-18.4c0-8.3-3.9-14.5-11.8-18.3c-7.8-3.9-19.4-5.8-34.7-5.8c-11.6,0-20.7,1.2-27.7,3.8
											c-10.6,3.8-16,10.2-16,19.4C1111.4,195.5,1114.7,201.5,1121.2,205.8z"/>
									</g>
								</g>
								<g>
									<defs>
										<rect id="SVGID_29_" y="84.2" width="1190.6" height="756"/>
									</defs>
									<clipPath id="SVGID_30_">
										<use xlink:href="#SVGID_29_"  overflow="visible"/>
									</clipPath>
									<g clip-path="url(#SVGID_30_)">
										<g>
											<defs>
												<rect id="SVGID_31_" y="84.2" width="1190.6" height="164.8"/>
											</defs>
											<clipPath id="SVGID_32_">
												<use xlink:href="#SVGID_31_"  overflow="visible"/>
											</clipPath>
											<rect x="1098.5" y="246.8" clip-path="url(#SVGID_32_)" fill="#D9E2EA" width="112" height="14.1"/>
										</g>
										<g id="Layer_3">
											<defs>
												<rect id="SVGID_33_" y="84.2" width="1190.6" height="756"/>
											</defs>
											<clipPath id="SVGID_34_">
												<use xlink:href="#SVGID_33_"  overflow="visible"/>
											</clipPath>
											<g clip-path="url(#SVGID_34_)">
												<g>
													<defs>
														<rect id="SVGID_35_" y="84.2" width="1190.6" height="164.8"/>
													</defs>
													<clipPath id="SVGID_36_">
														<use xlink:href="#SVGID_35_"  overflow="visible"/>
													</clipPath>
													<rect x="1098.5" y="101.6" clip-path="url(#SVGID_36_)" fill="#D9E2EA" width="112" height="14.1"/>
												</g>
												<g>
													<defs>
														<rect id="SVGID_37_" y="84.2" width="1190.6" height="756"/>
													</defs>
													<clipPath id="SVGID_38_">
														<use xlink:href="#SVGID_37_"  overflow="visible"/>
													</clipPath>
													<rect y="84.2" clip-path="url(#SVGID_38_)" fill="none" width="1190.6" height="164.8"/>
												</g>
												<g>
													<defs>
														<rect id="SVGID_39_" y="84.2" width="1190.6" height="756"/>
													</defs>
													<clipPath id="SVGID_40_">
														<use xlink:href="#SVGID_39_"  overflow="visible"/>
													</clipPath>
													<rect x="679.2" y="0.8" clip-path="url(#SVGID_40_)" fill="#D9E2EA" width="22.7" height="181.4"/>
												</g>
												<g>
													<defs>
														<rect id="SVGID_41_" y="84.2" width="1190.6" height="756"/>
													</defs>
													<clipPath id="SVGID_42_">
														<use xlink:href="#SVGID_41_"  overflow="visible"/>
													</clipPath>
													<rect y="84.2" clip-path="url(#SVGID_42_)" fill="none" width="1190.6" height="164.8"/>
												</g>
												<g>
													<defs>
														<rect id="SVGID_43_" y="84.2" width="1190.6" height="756"/>
													</defs>
													<clipPath id="SVGID_44_">
														<use xlink:href="#SVGID_43_"  overflow="visible"/>
													</clipPath>
													<g clip-path="url(#SVGID_44_)">
														<path fill="#D9E2EA" d="M205.5,23.7c8.2,15.1,12.2,35.7,12.2,61.9c0,24.9-3.8,45.4-11.2,61.6
															c-10.8,23.3-28.3,35-52.6,35c-21.9,0-38.4-9.6-49-28.7c-8.9-15.9-13.5-37.3-13.5-64.1c0-20.7,2.7-38.6,8.1-53.4
															C109.6,8.3,127.8-5.6,154-5.6C177.9-5.6,195,4.2,205.5,23.7z M182.3,145.5c7.2-10.5,10.7-30.3,10.7-59
															c0-20.7-2.6-37.8-7.7-51.3c-5.1-13.5-15.1-20.1-29.7-20.1c-13.6,0-23.4,6.3-29.7,19.1c-6.3,12.8-9.4,31.5-9.4,56.3
															c0,18.7,2,33.6,6.1,44.9c6.2,17.2,16.7,26,31.5,26C165.8,161.2,175.3,156,182.3,145.5z"/>
													</g>
												</g>
												<g>
													<defs>
														<rect id="SVGID_45_" y="84.2" width="1190.6" height="756"/>
													</defs>
													<clipPath id="SVGID_46_">
														<use xlink:href="#SVGID_45_"  overflow="visible"/>
													</clipPath>
													<rect y="84.2" clip-path="url(#SVGID_46_)" fill="none" width="1190.6" height="164.8"/>
												</g>
												<g>
													<defs>
														<rect id="SVGID_47_" y="84.2" width="1190.6" height="756"/>
													</defs>
													<clipPath id="SVGID_48_">
														<use xlink:href="#SVGID_47_"  overflow="visible"/>
													</clipPath>
													<g clip-path="url(#SVGID_48_)">
														<path fill="#D9E2EA" d="M412.1,23.7c8.2,15.1,12.2,35.7,12.2,61.9c0,24.9-3.8,45.4-11.2,61.6
															c-10.8,23.3-28.3,35-52.6,35c-21.9,0-38.4-9.6-49-28.7c-8.9-15.9-13.5-37.3-13.5-64.1c0-20.7,2.7-38.6,8.1-53.4
															c10.1-27.7,28.3-41.6,54.5-41.6C384.3-5.6,401.4,4.2,412.1,23.7z M388.9,145.5c7.1-10.5,10.6-30.3,10.6-58.9
															c0-20.7-2.6-37.8-7.7-51.3s-15.1-20.1-29.7-20.1c-13.6,0-23.4,6.3-29.7,19.1S323,65.8,323,90.6
															c0,18.7,2,33.6,6.1,44.9c6.2,17.2,16.7,26,31.5,26C372.4,161.2,381.8,156,388.9,145.5z"/>
													</g>
												</g>
												<g>
													<defs>
														<rect id="SVGID_49_" y="84.2" width="1190.6" height="756"/>
													</defs>
													<clipPath id="SVGID_50_">
														<use xlink:href="#SVGID_49_"  overflow="visible"/>
													</clipPath>
													<rect y="84.2" clip-path="url(#SVGID_50_)" fill="none" width="1190.6" height="164.8"/>
												</g>
												<g>
													<defs>
														<rect id="SVGID_51_" y="84.2" width="1190.6" height="756"/>
													</defs>
													<clipPath id="SVGID_52_">
														<use xlink:href="#SVGID_51_"  overflow="visible"/>
													</clipPath>
													<rect x="248.8" y="0.8" clip-path="url(#SVGID_52_)" fill="#D9E2EA" width="22.7" height="181.4"/>
												</g>
												<g>
													<defs>
														<rect id="SVGID_53_" y="84.2" width="1190.6" height="756"/>
													</defs>
													<clipPath id="SVGID_54_">
														<use xlink:href="#SVGID_53_"  overflow="visible"/>
													</clipPath>
													<rect y="84.2" clip-path="url(#SVGID_54_)" fill="none" width="1190.6" height="164.8"/>
												</g>
												<g>
													<defs>
														<rect id="SVGID_55_" y="84.2" width="1190.6" height="756"/>
													</defs>
													<clipPath id="SVGID_56_">
														<use xlink:href="#SVGID_55_"  overflow="visible"/>
													</clipPath>
													<rect x="28.8" y="0.8" clip-path="url(#SVGID_56_)" fill="#D9E2EA" width="22.7" height="181.4"/>
												</g>
												<g>
													<defs>
														<rect id="SVGID_57_" y="84.2" width="1190.6" height="756"/>
													</defs>
													<clipPath id="SVGID_58_">
														<use xlink:href="#SVGID_57_"  overflow="visible"/>
													</clipPath>
												</g>
												<g>
													<defs>
														<rect id="SVGID_59_" y="84.2" width="1190.6" height="756"/>
													</defs>
													<clipPath id="SVGID_60_">
														<use xlink:href="#SVGID_59_"  overflow="visible"/>
													</clipPath>
												</g>
												<g>
													<defs>
														<rect id="SVGID_61_" y="84.2" width="1190.6" height="756"/>
													</defs>
													<clipPath id="SVGID_62_">
														<use xlink:href="#SVGID_61_"  overflow="visible"/>
													</clipPath>
												</g>
												<g>
													<defs>
														<rect id="SVGID_63_" y="84.2" width="1190.6" height="756"/>
													</defs>
													<clipPath id="SVGID_64_">
														<use xlink:href="#SVGID_63_"  overflow="visible"/>
													</clipPath>
												</g>
												<g>
													<defs>
														<rect id="SVGID_65_" y="84.2" width="1190.6" height="756"/>
													</defs>
													<clipPath id="SVGID_66_">
														<use xlink:href="#SVGID_65_"  overflow="visible"/>
													</clipPath>
												</g>
												<g>
													<defs>
														<rect id="SVGID_67_" y="84.2" width="1190.6" height="756"/>
													</defs>
													<clipPath id="SVGID_68_">
														<use xlink:href="#SVGID_67_"  overflow="visible"/>
													</clipPath>
												</g>
												<g>
													<defs>
														<rect id="SVGID_69_" y="84.2" width="1190.6" height="756"/>
													</defs>
													<clipPath id="SVGID_70_">
														<use xlink:href="#SVGID_69_"  overflow="visible"/>
													</clipPath>
													<g clip-path="url(#SVGID_70_)">
														<path fill="#D9E2EA" d="M1098.4,330.6c8.2,15.1,12.2,35.7,12.2,61.9c0,24.9-3.8,45.4-11.2,61.6
															c-10.8,23.3-28.3,35-52.6,35c-21.9,0-38.4-9.6-49-28.7c-8.9-15.9-13.5-37.3-13.5-64.1c0-20.7,2.7-38.6,8.1-53.4
															c10.1-27.7,28.3-41.6,54.5-41.6C1070.6,301.3,1087.7,311.1,1098.4,330.6z M1075.2,452.3c7.1-10.5,10.6-30.3,10.6-58.9
															c0-20.7-2.6-37.8-7.7-51.3c-5.1-13.5-15.1-20.1-29.7-20.1c-13.6,0-23.4,6.3-29.7,19.1s-9.4,31.5-9.4,56.3
															c0,18.7,2,33.6,6.1,44.9c6.2,17.2,16.7,26,31.5,26C1058.5,468,1068.1,462.8,1075.2,452.3z"/>
													</g>
												</g>
												<g>
													<defs>
														<rect id="SVGID_71_" y="84.2" width="1190.6" height="756"/>
													</defs>
													<clipPath id="SVGID_72_">
														<use xlink:href="#SVGID_71_"  overflow="visible"/>
													</clipPath>
													<rect x="1141.7" y="307.7" clip-path="url(#SVGID_72_)" fill="#D9E2EA" width="22.7" height="181.4"/>
												</g>
												<g>
													<defs>
														<rect id="SVGID_73_" y="84.2" width="1190.6" height="756"/>
													</defs>
													<clipPath id="SVGID_74_">
														<use xlink:href="#SVGID_73_"  overflow="visible"/>
													</clipPath>
													<rect x="948.5" y="307.7" clip-path="url(#SVGID_74_)" fill="#D9E2EA" width="22.7" height="181.4"/>
												</g>
												<g>
													<defs>
														<rect id="SVGID_75_" y="84.2" width="1190.6" height="756"/>
													</defs>
													<clipPath id="SVGID_76_">
														<use xlink:href="#SVGID_75_"  overflow="visible"/>
													</clipPath>
													<g clip-path="url(#SVGID_76_)">
														<g>
															<path fill="#D9E2EA" d="M95.4,241.6c3.1,5.7,4.6,13.4,4.6,23.3c0,9.4-1.4,17.1-4.2,23.2
																c-4.1,8.8-10.7,13.2-19.8,13.2c-8.3,0-14.5-3.6-18.5-10.8c-3.3-6-5.1-14.1-5.1-24.2c0-7.8,1-14.6,3-20.1
																c3.8-10.5,10.7-15.7,20.6-15.7C85,230.5,91.5,234.2,95.4,241.6z M86.7,287.5c2.7-4,4-11.4,4-22.2
																c0-7.8-1-14.3-2.9-19.3c-1.9-5.1-5.7-7.6-11.2-7.6c-5.1,0-8.8,2.4-11.2,7.2c-2.4,4.8-3.6,11.9-3.6,21.2
																c0,7.1,0.8,12.7,2.3,16.9c2.3,6.5,6.3,9.8,11.9,9.8C80.5,293.5,84.1,291.5,86.7,287.5z"/>
														</g>
														<g>
															<path fill="#D9E2EA" d="M173.3,241.6c3.1,5.7,4.6,13.4,4.6,23.3c0,9.4-1.4,17.1-4.2,23.2
																c-4.1,8.8-10.7,13.2-19.8,13.2c-8.3,0-14.5-3.6-18.5-10.8c-3.3-6-5.1-14.1-5.1-24.2c0-7.8,1-14.6,3-20.1
																c3.8-10.5,10.7-15.7,20.6-15.7C162.9,230.5,169.3,234.2,173.3,241.6z M164.6,287.5c2.7-4,4-11.4,4-22.2
																c0-7.8-1-14.3-2.9-19.3c-1.9-5-5.7-7.6-11.2-7.6c-5.1,0-8.8,2.4-11.2,7.2s-3.6,11.9-3.6,21.2
																c0,7.1,0.8,12.7,2.3,16.9c2.3,6.5,6.3,9.8,11.9,9.8C158.4,293.5,161.9,291.5,164.6,287.5z"/>
														</g>
														<rect x="111.8" y="233" fill="#D9E2EA" width="8.6" height="68.4"/>
														<rect x="28.8" y="233" fill="#D9E2EA" width="8.6" height="68.4"/>
													</g>
												</g>
												<g>
													<defs>
														<rect id="SVGID_77_" y="84.2" width="1190.6" height="756"/>
													</defs>
													<clipPath id="SVGID_78_">
														<use xlink:href="#SVGID_77_"  overflow="visible"/>
													</clipPath>
													<g clip-path="url(#SVGID_78_)">
														<g>
															<path fill="#D9E2EA" d="M425.5,243.1c8.2,15.1,12.2,35.7,12.2,61.9c0,24.9-3.8,45.4-11.2,61.6
																c-10.8,23.3-28.3,35-52.6,35c-21.9,0-38.4-9.6-49-28.7c-8.9-15.9-13.5-37.3-13.5-64.1c0-20.7,2.7-38.6,8.1-53.4
																c10.1-27.7,28.3-41.6,54.5-41.6C397.9,213.7,415,223.5,425.5,243.1z M402.4,364.7c7.1-10.5,10.6-30.3,10.6-58.9
																c0-20.7-2.6-37.8-7.7-51.3c-5.1-13.5-15.1-20.1-29.7-20.1c-13.6,0-23.4,6.3-29.7,19.1c-6.3,12.8-9.4,31.5-9.4,56.3
																c0,18.7,2,33.6,6.1,44.9c6.2,17.2,16.7,26,31.5,26C385.8,380.5,395.4,375.2,402.4,364.7z"/>
														</g>
														<g>
															<path fill="#D9E2EA" d="M632.1,243.1c8.2,15.1,12.2,35.7,12.2,61.9c0,24.9-3.8,45.4-11.2,61.6
																c-10.8,23.3-28.3,35-52.6,35c-21.9,0-38.4-9.6-49-28.7c-8.9-15.9-13.5-37.3-13.5-64.1c0-20.7,2.7-38.6,8.1-53.4
																c10.1-27.7,28.3-41.6,54.5-41.6C604.4,213.7,621.4,223.5,632.1,243.1z M608.9,364.7c7.1-10.5,10.6-30.3,10.6-58.9
																c0-20.7-2.6-37.8-7.7-51.3c-5.1-13.5-15.1-20.1-29.7-20.1c-13.6,0-23.4,6.3-29.7,19.1c-6.3,12.8-9.4,31.5-9.4,56.3
																c0,18.7,2,33.6,6.1,44.9c6.2,17.2,16.7,26,31.5,26C592.4,380.5,601.8,375.2,608.9,364.7z"/>
														</g>
														<rect x="468.8" y="220.2" fill="#D9E2EA" width="22.7" height="181.4"/>
														<rect x="248.8" y="220.2" fill="#D9E2EA" width="22.7" height="181.4"/>
													</g>
												</g>
												<g>
													<defs>
														<rect id="SVGID_79_" y="84.2" width="1190.6" height="756"/>
													</defs>
													<clipPath id="SVGID_80_">
														<use xlink:href="#SVGID_79_"  overflow="visible"/>
													</clipPath>
													<g clip-path="url(#SVGID_80_)">
														<g>
															<path fill="#D9E2EA" d="M757.2,224.7c3.1,5.7,4.6,13.4,4.6,23.3c0,9.4-1.4,17.1-4.2,23.2
																c-4.1,8.8-10.7,13.2-19.8,13.2c-8.3,0-14.5-3.6-18.5-10.8c-3.3-6-5.1-14.1-5.1-24.2c0-7.8,1-14.6,3-20.1
																c3.8-10.5,10.7-15.7,20.6-15.7C746.8,213.7,753.2,217.4,757.2,224.7z M748.5,270.6c2.7-4,4-11.4,4-22.2
																c0-7.8-1-14.3-2.9-19.3c-1.9-5-5.7-7.6-11.2-7.6c-5.1,0-8.8,2.4-11.2,7.2c-2.4,4.8-3.6,11.9-3.6,21.2
																c0,7.1,0.8,12.7,2.3,16.9c2.3,6.5,6.3,9.8,11.9,9.8C742.2,276.6,745.8,274.6,748.5,270.6z"/>
														</g>
														<g>
															<path fill="#D9E2EA" d="M835.1,224.7c3.1,5.7,4.6,13.4,4.6,23.3c0,9.4-1.4,17.1-4.2,23.2
																c-4.1,8.8-10.7,13.2-19.8,13.2c-8.3,0-14.5-3.6-18.5-10.8c-3.3-6-5.1-14.1-5.1-24.2c0-7.8,1-14.6,3-20.1
																c3.8-10.5,10.7-15.7,20.6-15.7C824.6,213.7,831.1,217.4,835.1,224.7z M826.3,270.6c2.7-4,4-11.4,4-22.2
																c0-7.8-1-14.3-2.9-19.3c-1.9-5-5.7-7.6-11.2-7.6c-5.1,0-8.8,2.4-11.2,7.2c-2.4,4.8-3.6,11.9-3.6,21.2
																c0,7.1,0.8,12.7,2.3,16.9c2.3,6.5,6.3,9.8,11.9,9.8C820.1,276.6,823.7,274.6,826.3,270.6z"/>
														</g>
														<rect x="773.5" y="216.1" fill="#D9E2EA" width="8.6" height="68.4"/>
														<rect x="690.6" y="216.1" fill="#D9E2EA" width="8.6" height="68.4"/>
													</g>
												</g>
												<g>
													<defs>
														<rect id="SVGID_81_" y="84.2" width="1190.6" height="756"/>
													</defs>
													<clipPath id="SVGID_82_">
														<use xlink:href="#SVGID_81_"  overflow="visible"/>
													</clipPath>
													<g clip-path="url(#SVGID_82_)">
														<g>
															<path fill="#D9E2EA" d="M757.5,329.9c3.1,5.7,4.6,13.4,4.6,23.3c0,9.4-1.4,17.1-4.2,23.2
																c-4.1,8.8-10.7,13.2-19.8,13.2c-8.3,0-14.5-3.6-18.5-10.8c-3.3-6-5.1-14.1-5.1-24.2c0-7.8,1-14.6,3-20.1
																c3.8-10.5,10.7-15.7,20.6-15.7C747.1,318.8,753.5,322.5,757.5,329.9z M748.7,375.7c2.7-4,4-11.4,4-22.2
																c0-7.8-1-14.3-2.9-19.3c-1.9-5-5.7-7.6-11.2-7.6c-5.1,0-8.8,2.4-11.2,7.2c-2.4,4.8-3.6,11.9-3.6,21.2
																c0,7.1,0.8,12.7,2.3,16.9c2.3,6.5,6.3,9.8,11.9,9.8C742.5,381.6,746.1,379.7,748.7,375.7z"/>
														</g>
														<g>
															<path fill="#D9E2EA" d="M835.4,329.9c3.1,5.7,4.6,13.4,4.6,23.3c0,9.4-1.4,17.1-4.2,23.2
																c-4.1,8.8-10.7,13.2-19.8,13.2c-8.3,0-14.5-3.6-18.5-10.8c-3.3-6-5.1-14.1-5.1-24.2c0-7.8,1-14.6,3-20.1
																c3.8-10.5,10.7-15.7,20.6-15.7C824.9,318.8,831.4,322.5,835.4,329.9z M826.6,375.7c2.7-4,4-11.4,4-22.2
																c0-7.8-1-14.3-2.9-19.3s-5.7-7.6-11.2-7.6c-5.1,0-8.8,2.4-11.2,7.2c-2.4,4.8-3.6,11.9-3.6,21.2
																c0,7.1,0.8,12.7,2.3,16.9c2.3,6.5,6.3,9.8,11.9,9.8C820.4,381.6,823.9,379.7,826.6,375.7z"/>
														</g>
														<rect x="773.8" y="321.3" fill="#D9E2EA" width="8.6" height="68.4"/>
														<rect x="690.8" y="321.3" fill="#D9E2EA" width="8.6" height="68.4"/>
													</g>
												</g>
												<g>
													<defs>
														<rect id="SVGID_83_" y="84.2" width="1190.6" height="756"/>
													</defs>
													<clipPath id="SVGID_84_">
														<use xlink:href="#SVGID_83_"  overflow="visible"/>
													</clipPath>
													<g clip-path="url(#SVGID_84_)">
														<g>
															<path fill="#D9E2EA" d="M963.3,224.7c3.1,5.7,4.6,13.4,4.6,23.3c0,9.4-1.4,17.1-4.2,23.2
																c-4.1,8.8-10.7,13.2-19.8,13.2c-8.3,0-14.5-3.6-18.5-10.8c-3.3-6-5.1-14.1-5.1-24.2c0-7.8,1-14.6,3-20.1
																c3.8-10.5,10.7-15.7,20.6-15.7C952.9,213.7,959.3,217.4,963.3,224.7z M954.5,270.6c2.7-4,4-11.4,4-22.2
																c0-7.8-1-14.3-2.9-19.3c-1.9-5-5.7-7.6-11.2-7.6c-5.1,0-8.8,2.4-11.2,7.2c-2.4,4.8-3.6,11.9-3.6,21.2
																c0,7.1,0.8,12.7,2.3,16.9c2.3,6.5,6.3,9.8,11.9,9.8C948.3,276.6,951.9,274.6,954.5,270.6z"/>
														</g>
														<g>
															<path fill="#D9E2EA" d="M1041.2,224.7c3.1,5.7,4.6,13.4,4.6,23.3c0,9.4-1.4,17.1-4.2,23.2
																c-4.1,8.8-10.7,13.2-19.8,13.2c-8.3,0-14.5-3.6-18.5-10.8c-3.3-6-5.1-14.1-5.1-24.2c0-7.8,1-14.6,3-20.1
																c3.8-10.5,10.7-15.7,20.6-15.7C1030.7,213.7,1037.1,217.4,1041.2,224.7z M1032.4,270.6c2.7-4,4-11.4,4-22.2
																c0-7.8-1-14.3-2.9-19.3c-1.9-5-5.7-7.6-11.2-7.6c-5.1,0-8.8,2.4-11.2,7.2c-2.4,4.8-3.6,11.9-3.6,21.2
																c0,7.1,0.8,12.7,2.3,16.9c2.3,6.5,6.3,9.8,11.9,9.8C1026.2,276.6,1029.7,274.6,1032.4,270.6z"/>
														</g>
														<rect x="979.6" y="216.1" fill="#D9E2EA" width="8.6" height="68.4"/>
														<rect x="896.6" y="216.1" fill="#D9E2EA" width="8.6" height="68.4"/>
													</g>
												</g>
												<g>
													<defs>
														<rect id="SVGID_85_" y="84.2" width="1190.6" height="756"/>
													</defs>
													<clipPath id="SVGID_86_">
														<use xlink:href="#SVGID_85_"  overflow="visible"/>
													</clipPath>
													<g clip-path="url(#SVGID_86_)">
														<g>
															<path fill="#D9E2EA" d="M95.4,336.1c3.1,5.7,4.6,13.4,4.6,23.3c0,9.4-1.4,17.1-4.2,23.2
																c-4.1,8.8-10.7,13.2-19.8,13.2c-8.3,0-14.5-3.6-18.5-10.8c-3.3-6-5.1-14.1-5.1-24.2c0-7.8,1-14.6,3-20.1
																C59.2,330.2,66.1,325,76,325C85,325,91.5,328.7,95.4,336.1z M86.7,381.9c2.7-4,4-11.4,4-22.2c0-7.8-1-14.3-2.9-19.3
																c-1.9-5.1-5.7-7.6-11.2-7.6c-5.1,0-8.8,2.4-11.2,7.2c-2.4,4.8-3.6,11.9-3.6,21.2c0,7.1,0.8,12.7,2.3,16.9
																c2.3,6.5,6.3,9.8,11.9,9.8C80.5,387.8,84.1,385.9,86.7,381.9z"/>
														</g>
														<g>
															<path fill="#D9E2EA" d="M173.3,336.1c3.1,5.7,4.6,13.4,4.6,23.3c0,9.4-1.4,17.1-4.2,23.2
																c-4.1,8.8-10.7,13.2-19.8,13.2c-8.3,0-14.5-3.6-18.5-10.8c-3.3-6-5.1-14.1-5.1-24.2c0-7.8,1-14.6,3-20.1
																c3.8-10.5,10.7-15.7,20.6-15.7C162.9,325,169.3,328.7,173.3,336.1z M164.6,381.9c2.7-4,4-11.4,4-22.2
																c0-7.8-1-14.3-2.9-19.3c-1.9-5-5.7-7.6-11.2-7.6c-5.1,0-8.8,2.4-11.2,7.2c-2.4,4.8-3.6,11.9-3.6,21.2
																c0,7.1,0.8,12.7,2.3,16.9c2.3,6.5,6.3,9.8,11.9,9.8C158.4,387.8,161.9,385.9,164.6,381.9z"/>
														</g>
														<rect x="111.8" y="327.5" fill="#D9E2EA" width="8.6" height="68.4"/>
														<rect x="28.8" y="327.5" fill="#D9E2EA" width="8.6" height="68.4"/>
													</g>
												</g>
												<g>
													<defs>
														<rect id="SVGID_87_" y="84.2" width="1190.6" height="756"/>
													</defs>
													<clipPath id="SVGID_88_">
														<use xlink:href="#SVGID_87_"  overflow="visible"/>
													</clipPath>
													<g clip-path="url(#SVGID_88_)">
														<g>
															<path fill="#D9E2EA" d="M216.9,481.5c8.2,15.1,12.2,35.7,12.2,61.9c0,24.9-3.8,45.4-11.2,61.6
																c-10.8,23.3-28.3,35-52.6,35c-21.9,0-38.4-9.6-49-28.7c-8.9-15.9-13.5-37.3-13.5-64.1c0-20.7,2.7-38.6,8.1-53.4
																c10.1-27.7,28.3-41.6,54.5-41.6C189.3,452.1,206.4,462,216.9,481.5z M193.7,603.3c7.1-10.5,10.6-30.3,10.6-58.9
																c0-20.7-2.6-37.8-7.7-51.3c-5.1-13.5-15.1-20.1-29.7-20.1c-13.6,0-23.4,6.3-29.7,19.1c-6.3,12.8-9.4,31.5-9.4,56.3
																c0,18.7,2,33.6,6.1,44.9c6.2,17.2,16.7,26,31.5,26C177.2,619,186.7,613.8,193.7,603.3z"/>
														</g>
														<g>
															<path fill="#D9E2EA" d="M423.4,481.5c8.2,15.1,12.2,35.7,12.2,61.9c0,24.9-3.8,45.4-11.2,61.6
																c-10.8,23.3-28.3,35-52.6,35c-21.9,0-38.4-9.6-49-28.7c-8.9-15.9-13.5-37.3-13.5-64.1c0-20.7,2.7-38.6,8.1-53.4
																c10.1-27.7,28.3-41.6,54.5-41.6C395.7,452.1,412.8,462,423.4,481.5z M400.3,603.3c7.1-10.5,10.6-30.3,10.6-58.9
																c0-20.7-2.6-37.8-7.7-51.3c-5.1-13.5-15.1-20.1-29.7-20.1c-13.6,0-23.4,6.3-29.7,19.1c-6.3,12.8-9.4,31.5-9.4,56.3
																c0,18.7,2,33.6,6.1,44.9c6.2,17.2,16.7,26,31.5,26C383.7,619,393.1,613.8,400.3,603.3z"/>
														</g>
														<rect x="260.2" y="458.6" fill="#D9E2EA" width="22.7" height="181.4"/>
														<rect x="40.2" y="458.6" fill="#D9E2EA" width="22.7" height="181.4"/>
													</g>
												</g>
												<g>
													<defs>
														<rect id="SVGID_89_" y="84.2" width="1190.6" height="756"/>
													</defs>
													<clipPath id="SVGID_90_">
														<use xlink:href="#SVGID_89_"  overflow="visible"/>
													</clipPath>
													<g clip-path="url(#SVGID_90_)">
														<g>
															<path fill="#D9E2EA" d="M693.1,481.5c8.2,15.1,12.2,35.7,12.2,61.9c0,24.9-3.8,45.4-11.2,61.6
																c-10.8,23.3-28.3,35-52.6,35c-21.9,0-38.4-9.6-49-28.7c-8.9-15.9-13.5-37.3-13.5-64.1c0-20.7,2.7-38.6,8.1-53.4
																c10.1-27.7,28.3-41.6,54.5-41.6C665.6,452.1,682.6,462,693.1,481.5z M670,603.3c7.1-10.5,10.6-30.3,10.6-58.9
																c0-20.7-2.6-37.8-7.7-51.3c-5.1-13.5-15.1-20.1-29.7-20.1c-13.6,0-23.4,6.3-29.7,19.1c-6.3,12.8-9.4,31.5-9.4,56.3
																c0,18.7,2,33.6,6.1,44.9c6.2,17.2,16.7,26,31.5,26C653.4,619,663,613.8,670,603.3z"/>
														</g>
														<g>
															<path fill="#D9E2EA" d="M899.7,481.5c8.2,15.1,12.2,35.7,12.2,61.9c0,24.9-3.8,45.4-11.2,61.6
																c-10.8,23.3-28.3,35-52.6,35c-21.9,0-38.4-9.6-49-28.7c-8.9-15.9-13.5-37.3-13.5-64.1c0-20.7,2.7-38.6,8.1-53.4
																c10.1-27.7,28.3-41.6,54.5-41.6C872,452.1,889.1,462,899.7,481.5z M876.6,603.3c7.1-10.5,10.6-30.3,10.6-58.9
																c0-20.7-2.6-37.8-7.7-51.3c-5.1-13.5-15.1-20.1-29.7-20.1c-13.6,0-23.4,6.3-29.7,19.1c-6.3,12.8-9.4,31.5-9.4,56.3
																c0,18.7,2,33.6,6.1,44.9c6.2,17.2,16.7,26,31.5,26C860,619,869.4,613.8,876.6,603.3z"/>
														</g>
														<rect x="736.5" y="458.6" fill="#D9E2EA" width="22.7" height="181.4"/>
														<rect x="516.4" y="458.6" fill="#D9E2EA" width="22.7" height="181.4"/>
													</g>
												</g>
												<g>
													<defs>
														<rect id="SVGID_91_" y="84.2" width="1190.6" height="756"/>
													</defs>
													<clipPath id="SVGID_92_">
														<use xlink:href="#SVGID_91_"  overflow="visible"/>
													</clipPath>
													<g clip-path="url(#SVGID_92_)">
														<g>
															<path fill="#D9E2EA" d="M112.4,712.5c3.1,5.7,4.6,13.4,4.6,23.3c0,9.4-1.4,17.1-4.2,23.2
																c-4.1,8.8-10.7,13.2-19.8,13.2c-8.3,0-14.5-3.6-18.5-10.8c-3.3-6-5.1-14.1-5.1-24.2c0-7.8,1-14.6,3-20.1
																c3.8-10.5,10.7-15.7,20.6-15.7C102,701.4,108.4,705.1,112.4,712.5z M103.7,758.4c2.7-4,4-11.4,4-22.2
																c0-7.8-1-14.3-2.9-19.3c-1.9-5-5.7-7.6-11.2-7.6c-5.1,0-8.8,2.4-11.2,7.2c-2.4,4.8-3.6,11.9-3.6,21.2
																c0,7.1,0.8,12.7,2.3,16.9c2.3,6.5,6.3,9.8,11.9,9.8C97.4,764.3,101,762.4,103.7,758.4z"/>
														</g>
														<g>
															<path fill="#D9E2EA" d="M190.3,712.5c3.1,5.7,4.6,13.4,4.6,23.3c0,9.4-1.4,17.1-4.2,23.2
																c-4.1,8.8-10.7,13.2-19.8,13.2c-8.3,0-14.5-3.6-18.5-10.8c-3.3-6-5.1-14.1-5.1-24.2c0-7.8,1-14.6,3-20.1
																c3.8-10.5,10.7-15.7,20.6-15.7C179.8,701.4,186.3,705.1,190.3,712.5z M181.6,758.4c2.7-4,4-11.4,4-22.2
																c0-7.8-1-14.3-2.9-19.3c-1.9-5.1-5.7-7.6-11.2-7.6c-5.1,0-8.8,2.4-11.2,7.2c-2.4,4.8-3.6,11.9-3.6,21.2
																c0,7.1,0.8,12.7,2.3,16.9c2.3,6.5,6.3,9.8,11.9,9.8C175.3,764.3,178.9,762.4,181.6,758.4z"/>
														</g>
														<rect x="128.7" y="703.8" fill="#D9E2EA" width="8.6" height="68.4"/>
														<rect x="45.8" y="703.8" fill="#D9E2EA" width="8.6" height="68.4"/>
													</g>
												</g>
												<g>
													<defs>
														<rect id="SVGID_93_" y="84.2" width="1190.6" height="756"/>
													</defs>
													<clipPath id="SVGID_94_">
														<use xlink:href="#SVGID_93_"  overflow="visible"/>
													</clipPath>
													<g clip-path="url(#SVGID_94_)">
														<g>
															<path fill="#D9E2EA" d="M112.4,806.1c3.1,5.7,4.6,13.4,4.6,23.3c0,9.4-1.4,17.1-4.2,23.2
																c-4.1,8.8-10.7,13.2-19.8,13.2c-8.3,0-14.5-3.6-18.5-10.8c-3.3-6-5.1-14.1-5.1-24.2c0-7.8,1-14.6,3-20.1
																C76.2,800.2,83.1,795,93,795C102,795.1,108.4,798.8,112.4,806.1z M103.7,852.1c2.7-4,4-11.4,4-22.2
																c0-7.8-1-14.3-2.9-19.3c-1.9-5-5.7-7.6-11.2-7.6c-5.1,0-8.8,2.4-11.2,7.2c-2.4,4.8-3.6,11.9-3.6,21.2
																c0,7.1,0.8,12.7,2.3,16.9c2.3,6.5,6.3,9.8,11.9,9.8C97.4,858,101,856,103.7,852.1z"/>
														</g>
														<g>
															<path fill="#D9E2EA" d="M190.3,806.1c3.1,5.7,4.6,13.4,4.6,23.3c0,9.4-1.4,17.1-4.2,23.2
																c-4.1,8.8-10.7,13.2-19.8,13.2c-8.3,0-14.5-3.6-18.5-10.8c-3.3-6-5.1-14.1-5.1-24.2c0-7.8,1-14.6,3-20.1
																c3.8-10.5,10.7-15.7,20.6-15.7C179.8,795.1,186.3,798.8,190.3,806.1z M181.6,852.1c2.7-4,4-11.4,4-22.2
																c0-7.8-1-14.3-2.9-19.3c-1.9-5.1-5.7-7.6-11.2-7.6c-5.1,0-8.8,2.4-11.2,7.2c-2.4,4.8-3.6,11.9-3.6,21.2
																c0,7.1,0.8,12.7,2.3,16.9c2.3,6.5,6.3,9.8,11.9,9.8C175.3,858,178.9,856,181.6,852.1z"/>
														</g>
														<rect x="128.7" y="797.5" fill="#D9E2EA" width="8.6" height="68.4"/>
														<rect x="45.8" y="797.5" fill="#D9E2EA" width="8.6" height="68.4"/>
													</g>
												</g>
												<g>
													<defs>
														<rect id="SVGID_95_" y="84.2" width="1190.6" height="756"/>
													</defs>
													<clipPath id="SVGID_96_">
														<use xlink:href="#SVGID_95_"  overflow="visible"/>
													</clipPath>
													<g clip-path="url(#SVGID_96_)">
														<g>
															<path fill="#D9E2EA" d="M1014,543.1c3.1,5.7,4.6,13.4,4.6,23.3c0,9.4-1.4,17.1-4.2,23.2
																c-4.1,8.8-10.7,13.2-19.8,13.2c-8.3,0-14.5-3.6-18.5-10.8c-3.3-6-5.1-14.1-5.1-24.2c0-7.8,1-14.6,3-20.1
																c3.8-10.5,10.7-15.7,20.6-15.7C1003.6,532,1010.1,535.7,1014,543.1z M1005.3,589c2.7-4,4-11.4,4-22.2
																c0-7.8-1-14.3-2.9-19.3c-1.9-5-5.7-7.6-11.2-7.6c-5.1,0-8.8,2.4-11.2,7.2c-2.4,4.8-3.6,11.9-3.6,21.2
																c0,7.1,0.8,12.7,2.3,16.9c2.3,6.5,6.3,9.8,11.9,9.8C999.1,594.9,1002.7,593,1005.3,589z"/>
														</g>
														<g>
															<path fill="#D9E2EA" d="M1091.9,543.1c3.1,5.7,4.6,13.4,4.6,23.3c0,9.4-1.4,17.1-4.2,23.2
																c-4.1,8.8-10.7,13.2-19.8,13.2c-8.3,0-14.5-3.6-18.5-10.8c-3.3-6-5.1-14.1-5.1-24.2c0-7.8,1-14.6,3-20.1
																c3.8-10.5,10.7-15.7,20.6-15.7C1081.5,532,1087.9,535.7,1091.9,543.1z M1083.2,589c2.7-4,4-11.4,4-22.2
																c0-7.8-1-14.3-2.9-19.3c-1.9-5-5.7-7.6-11.2-7.6c-5.1,0-8.8,2.4-11.2,7.2c-2.4,4.8-3.6,11.9-3.6,21.2
																c0,7.1,0.8,12.7,2.3,16.9c2.3,6.5,6.3,9.8,11.9,9.8C1077,594.9,1080.5,593,1083.2,589z"/>
														</g>
														<rect x="1030.4" y="534.4" fill="#D9E2EA" width="8.6" height="68.4"/>
														<rect x="947.4" y="534.4" fill="#D9E2EA" width="8.6" height="68.4"/>
													</g>
												</g>
												<g>
													<defs>
														<rect id="SVGID_97_" y="84.2" width="1190.6" height="756"/>
													</defs>
													<clipPath id="SVGID_98_">
														<use xlink:href="#SVGID_97_"  overflow="visible"/>
													</clipPath>
													<g clip-path="url(#SVGID_98_)">
														<g>
															<path fill="#D9E2EA" d="M436.9,715.9c8.2,15.1,12.2,35.7,12.2,61.9c0,24.9-3.8,45.4-11.2,61.6
																c-10.8,23.3-28.3,35-52.6,35c-21.9,0-38.4-9.6-49-28.7c-8.9-15.9-13.5-37.3-13.5-64.1c0-20.7,2.7-38.6,8.1-53.4
																c10.1-27.7,28.3-41.6,54.5-41.6C409.3,686.5,426.4,696.3,436.9,715.9z M413.7,837.6c7.1-10.5,10.6-30.3,10.6-58.9
																c0-20.7-2.6-37.8-7.7-51.3c-5.1-13.5-15.1-20.1-29.7-20.1c-13.6,0-23.4,6.3-29.7,19.1c-6.3,12.8-9.4,31.5-9.4,56.3
																c0,18.7,2,33.6,6.1,44.9c6.2,17.2,16.7,26,31.5,26C397.2,853.4,406.7,848.1,413.7,837.6z"/>
														</g>
														<g>
															<path fill="#D9E2EA" d="M643.5,715.9c8.2,15.1,12.2,35.7,12.2,61.9c0,24.9-3.8,45.4-11.2,61.6
																c-10.8,23.3-28.3,35-52.6,35c-21.9,0-38.4-9.6-49-28.7c-8.9-15.9-13.5-37.3-13.5-64.1c0-20.7,2.7-38.6,8.1-53.4
																c10.1-27.7,28.3-41.6,54.5-41.6C615.7,686.5,632.8,696.3,643.5,715.9z M620.3,837.6c7.1-10.5,10.6-30.3,10.6-58.9
																c0-20.7-2.6-37.8-7.7-51.3c-5.1-13.5-15.1-20.1-29.7-20.1c-13.6,0-23.4,6.3-29.7,19.1c-6.3,12.8-9.4,31.5-9.4,56.3
																c0,18.7,2,33.6,6.1,44.9c6.2,17.2,16.7,26,31.5,26C603.8,853.4,613.2,848.1,620.3,837.6z"/>
														</g>
														<rect x="480.2" y="693" fill="#D9E2EA" width="22.7" height="181.4"/>
														<rect x="260.2" y="693" fill="#D9E2EA" width="22.7" height="181.4"/>
													</g>
												</g>
												<g>
													<defs>
														<rect id="SVGID_99_" y="84.2" width="1190.6" height="756"/>
													</defs>
													<clipPath id="SVGID_100_">
														<use xlink:href="#SVGID_99_"  overflow="visible"/>
													</clipPath>
													<g clip-path="url(#SVGID_100_)">
														<g>
															<path fill="#D9E2EA" d="M803.1,723.9c3.1,5.7,4.6,13.4,4.6,23.3c0,9.4-1.4,17.1-4.2,23.2
																c-4.1,8.8-10.7,13.2-19.8,13.2c-8.3,0-14.5-3.6-18.5-10.8c-3.3-6-5.1-14.1-5.1-24.2c0-7.8,1-14.6,3-20.1
																c3.8-10.5,10.7-15.7,20.6-15.7C792.7,712.8,799.1,716.5,803.1,723.9z M794.4,769.8c2.7-4,4-11.4,4-22.2
																c0-7.8-1-14.3-2.9-19.3s-5.7-7.6-11.2-7.6c-5.1,0-8.8,2.4-11.2,7.2c-2.4,4.8-3.6,11.9-3.6,21.2
																c0,7.1,0.8,12.7,2.3,16.9c2.3,6.5,6.3,9.8,11.9,9.8C788.1,775.8,791.7,773.8,794.4,769.8z"/>
														</g>
														<g>
															<path fill="#D9E2EA" d="M881,723.9c3.1,5.7,4.6,13.4,4.6,23.3c0,9.4-1.4,17.1-4.2,23.2c-4.1,8.8-10.7,13.2-19.8,13.2
																c-8.3,0-14.5-3.6-18.5-10.8c-3.3-6-5.1-14.1-5.1-24.2c0-7.8,1-14.6,3-20.1c3.8-10.5,10.7-15.7,20.6-15.7
																C870.5,712.8,877,716.5,881,723.9z M872.3,769.8c2.7-4,4-11.4,4-22.2c0-7.8-1-14.3-2.9-19.3c-1.9-5-5.7-7.6-11.2-7.6
																c-5.1,0-8.8,2.4-11.2,7.2c-2.4,4.8-3.6,11.9-3.6,21.2c0,7.1,0.8,12.7,2.3,16.9c2.3,6.5,6.3,9.8,11.9,9.8
																C866,775.8,869.6,773.8,872.3,769.8z"/>
														</g>
														<rect x="819.4" y="715.3" fill="#D9E2EA" width="8.6" height="68.4"/>
														<rect x="736.5" y="715.3" fill="#D9E2EA" width="8.6" height="68.4"/>
													</g>
												</g>
												<g>
													<defs>
														<rect id="SVGID_101_" y="84.2" width="1190.6" height="756"/>
													</defs>
													<clipPath id="SVGID_102_">
														<use xlink:href="#SVGID_101_"  overflow="visible"/>
													</clipPath>
													<g clip-path="url(#SVGID_102_)">
														<g>
															<path fill="#D9E2EA" d="M803.1,817.6c3.1,5.7,4.6,13.4,4.6,23.3c0,9.4-1.4,17.1-4.2,23.2
																c-4.1,8.8-10.7,13.2-19.8,13.2c-8.3,0-14.5-3.6-18.5-10.8c-3.3-6-5.1-14.1-5.1-24.2c0-7.8,1-14.6,3-20.1
																c3.8-10.5,10.7-15.7,20.6-15.7C792.7,806.5,799.1,810.2,803.1,817.6z M794.4,863.5c2.7-4,4-11.4,4-22.2
																c0-7.8-1-14.3-2.9-19.3c-1.9-5-5.7-7.6-11.2-7.6c-5.1,0-8.8,2.4-11.2,7.2c-2.4,4.8-3.6,11.9-3.6,21.2
																c0,7.1,0.8,12.7,2.3,16.9c2.3,6.5,6.3,9.8,11.9,9.8C788.1,869.4,791.7,867.5,794.4,863.5z"/>
														</g>
														<g>
															<path fill="#D9E2EA" d="M881,817.6c3.1,5.7,4.6,13.4,4.6,23.3c0,9.4-1.4,17.1-4.2,23.2c-4.1,8.8-10.7,13.2-19.8,13.2
																c-8.3,0-14.5-3.6-18.5-10.8c-3.3-6-5.1-14.1-5.1-24.2c0-7.8,1-14.6,3-20.1c3.8-10.5,10.7-15.7,20.6-15.7
																C870.5,806.5,877,810.2,881,817.6z M872.3,863.5c2.7-4,4-11.4,4-22.2c0-7.8-1-14.3-2.9-19.3c-1.9-5-5.7-7.6-11.2-7.6
																c-5.1,0-8.8,2.4-11.2,7.2s-3.6,11.9-3.6,21.2c0,7.1,0.8,12.7,2.3,16.9c2.3,6.5,6.3,9.8,11.9,9.8
																C866,869.4,869.6,867.5,872.3,863.5z"/>
														</g>
														<rect x="819.4" y="808.9" fill="#D9E2EA" width="8.6" height="68.4"/>
														<rect x="736.5" y="808.9" fill="#D9E2EA" width="8.6" height="68.4"/>
													</g>
												</g>
												<g>
													<defs>
														<rect id="SVGID_103_" y="84.2" width="1190.6" height="756"/>
													</defs>
													<clipPath id="SVGID_104_">
														<use xlink:href="#SVGID_103_"  overflow="visible"/>
													</clipPath>
													<g clip-path="url(#SVGID_104_)">
														<g>
															<path fill="#D9E2EA" d="M1143.4,741.9c8.2,15.1,12.2,35.7,12.2,61.9c0,24.9-3.8,45.4-11.2,61.6
																c-10.8,23.3-28.3,35-52.6,35c-21.9,0-38.4-9.6-49-28.7c-8.9-15.9-13.5-37.3-13.5-64.1c0-20.7,2.7-38.6,8.1-53.4
																c10.1-27.7,28.3-41.6,54.5-41.6C1115.8,712.6,1132.9,722.4,1143.4,741.9z M1120.2,863.7
																c7.1-10.5,10.6-30.3,10.6-58.9c0-20.7-2.6-37.8-7.7-51.3c-5.1-13.5-15.1-20.1-29.7-20.1c-13.6,0-23.4,6.3-29.7,19.1
																c-6.3,12.8-9.4,31.5-9.4,56.3c0,18.7,2,33.6,6.1,44.9c6.2,17.2,16.7,26,31.5,26
																C1103.7,879.4,1113.2,874.2,1120.2,863.7z"/>
														</g>
														<g>
															<path fill="#D9E2EA" d="M1349.8,741.9c8.2,15.1,12.2,35.7,12.2,61.9c0,24.9-3.8,45.4-11.2,61.6
																c-10.8,23.3-28.3,35-52.6,35c-21.9,0-38.4-9.6-49-28.7c-8.9-15.9-13.5-37.3-13.5-64.1c0-20.7,2.7-38.6,8.1-53.4
																c10.1-27.7,28.3-41.6,54.5-41.6C1322.1,712.6,1339.2,722.4,1349.8,741.9z M1326.7,863.7
																c7.1-10.5,10.6-30.3,10.6-58.9c0-20.7-2.6-37.8-7.7-51.3c-5.1-13.5-15.1-20.1-29.7-20.1c-13.6,0-23.4,6.3-29.7,19.1
																c-6.3,12.8-9.4,31.5-9.4,56.3c0,18.7,2,33.6,6.1,44.9c6.2,17.2,16.7,26,31.5,26
																C1310.2,879.4,1319.6,874.2,1326.7,863.7z"/>
														</g>
														<rect x="1186.7" y="719" fill="#D9E2EA" width="22.7" height="181.4"/>
														<rect x="966.7" y="719" fill="#D9E2EA" width="22.7" height="181.4"/>
													</g>
												</g>
											</g>
										</g>
										<g id="Layer_4">
											<path fill="#616876" d="M231.9,700.3c-41.8,0-87.2-45.5-87.2-101.6c0-56.1,49.3-101.6,87.2-101.6h-2.2
												c-56.1,0-99.4,45.5-99.4,101.6S175.8,700.3,231.9,700.3"/>
											<path fill="#616876" d="M260.7,700.3c41.8,0,87.2-45.5,87.2-101.6c0-56.1-49.3-101.6-87.2-101.6h2.2
												c56.1,0,99.4,45.5,99.4,101.6S316.8,700.3,260.7,700.3"/>
											<text transform="matrix(1 0 0 1 188.2192 629.7787)" fill="#616876" font-family="'Helvetica'" font-size="101.9957">61</text>
											
												<text transform="matrix(1 0 0 1 414.7026 575.6527)" fill="#616876" font-family="'Helvetica-Bold'" font-size="65.9972">MEDIUM</text>
											<text transform="matrix(1 0 0 1 414.7026 654.85)" fill="#616876" font-family="'Helvetica-Bold'" font-size="65.9972">QUALITY</text>
										</g>
									</g>
								</g>
							</g>
						</g>
					</g>
				</g>
			</g>
		</g>
	</g>
</g>
<path fill="#FFFFFF" d="M767.6,83v112.8c0,0-4,29.9,23.3,29.9l280.7,0c27.3,0,23.3-29.9,23.3-29.9V84"/>
<g>
	<path fill="#CCCDD1" d="M884.4,149.5v-32.7c-18,0-32.7,14.6-32.7,32.7c0,18,14.6,32.7,32.7,32.7c1.6,0,3.2-0.1,4.7-0.4v15.4
		c0,0,20.8-24.5,24.5-33L884.4,149.5z"/>
	<path fill="#26B2AD" d="M890.3,113.2v32.7l29.2,14.6c2.2-4.4,3.5-9.4,3.5-14.6C923,127.8,908.4,113.2,890.3,113.2z"/>
</g>
<text transform="matrix(1 0 0 1 948.8027 187.9503)" fill="#6F6F6E" font-family="'Helvetica'" font-size="98">1</text>
</svg>
