<?xml version="1.0" encoding="utf-8"?>
<!-- Generator: Adobe Illustrator 18.1.1, SVG Export Plug-In . SVG Version: 6.00 Build 0)  -->
<svg version="1.1" id="Layer_3" xmlns="http://www.w3.org/2000/svg" xmlns:xlink="http://www.w3.org/1999/xlink" x="0px" y="0px"
	 viewBox="0 0 1190.6 757.6" enable-background="new 0 0 1190.6 757.6" xml:space="preserve">
<rect fill="#CAE0AD" width="1189.3" height="756.3"/>
<g>
	<defs>
		<rect id="SVGID_1_" x="1.3" y="1.3" width="1189.3" height="756.3"/>
	</defs>
	<clipPath id="SVGID_2_">
		<use xlink:href="#SVGID_1_"  overflow="visible"/>
	</clipPath>
	<path clip-path="url(#SVGID_2_)" fill="#DBEAC7" d="M957.1,172.3h-69.7V-40.7h69.7V172.3z M900.3,159.6h43.9V-28h-43.9V159.6z"/>
	<path clip-path="url(#SVGID_2_)" fill="#DBEAC7" d="M1040.9,172.3h-69.7V-40.7h69.7V172.3z M984.2,159.6h43.9V-28h-43.9V159.6z"/>
	<path clip-path="url(#SVGID_2_)" fill="#DBEAC7" d="M1207.3,172.3h-69.7V-40.7h69.7V172.3z M1150.6,159.6h43.9V-28h-43.9V159.6z"/>
	<rect x="1059" y="59.4" clip-path="url(#SVGID_2_)" fill="#DBEAC7" width="61.9" height="12.7"/>
	<rect x="1059" y="92.8" clip-path="url(#SVGID_2_)" fill="#DBEAC7" width="61.9" height="12.7"/>
	<rect x="1059" y="126.2" clip-path="url(#SVGID_2_)" fill="#DBEAC7" width="61.9" height="12.7"/>
	<rect x="1059" y="159.6" clip-path="url(#SVGID_2_)" fill="#DBEAC7" width="61.9" height="12.7"/>
	<path clip-path="url(#SVGID_2_)" fill="#DBEAC7" d="M411.5,289c-47.7,0-86.4-38.3-86.4-85.3s38.8-85.3,86.4-85.3
		s86.4,38.3,86.4,85.3S459.1,289,411.5,289z M411.5,133.7c-39.1,0-70.9,31.4-70.9,70s31.8,70,70.9,70s70.9-31.4,70.9-70
		S450.6,133.7,411.5,133.7z"/>
	<path clip-path="url(#SVGID_2_)" fill="#DBEAC7" d="M523.7,360.3c-38.4,0-69.7-30.8-69.7-68.8s31.2-68.8,69.7-68.8
		c38.4,0,69.7,30.8,69.7,68.8S562.1,360.3,523.7,360.3z M523.7,235.6c-31.3,0-56.8,25.1-56.8,56s25.5,56,56.8,56
		c31.3,0,56.8-25.1,56.8-56S555,235.6,523.7,235.6z"/>
	<ellipse clip-path="url(#SVGID_2_)" fill="#DBEAC7" cx="606.2" cy="298" rx="19.3" ry="19.1"/>
	<ellipse clip-path="url(#SVGID_2_)" fill="#DBEAC7" cx="523.7" cy="119.7" rx="36.1" ry="35.7"/>
	<path clip-path="url(#SVGID_2_)" fill="#DBEAC7" d="M442.4,73.9c-26.3,0-47.7-21.1-47.7-47.1s21.4-47.1,47.7-47.1
		s47.7,21.1,47.7,47.1S468.7,73.9,442.4,73.9z M442.4-15.3c-23.5,0-42.6,18.9-42.6,42s19.1,42,42.6,42c23.5,0,42.6-18.9,42.6-42
		S465.9-15.3,442.4-15.3z"/>
	<path clip-path="url(#SVGID_2_)" fill="#DBEAC7" d="M225.7,155.3c-24.2,0-43.9-19.4-43.9-43.3s19.7-43.3,43.9-43.3
		s43.9,19.4,43.9,43.3S249.9,155.3,225.7,155.3z M225.7,73.9c-21.3,0-38.7,17.1-38.7,38.2s17.4,38.2,38.7,38.2s38.7-17.1,38.7-38.2
		S247.1,73.9,225.7,73.9z"/>
	<polygon clip-path="url(#SVGID_2_)" fill="#DBEAC7" points="265.5,100.5 262.6,93.4 399.1,39.7 401.9,46.8 	"/>
	<polygon clip-path="url(#SVGID_2_)" fill="#DBEAC7" points="428.9,126.7 421.2,125.4 430.8,70.7 438.4,72 	"/>
	<polygon clip-path="url(#SVGID_2_)" fill="#DBEAC7" points="241.2,76 233.8,73.7 263.3,-19 270.7,-16.7 	"/>
	<path clip-path="url(#SVGID_2_)" fill="#DBEAC7" d="M950.6,709.2c-61.9,0-112.2-49.7-112.2-110.8s50.3-110.8,112.2-110.8
		s112.2,49.7,112.2,110.8S1012.5,709.2,950.6,709.2z M950.6,518.2c-44.8,0-81.3,36-81.3,80.2s36.5,80.2,81.3,80.2
		c44.8,0,81.3-36,81.3-80.2S995.4,518.2,950.6,518.2z"/>
	<path clip-path="url(#SVGID_2_)" fill="#DBEAC7" d="M950.6,846.8c-138.7,0-251.5-111.4-251.5-248.3s112.8-248.3,251.5-248.3
		s251.5,111.4,251.5,248.3S1089.3,846.8,950.6,846.8z M950.6,380.7c-121.6,0-220.6,97.7-220.6,217.7S829,816.2,950.6,816.2
		s220.6-97.7,220.6-217.7S1072.3,380.7,950.6,380.7z"/>
	<path clip-path="url(#SVGID_2_)" fill="#DBEAC7" d="M950.6,966.4c-205.5,0-372.8-165.1-372.8-368s167.2-368,372.8-368
		s372.8,165.1,372.8,368S1156.2,966.4,950.6,966.4z M950.6,261c-188.5,0-341.8,151.4-341.8,337.4s153.3,337.4,341.8,337.4
		s341.8-151.4,341.8-337.4S1139.1,261,950.6,261z"/>
	<polygon clip-path="url(#SVGID_2_)" fill="#DBEAC7" points="872,547.6 692,369.9 713.9,348.3 893.9,526 	"/>
	<polygon clip-path="url(#SVGID_2_)" fill="#DBEAC7" points="1035.8,550.7 1016.4,526.8 1122.8,442.7 1142.2,466.5 	"/>
	<polygon clip-path="url(#SVGID_2_)" fill="#DBEAC7" points="1077.4,795.6 995.2,684.6 1020.2,666.5 1102.4,777.5 	"/>
	<ellipse clip-path="url(#SVGID_2_)" fill="#DBEAC7" cx="713.3" cy="373.1" rx="52.9" ry="52.2"/>
	<ellipse clip-path="url(#SVGID_2_)" fill="#DBEAC7" cx="1123.7" cy="461" rx="53.8" ry="53.1"/>
	<ellipse clip-path="url(#SVGID_2_)" fill="#DBEAC7" cx="1078.7" cy="778.3" rx="53.8" ry="53.1"/>
	<ellipse clip-path="url(#SVGID_2_)" fill="#DBEAC7" cx="432.1" cy="480" rx="41.3" ry="40.7"/>
	<polygon clip-path="url(#SVGID_2_)" fill="#DBEAC7" points="443.7,469.8 441.1,465.4 493.6,435.5 496.2,439.9 	"/>
	<polygon clip-path="url(#SVGID_2_)" fill="#DBEAC7" points="488.8,523 459.1,505.1 461.8,500.8 491.5,518.6 	"/>
	<polygon clip-path="url(#SVGID_2_)" fill="#DBEAC7" points="387.2,562.9 382.8,560.2 419.6,500.4 424,503 	"/>
	<polygon clip-path="url(#SVGID_2_)" fill="#DBEAC7" points="416.3,471.1 353.1,463.6 353.7,458.5 416.9,466.1 	"/>
	<polygon clip-path="url(#SVGID_2_)" fill="#DBEAC7" points="424.4,460.2 414.1,413.5 419.1,412.5 429.5,459.1 	"/>
	<path clip-path="url(#SVGID_2_)" fill="#DBEAC7" d="M509.5,444.4c-13.5,0-24.5-10.9-24.5-24.2s11-24.2,24.5-24.2
		c13.5,0,24.5,10.9,24.5,24.2S523,444.4,509.5,444.4z M509.5,401.1c-10.7,0-19.3,8.6-19.3,19.1s8.7,19.1,19.3,19.1
		c10.7,0,19.3-8.6,19.3-19.1S520.2,401.1,509.5,401.1z"/>
	<path clip-path="url(#SVGID_2_)" fill="#DBEAC7" d="M509.5,560.3c-13.5,0-24.5-10.9-24.5-24.2c0-13.3,11-24.2,24.5-24.2
		c13.5,0,24.5,10.9,24.5,24.2C534,549.4,523,560.3,509.5,560.3z M509.5,517c-10.7,0-19.3,8.6-19.3,19.1s8.7,19.1,19.3,19.1
		c10.7,0,19.3-8.6,19.3-19.1S520.2,517,509.5,517z"/>
	<path clip-path="url(#SVGID_2_)" fill="#DBEAC7" d="M375.4,606.1c-13.5,0-24.5-10.9-24.5-24.2s11-24.2,24.5-24.2
		s24.5,10.9,24.5,24.2S388.9,606.1,375.4,606.1z M375.4,562.8c-10.7,0-19.3,8.6-19.3,19.1s8.7,19.1,19.3,19.1
		c10.7,0,19.3-8.6,19.3-19.1S386,562.8,375.4,562.8z"/>
	<path clip-path="url(#SVGID_2_)" fill="#DBEAC7" d="M332.8,478.8c-13.5,0-24.5-10.9-24.5-24.2s11-24.2,24.5-24.2
		c13.5,0,24.5,10.9,24.5,24.2S346.3,478.8,332.8,478.8z M332.8,435.5c-10.7,0-19.3,8.6-19.3,19.1s8.7,19.1,19.3,19.1
		c10.7,0,19.3-8.6,19.3-19.1S343.5,435.5,332.8,435.5z"/>
	<path clip-path="url(#SVGID_2_)" fill="#DBEAC7" d="M411.5,418.9c-13.5,0-24.5-10.9-24.5-24.2s11-24.2,24.5-24.2
		c13.5,0,24.5,10.9,24.5,24.2S425,418.9,411.5,418.9z M411.5,375.6c-10.7,0-19.3,8.6-19.3,19.1s8.7,19.1,19.3,19.1
		c10.7,0,19.3-8.6,19.3-19.1S422.1,375.6,411.5,375.6z"/>
	<path clip-path="url(#SVGID_2_)" fill="#DBEAC7" d="M36.5,41.2h-74V-96.3h74V41.2z M-32.2,36.1h63.6V-91.3h-63.6V36.1z"/>
	<path clip-path="url(#SVGID_2_)" fill="#DBEAC7" d="M112.2,41.2H53.7V-77.7h58.5V41.2z M58.9,36.1h48.2V-72.6H58.9V36.1z"/>
	<path clip-path="url(#SVGID_2_)" fill="#DBEAC7" d="M187,41.2h-58.5V-77.7H187V41.2z M133.7,36.1h48.2V-72.6h-48.2V36.1z"/>
	<rect x="-4.7" y="66.4" clip-path="url(#SVGID_2_)" fill="#DBEAC7" width="38.7" height="6.4"/>
	<rect x="-4.7" y="74.4" clip-path="url(#SVGID_2_)" fill="#DBEAC7" width="38.7" height="6.4"/>
	<rect x="-4.7" y="90.5" clip-path="url(#SVGID_2_)" fill="#DBEAC7" width="38.7" height="6.4"/>
	<rect x="-4.7" y="106.5" clip-path="url(#SVGID_2_)" fill="#DBEAC7" width="38.7" height="6.4"/>
	<rect x="-4.7" y="98.5" clip-path="url(#SVGID_2_)" fill="#DBEAC7" width="38.7" height="6.4"/>
	<rect x="-4.7" y="82.5" clip-path="url(#SVGID_2_)" fill="#DBEAC7" width="38.7" height="6.4"/>
	<rect x="65.5" y="66.4" clip-path="url(#SVGID_2_)" fill="#DBEAC7" width="38.7" height="6.4"/>
	<rect x="65.5" y="74.4" clip-path="url(#SVGID_2_)" fill="#DBEAC7" width="38.7" height="6.4"/>
	<rect x="65.5" y="90.5" clip-path="url(#SVGID_2_)" fill="#DBEAC7" width="38.7" height="6.4"/>
	<rect x="65.5" y="106.5" clip-path="url(#SVGID_2_)" fill="#DBEAC7" width="38.7" height="6.4"/>
	<rect x="65.5" y="98.5" clip-path="url(#SVGID_2_)" fill="#DBEAC7" width="38.7" height="6.4"/>
	<rect x="65.5" y="82.5" clip-path="url(#SVGID_2_)" fill="#DBEAC7" width="38.7" height="6.4"/>
	<rect x="-18.1" y="136.9" clip-path="url(#SVGID_2_)" fill="#DBEAC7" width="45.1" height="36.9"/>
	<rect x="37.4" y="334.9" clip-path="url(#SVGID_2_)" fill="#DBEAC7" width="233.5" height="5.1"/>
	<rect x="37.4" y="350.5" clip-path="url(#SVGID_2_)" fill="#DBEAC7" width="233.5" height="5.1"/>
	<rect x="37.4" y="366.1" clip-path="url(#SVGID_2_)" fill="#DBEAC7" width="233.5" height="5.1"/>
	<path clip-path="url(#SVGID_2_)" fill="#DBEAC7" d="M273.5,574.3H2.6V376.9h270.9V574.3z M7.7,569.2h260.6V382H7.7V569.2z"/>
	<rect x="5.2" y="379.4" clip-path="url(#SVGID_2_)" fill="#DBEAC7" width="32.2" height="192.3"/>
	<rect x="29" y="439.3" clip-path="url(#SVGID_2_)" fill="#DBEAC7" width="241.9" height="5.1"/>
	<rect x="29" y="504.2" clip-path="url(#SVGID_2_)" fill="#DBEAC7" width="241.9" height="5.1"/>
	<rect x="109" y="379.4" clip-path="url(#SVGID_2_)" fill="#DBEAC7" width="5.2" height="192.3"/>
	<rect x="187.7" y="379.4" clip-path="url(#SVGID_2_)" fill="#DBEAC7" width="7.7" height="192.3"/>
	<path clip-path="url(#SVGID_2_)" fill="#DBEAC7" d="M694.7,170.2h-66.6c-11.2,0-20.2-9-20.2-20v-27.3c0-11,9.1-20,20.2-20h66.6
		c11.2,0,20.2,9,20.2,20v27.3C715,161.3,705.9,170.2,694.7,170.2z M628.2,108.1c-8.3,0-15.1,6.7-15.1,14.9v27.3
		c0,8.2,6.8,14.9,15.1,14.9h66.6c8.3,0,15.1-6.7,15.1-14.9v-27.3c0-8.2-6.8-14.9-15.1-14.9H628.2z"/>
	<path clip-path="url(#SVGID_2_)" fill="#DBEAC7" d="M819.2,170.2h-66.6c-11.2,0-20.2-9-20.2-20v-27.3c0-11,9.1-20,20.2-20h66.6
		c11.2,0,20.2,9,20.2,20v27.3C839.5,161.3,830.4,170.2,819.2,170.2z M752.7,108.1c-8.3,0-15.1,6.7-15.1,14.9v27.3
		c0,8.2,6.8,14.9,15.1,14.9h66.6c8.3,0,15.1-6.7,15.1-14.9v-27.3c0-8.2-6.8-14.9-15.1-14.9H752.7z"/>
	<g clip-path="url(#SVGID_2_)">
		<path fill="#DBEAC7" d="M777.4-2.5c0-1.9-1.5-3.4-3.4-3.4H669.7c-1.9,0-3.4,1.5-3.4,3.4v43.3c0,1.9,1.5,3.4,3.4,3.4H774
			c1.9,0,3.4-1.5,3.4-3.4V-2.5z"/>
	</g>
	<path clip-path="url(#SVGID_2_)" fill="#DBEAC7" d="M744.5,105.5"/>
	<path clip-path="url(#SVGID_2_)" fill="#DBEAC7" d="M678.9,105.5h-5.2c0-19.8,1.4-27.9,15.5-27.9h19.3c2.9,0,5.2-0.8,6.9-2.5
		c3.9-3.9,3.9-11.3,3.9-14.1V44.2h5.2v16.5c0,3.7,0,12.7-5.4,18.1c-2.7,2.6-6.2,4-10.5,4h-19.3C681.2,82.8,678.9,83.7,678.9,105.5z"
		/>
	<path clip-path="url(#SVGID_2_)" fill="#DBEAC7" d="M769.8,105.5h-5.2c0-21.8-2.3-22.8-10.3-22.8H735c-4.3,0-7.8-1.3-10.5-4
		c-5.4-5.4-5.4-14.4-5.4-17.7V44.2h5.2v16.5c0,3.2,0,10.6,3.9,14.5c1.7,1.7,3.9,2.5,6.8,2.5h19.3C768.4,77.7,769.8,85.7,769.8,105.5
		z"/>
	<path clip-path="url(#SVGID_2_)" fill="#DBEAC7" d="M244.2,697.1h-88.5c-11.5,0-20.9-9.2-20.9-20.6v-40.7
		c0-11.4,9.4-20.6,20.9-20.6h88.5c11.5,0,20.9,9.2,20.9,20.6v40.7C265,687.9,255.7,697.1,244.2,697.1z M155.7,621.6
		c-8,0-14.4,6.4-14.4,14.2v40.7c0,7.8,6.5,14.2,14.4,14.2h88.5c8,0,14.4-6.4,14.4-14.2v-40.7c0-7.8-6.5-14.2-14.4-14.2H155.7z"/>
	<g clip-path="url(#SVGID_2_)">
		<path fill="#DBEAC7" d="M58.9,688.5c0-1.9-1.5-3.4-3.4-3.4H-48.8c-1.9,0-3.4,1.5-3.4,3.4v51.3c0,1.9,1.5,3.4,3.4,3.4H55.5
			c1.9,0,3.4-1.5,3.4-3.4V688.5z"/>
	</g>
	<path clip-path="url(#SVGID_2_)" fill="#DBEAC7" d="M34.3,743.5"/>
	<path clip-path="url(#SVGID_2_)" fill="#DBEAC7" d="M139,780.9c-26.7,0-44.2-1.5-44.2-21v-26.7c0-4.1-1.2-7.3-3.6-9.7
		c-5.6-5.5-16.2-5.4-20.3-5.5H47v-6.4h23.4c5.2,0,17.9-0.1,25.4,7.3c3.7,3.6,5.5,8.4,5.5,14.2v26.7c0,11,5.5,14.6,37.8,14.6V780.9z"
		/>
	<path clip-path="url(#SVGID_2_)" fill="#DBEAC7" d="M71.5,718.2c-0.3,0-0.5,0-0.7,0H47v-6.4h23.9c4.1,0,14.7,0,20.3-5.5
		c2.4-2.4,3.6-5.6,3.6-9.7V670c0-19.5,17.5-21,44.2-21v6.4c-32.3,0-37.8,3.7-37.8,14.6v26.7c0,5.8-1.9,10.6-5.5,14.2
		C88.6,717.9,76.8,718.2,71.5,718.2z"/>
	<path clip-path="url(#SVGID_2_)" fill="#DBEAC7" d="M244.2,806.8h-88.5c-11.5,0-20.9-9.2-20.9-20.6v-40.7
		c0-11.4,9.4-20.6,20.9-20.6h88.5c11.5,0,20.9,9.2,20.9,20.6v40.7C265,797.6,255.7,806.8,244.2,806.8z M155.7,731.3
		c-8,0-14.4,6.4-14.4,14.2v40.7c0,7.8,6.5,14.2,14.4,14.2h88.5c8,0,14.4-6.4,14.4-14.2v-40.7c0-7.8-6.5-14.2-14.4-14.2H155.7z"/>
	<path clip-path="url(#SVGID_2_)" fill="#DBEAC7" d="M460.9,749.4h-88.5c-11.5,0-20.9-9.2-20.9-20.6v-40.7
		c0-11.4,9.4-20.6,20.9-20.6h88.5c11.5,0,20.9,9.2,20.9,20.6v40.7C481.8,740.2,472.4,749.4,460.9,749.4z M372.4,673.9
		c-8,0-14.4,6.4-14.4,14.2v40.7c0,7.8,6.5,14.2,14.4,14.2h88.5c8,0,14.4-6.4,14.4-14.2v-40.7c0-7.8-6.5-14.2-14.4-14.2H372.4z"/>
	<path clip-path="url(#SVGID_2_)" fill="#DBEAC7" d="M353.8,719.7c-26.7,0-44.2-1.5-44.2-21V672c0-4.1-1.2-7.3-3.6-9.7
		c-5.6-5.5-16.2-5.4-20.3-5.5h-23.9v-6.4h23.3c5.2,0,17.9-0.1,25.4,7.3c3.7,3.6,5.5,8.4,5.5,14.2v26.7c0,11,5.5,14.6,37.8,14.6
		V719.7z"/>
	<path clip-path="url(#SVGID_2_)" fill="#DBEAC7" d="M99.3,308.6c-14.5,0-26.2-11.6-26.2-25.9v-26.3c0-14.3,11.8-25.9,26.2-25.9
		s26.2,11.6,26.2,25.9v26.3C125.5,297,113.8,308.6,99.3,308.6z M99.3,238.1c-10.2,0-18.5,8.2-18.5,18.3v26.3
		c0,10.1,8.3,18.3,18.5,18.3s18.5-8.2,18.5-18.3v-26.3C117.8,246.3,109.5,238.1,99.3,238.1z"/>
	<path clip-path="url(#SVGID_2_)" fill="#DBEAC7" d="M189.6,308.6c-14.5,0-26.2-11.6-26.2-25.9v-26.3c0-14.3,11.8-25.9,26.2-25.9
		c14.5,0,26.2,11.6,26.2,25.9v26.3C215.8,297,204.1,308.6,189.6,308.6z M189.6,238.1c-10.2,0-18.5,8.2-18.5,18.3v26.3
		c0,10.1,8.3,18.3,18.5,18.3s18.5-8.2,18.5-18.3v-26.3C208.1,246.3,199.8,238.1,189.6,238.1z"/>
	<rect x="48.2" y="234.3" clip-path="url(#SVGID_2_)" fill="#DBEAC7" width="7.7" height="70.5"/>
	<rect x="139.3" y="234.3" clip-path="url(#SVGID_2_)" fill="#DBEAC7" width="7.7" height="70.5"/>
	<path clip-path="url(#SVGID_2_)" fill="#DBEAC7" d="M260.9,266.7h-15.2c-6.9,0-12.4-5.5-12.4-12.3v-2.1c0-6.8,5.6-12.3,12.4-12.3
		h15.2c6.9,0,12.4,5.5,12.4,12.3v2.1C273.3,261.2,267.7,266.7,260.9,266.7z M245.6,245.1c-4,0-7.3,3.2-7.3,7.2v2.1
		c0,4,3.3,7.2,7.3,7.2h15.2c4,0,7.3-3.2,7.3-7.2v-2.1c0-4-3.3-7.2-7.3-7.2H245.6z"/>
	<path clip-path="url(#SVGID_2_)" fill="#DBEAC7" d="M260.9,310.3h-15.2c-6.9,0-12.4-5.5-12.4-12.3v-2.1c0-6.8,5.6-12.3,12.4-12.3
		h15.2c6.9,0,12.4,5.5,12.4,12.3v2.1C273.3,304.8,267.7,310.3,260.9,310.3z M245.6,288.7c-4,0-7.3,3.2-7.3,7.2v2.1
		c0,4,3.3,7.2,7.3,7.2h15.2c4,0,7.3-3.2,7.3-7.2v-2.1c0-4-3.3-7.2-7.3-7.2H245.6z"/>
	<rect x="235.8" y="228" clip-path="url(#SVGID_2_)" fill="#DBEAC7" width="34.9" height="5.1"/>
	<rect x="235.8" y="272" clip-path="url(#SVGID_2_)" fill="#DBEAC7" width="34.9" height="5.1"/>
</g>
</svg>
