<?xml version="1.0" encoding="utf-8"?>
<!-- Generator: Adobe Illustrator 17.1.0, SVG Export Plug-In . SVG Version: 6.00 Build 0)  -->
<!DOCTYPE svg PUBLIC "-//W3C//DTD SVG 1.1//EN" "http://www.w3.org/Graphics/SVG/1.1/DTD/svg11.dtd">
<svg version="1.1" id="Layer_1" xmlns="http://www.w3.org/2000/svg" xmlns:xlink="http://www.w3.org/1999/xlink" x="0px" y="0px"
	 width="32px" height="32px" viewBox="0 0 32 32" enable-background="new 0 0 32 32" xml:space="preserve">
<g>
	<circle fill="none" stroke="#67B51B" stroke-miterlimit="10" cx="16.1" cy="16.4" r="15"/>
	<circle fill="none" stroke="#67B51B" stroke-miterlimit="10" cx="16.1" cy="16.4" r="10"/>
	<g>
		<path fill="#67B51B" d="M16.1,12.4c2.2,0,4,1.8,4,4s-1.8,4-4,4s-4-1.8-4-4S13.8,12.4,16.1,12.4 M16.1,11.4c-2.8,0-5,2.3-5,5
			s2.3,5,5,5s5-2.3,5-5S18.9,11.4,16.1,11.4L16.1,11.4z"/>
	</g>
	<circle fill="#67B51B" cx="6.1" cy="7" r="2.4"/>
	<circle fill="#67B51B" cx="23.5" cy="10.3" r="2.4"/>
	<circle fill="#67B51B" cx="21.7" cy="24.5" r="2.4"/>
	<line fill="none" stroke="#67B51B" stroke-miterlimit="10" x1="7.8" y1="8.8" x2="12.5" y2="13.4"/>
	<line fill="none" stroke="#67B51B" stroke-miterlimit="10" x1="22.4" y1="25.6" x2="18.6" y2="20.1"/>
	<line fill="none" stroke="#67B51B" stroke-miterlimit="10" x1="22.2" y1="11.8" x2="19.7" y2="13.9"/>
</g>
</svg>
