<?xml version="1.0" encoding="utf-8"?>
<!-- Generator: Adobe Illustrator 18.1.1, SVG Export Plug-In . SVG Version: 6.00 Build 0)  -->
<svg version="1.1" id="Layer_1" xmlns="http://www.w3.org/2000/svg" xmlns:xlink="http://www.w3.org/1999/xlink" x="0px" y="0px"
	 viewBox="0 0 85 85" enable-background="new 0 0 85 85" xml:space="preserve">
<g>
	<path fill="#E3E3E2" d="M42.3,74.1C25,74.1,10.8,60,10.8,42.6c0-17.4,14.1-31.5,31.5-31.5s31.5,14.1,31.5,31.5
		C73.8,60,59.7,74.1,42.3,74.1z M42.3,13.6c-16,0-29,13-29,29c0,16,13,29,29,29s29-13,29-29C71.3,26.6,58.3,13.6,42.3,13.6z"/>
	<g>
		<g>
			<path fill="#E3E3E2" d="M39.8,48l-0.1-1.1c-0.2-2.2,0.5-4.6,2.5-7.1c1.8-2.2,2.9-3.8,2.9-5.6c0-2.1-1.3-3.5-3.9-3.5
				c-1.5,0-3.1,0.5-4.1,1.3l-1-2.6c1.3-1,3.7-1.6,5.8-1.6c4.7,0,6.8,2.9,6.8,6c0,2.8-1.5,4.8-3.5,7.1c-1.8,2.1-2.4,3.9-2.3,6l0,1.1
				H39.8z M38.9,53.7c0-1.5,1-2.6,2.4-2.6s2.4,1.1,2.4,2.6c0,1.4-0.9,2.5-2.4,2.5C39.9,56.2,38.9,55.1,38.9,53.7z"/>
		</g>
	</g>
</g>
</svg>
