<?xml version="1.0" encoding="utf-8"?>
<!-- Generator: Adobe Illustrator 18.0.0, SVG Export Plug-In . SVG Version: 6.00 Build 0)  -->
<!DOCTYPE svg PUBLIC "-//W3C//DTD SVG 1.1//EN" "http://www.w3.org/Graphics/SVG/1.1/DTD/svg11.dtd">
<svg version="1.1" id="Layer_1" xmlns="http://www.w3.org/2000/svg" xmlns:xlink="http://www.w3.org/1999/xlink" x="0px" y="0px"
	 viewBox="0 0 1445.7 42.5" enable-background="new 0 0 1445.7 42.5" xml:space="preserve">
<g>
	<rect x="1350.9" y="11.4" fill="#898989" width="2.3" height="5.7"/>
	<rect x="1354.5" y="5.6" fill="#898989" width="2.3" height="11.6"/>
	<rect x="1358" y="9.1" fill="#898989" width="5.8" height="1.2"/>
	<rect x="1358" y="11.4" fill="#898989" width="5.8" height="1.2"/>
	<rect x="1358" y="13.8" fill="#898989" width="5.8" height="1.2"/>
	<rect x="1358" y="15.9" fill="#898989" width="5.8" height="1.2"/>
	<circle fill="#898989" cx="1369.7" cy="13.6" r="3.5"/>
	<circle fill="#898989" cx="1375.6" cy="7.8" r="2.3"/>
	<circle fill="#898989" cx="1355.4" cy="27.9" r="5.9"/>
	<polygon fill="#FFFFFF" points="1355.7,28.2 1349.5,28.2 1349.5,27.6 1355.1,27.6 1355.1,22 1355.7,22 	"/>
	<polygon fill="#898989" points="1364.9,33.8 1364.9,32.5 1370.8,29 1374.8,31.4 1377.9,29 1377.9,33.8 	"/>
	<rect x="1366.1" y="26.7" fill="#898989" width="1.2" height="2.3"/>
	<rect x="1368.5" y="23.2" fill="#898989" width="1.2" height="4.7"/>
	<rect x="1370.8" y="22" fill="#898989" width="1.3" height="5.9"/>
	<rect x="1373.2" y="24.3" fill="#898989" width="1.2" height="4.7"/>
	<rect x="1375.6" y="22" fill="#898989" width="1.1" height="5.9"/>
</g>
<path fill="#898989" d="M1293.1,33l7.5-10.5l-3.7-4.1l0.8-0.3c0.5-0.2,4.8-1.7,6.8-0.5l4.2-3.9c-0.4-1-0.6-2.7,0.8-4.3l0.4-0.5
	l8.6,9.4l-0.5,0.4c-1.7,1.3-3.4,1-4.3,0.5l-4.2,3.9c1,2-0.9,6.2-1.1,6.7l-0.4,0.8l-3.7-4.1L1293.1,33z M1298.8,18.9l3.2,3.5
	l-4.9,6.9l7.3-4.3l3.2,3.5c0.8-1.9,1.4-4.4,0.7-5.2l-0.4-0.4l5.7-5.2l0.4,0.3c0.1,0,1.3,1,2.8,0.1l-6.8-7.5c-1,1.5-0.1,2.8-0.1,2.8
	l0.3,0.4l-5.7,5.2l-0.4-0.4C1303.4,17.9,1300.8,18.3,1298.8,18.9z"/>
<rect x="1417.4" y="11.4" fill="#898989" width="19.9" height="2.7"/>
<rect x="1417.4" y="19.6" fill="#898989" width="19.9" height="2.7"/>
<rect x="1417.4" y="27.8" fill="#898989" width="19.9" height="2.7"/>
<circle fill="#898989" cx="1412.6" cy="12.8" r="3"/>
<circle fill="#898989" cx="1412.5" cy="21" r="3"/>
<circle fill="#898989" cx="1412.6" cy="29.2" r="3"/>
<line fill="none" stroke="#898989" stroke-miterlimit="10" x1="1393" y1="5.6" x2="1393" y2="33.8"/>
<line fill="none" stroke="#898989" stroke-miterlimit="10" x1="1335" y1="7.8" x2="1335" y2="36.1"/>
<circle fill="#8C8C8C" stroke="#898989" stroke-miterlimit="10" cx="705.9" cy="17.8" r="7.1"/>
<rect x="655.7" y="9.6" fill="#8C8C8C" stroke="#898989" stroke-miterlimit="10" width="11" height="6.9"/>
<rect x="655.7" y="19.1" fill="#8C8C8C" stroke="#898989" stroke-miterlimit="10" width="11" height="6.9"/>
<rect x="642" y="9.6" fill="#8C8C8C" stroke="#898989" stroke-miterlimit="10" width="11" height="6.9"/>
<rect x="642" y="19.1" fill="#8C8C8C" stroke="#898989" stroke-miterlimit="10" width="11" height="6.9"/>
<line fill="none" stroke="#898989" stroke-miterlimit="10" x1="728.6" y1="3" x2="728.6" y2="31.3"/>
<line fill="none" stroke="#898989" stroke-miterlimit="10" x1="682.6" y1="3.3" x2="682.6" y2="31.5"/>
<line fill="none" stroke="#CDCDCD" stroke-width="2" stroke-miterlimit="10" x1="762.7" y1="36" x2="682.6" y2="36"/>
<line fill="none" stroke="#CDCDCD" stroke-width="2" stroke-miterlimit="10" x1="762.9" y1="40.3" x2="682.8" y2="40.3"/>
<polygon fill="none" stroke="#898989" stroke-miterlimit="10" points="15.5,20.5 9.6,14.6 21.4,14.6 "/>
<rect x="14.9" y="19.8" fill="#898989" width="1.1" height="5"/>
<text transform="matrix(1 0 0 1 23.8793 24.8499)" fill="#6FB5E2" font-family="'MyriadPro-Regular'" font-size="15">No applied filters</text>
<text transform="matrix(1 0 0 1 774.6293 23.7986)" fill="#009EEF" font-family="'MyriadPro-Regular'" font-size="15">New</text>
<circle fill="none" stroke="#009EEF" stroke-miterlimit="10" cx="756.3" cy="17.8" r="9.9"/>
<rect x="755.4" y="11.8" fill="#009EEF" width="1.8" height="12"/>
<rect x="750.3" y="16.9" fill="#009EEF" width="12" height="1.8"/>
</svg>
