<?xml version="1.0" encoding="utf-8"?>
<!-- Generator: Adobe Illustrator 18.0.0, SVG Export Plug-In . SVG Version: 6.00 Build 0)  -->
<!DOCTYPE svg PUBLIC "-//W3C//DTD SVG 1.1//EN" "http://www.w3.org/Graphics/SVG/1.1/DTD/svg11.dtd">
<svg version="1.1" id="Layer_1" xmlns="http://www.w3.org/2000/svg" xmlns:xlink="http://www.w3.org/1999/xlink" x="0px" y="0px"
	 viewBox="0 0 200 125" enable-background="new 0 0 200 125" xml:space="preserve">
<polyline fill="none" stroke="#4E7C31" stroke-miterlimit="10" points="39.1,41.1 55.6,41.1 58,29.5 72.6,29.5 "/>
<polyline fill="none" stroke="#4E7C31" stroke-miterlimit="10" points="39.1,39.6 55.6,39.6 58,51.2 72.6,51.2 "/>
<line fill="none" stroke="#4E7C31" stroke-miterlimit="10" x1="39.1" y1="40.3" x2="69" y2="40.3"/>
<circle fill="#85BC36" cx="30.5" cy="40.2" r="14.6"/>
<circle fill="#4E7C31" cx="72.6" cy="30.2" r="3.6"/>
<text transform="matrix(1 0 0 1 22.5776 41.3882)" fill="#FFFFFF" font-family="'MyriadPro-Regular'" font-size="5.2277">Denver</text>
<circle fill="#93C01F" cx="72.6" cy="40.2" r="3.6"/>
<circle fill="#4E7C31" cx="72.6" cy="51.1" r="3.6"/>
<text transform="matrix(1 0 0 1 79.4189 31.4233)" fill="#1D1D1B" font-family="'MyriadPro-Regular'" font-size="4.1822">High population flew from Disney to Denver</text>
<text transform="matrix(1 0 0 1 79.418 41.2251)" fill="#1D1D1B" font-family="'MyriadPro-Regular'" font-size="4.1822">High instance of #Antivaccines</text>
<text transform="matrix(1 0 0 1 79.0703 52.1704)" fill="#1D1D1B" font-family="'MyriadPro-Regular'" font-size="4.1822">Other factors for this predictive model.</text>
<rect x="29.8" y="97.1" fill="#04A5DA" width="55.8" height="4"/>
<rect x="29.8" y="104.9" fill="#04A5DA" width="24.8" height="4"/>
<rect x="29.8" y="112.4" fill="#04A5DA" width="38" height="4"/>
<text transform="matrix(1 0 0 1 11.1846 100.0127)" fill="#1D1D1B" font-family="'MyriadPro-Regular'" font-size="4.1822">Factor A</text>
<text transform="matrix(1 0 0 1 11.1846 107.7988)" fill="#1D1D1B" font-family="'MyriadPro-Regular'" font-size="4.1822">Factor B</text>
<text transform="matrix(1 0 0 1 11.1846 115.29)" fill="#1D1D1B" font-family="'MyriadPro-Regular'" font-size="4.1822">Factor C</text>
<circle opacity="0.5" fill="#85BC36" cx="157.8" cy="106.9" r="12.2"/>
<circle opacity="0.5" fill="#FDD200" cx="174.4" cy="106.9" r="12.2"/>
<text transform="matrix(1 0 0 1 114.4268 102.8399)"><tspan x="0" y="0" fill="#1D1D1B" font-family="'MyriadPro-Regular'" font-size="4.1822">Disney</tspan><tspan x="0" y="10" fill="#1D1D1B" font-family="'MyriadPro-Regular'" font-size="4.1822">South East Asia</tspan></text>
<rect x="108.8" y="99.5" fill="#85BC36" width="4" height="3.9"/>
<rect x="108.8" y="109.6" fill="#FDD200" width="4" height="3.9"/>
<text transform="matrix(1 0 0 1 11.5322 11.9067)"><tspan x="0" y="0" fill="#1D1D1B" font-family="'MyriadPro-Bold'" font-size="6.2733">Denver</tspan><tspan x="20.4" y="0" fill="#1D1D1B" font-family="'MyriadPro-Regular'" font-size="6.2733"> has a high probability for an </tspan><tspan x="96.1" y="0" fill="#1D1D1B" font-family="'MyriadPro-Bold'" font-size="6.2733">outbreak</tspan></text>
<text transform="matrix(1 0 0 1 11.1846 19.5737)" fill="#1D1D1B" font-family="'MyriadPro-Regular'" font-size="4.8792">(Predictive strength: 78%)</text>
<rect x="5.4" y="2.5" fill="none" stroke="#EAEAEA" stroke-miterlimit="10" width="189.6" height="57.2"/>
<circle fill="#04A5DA" stroke="#00558D" stroke-miterlimit="10" cx="85.9" cy="78.5" r="4"/>
<text transform="matrix(1 0 0 1 10.8359 78.1494)"><tspan x="0" y="0" fill="#1D1D1B" font-family="'HelvNeueforIBM-Bold'" font-size="4.8792">Anti-Vaccine Sentiment</tspan><tspan x="0" y="5.9" fill="#1D1D1B" font-family="'HelvNeueforIBM'" font-size="4.8792">is an </tspan><tspan x="10.9" y="5.9" fill="#1D1D1B" font-family="'HelvNeueforIBM-Bold'" font-size="4.8792">extremely high</tspan><tspan x="44.2" y="5.9" fill="#1D1D1B" font-family="'HelvNeueforIBM'" font-size="4.8792"> predictor</tspan><tspan x="0" y="11.7" fill="#1D1D1B" font-family="'HelvNeueforIBM'" font-size="4.8792">for vunerabilities</tspan></text>
<text transform="matrix(1 0 0 1 108.7764 77.334)"><tspan x="0" y="0" fill="#1D1D1B" font-family="'HelvNeueforIBM-Light'" font-size="4.8792">A large proportion of people</tspan><tspan x="0" y="5.9" fill="#1D1D1B" font-family="'HelvNeueforIBM-Light'" font-size="4.8792">who flew to </tspan><tspan x="25.2" y="5.9" fill="#1D1D1B" font-family="'HelvNeueforIBM-Bold'" font-size="4.8792">Disney </tspan><tspan x="41.8" y="5.9" fill="#1D1D1B" font-family="'HelvNeueforIBM-Light'" font-size="4.8792">also </tspan><tspan x="0" y="11.7" fill="#1D1D1B" font-family="'HelvNeueforIBM-Light'" font-size="4.8792">flew through</tspan><tspan x="26.1" y="11.7" fill="#1D1D1B" font-family="'HelvNeueforIBM-Bold'" font-size="4.8792"> South East Asia</tspan></text>
<circle fill="#FDD200" stroke="#C19C05" stroke-miterlimit="10" cx="185.2" cy="78.5" r="4"/>
<rect x="5.8" y="69.6" fill="none" stroke="#EAEAEA" stroke-miterlimit="10" width="89.5" height="53.3"/>
<rect x="105.2" y="69.3" fill="none" stroke="#EAEAEA" stroke-miterlimit="10" width="89.5" height="53.3"/>
<circle fill="#85BC37" stroke="#4E7C30" stroke-miterlimit="10" cx="185.2" cy="12.3" r="4"/>
</svg>
