<?xml version="1.0" encoding="utf-8"?>
<!-- Generator: Adobe Illustrator 18.0.0, SVG Export Plug-In . SVG Version: 6.00 Build 0)  -->
<!DOCTYPE svg PUBLIC "-//W3C//DTD SVG 1.1//EN" "http://www.w3.org/Graphics/SVG/1.1/DTD/svg11.dtd">
<svg version="1.1" id="Layer_2" xmlns="http://www.w3.org/2000/svg" xmlns:xlink="http://www.w3.org/1999/xlink" x="0px" y="0px"
	 viewBox="0 0 290 335" enable-background="new 0 0 290 335" xml:space="preserve">
<g id="Your_Icon">
	<g>
		<path fill="none" stroke="#59B2DE" stroke-miterlimit="10" d="M242.5,14.6l-1.1-0.4c-0.1,0-0.2-0.1-0.3-0.2c0,0,0,0,0,0
			c0-0.1,0-0.2,0-0.3l0.5-1c0.2-0.4,0.1-0.9-0.2-1.2l-1.4-1.4c-0.3-0.3-0.8-0.4-1.2-0.2l-1,0.5c-0.1,0.1-0.2,0.1-0.3,0c0,0,0,0,0,0
			c-0.1,0-0.2-0.1-0.2-0.2L236.9,9c-0.2-0.4-0.6-0.7-1-0.7h-1.9c-0.5,0-0.9,0.3-1,0.7l-0.4,1.1c0,0.1-0.1,0.2-0.2,0.3
			c-0.1,0-0.2,0-0.3,0l-1-0.5c-0.4-0.2-0.9-0.1-1.2,0.2l-1.4,1.4c-0.3,0.3-0.4,0.8-0.2,1.2l0.5,1c0.1,0.1,0.1,0.2,0,0.3c0,0,0,0,0,0
			c0,0.1-0.1,0.2-0.3,0.2l-1.1,0.4c-0.4,0.2-0.7,0.6-0.7,1v1.9c0,0.5,0.3,0.9,0.7,1l1.1,0.4c0.1,0,0.2,0.1,0.2,0.2c0,0,0,0,0,0
			c0,0.1,0,0.2,0,0.3l-0.5,1c-0.2,0.4-0.1,0.9,0.2,1.2l1.4,1.4c0.3,0.3,0.8,0.4,1.2,0.2l1-0.5c0.1-0.1,0.2-0.1,0.3,0c0,0,0,0,0,0
			c0.1,0,0.2,0.1,0.2,0.3l0.4,1.1c0.2,0.4,0.6,0.7,1,0.7h1.9c0.5,0,0.9-0.3,1-0.7l0.4-1c0-0.1,0.1-0.2,0.2-0.3c0,0,0,0,0,0
			c0.1,0,0.2,0,0.3,0l1,0.5c0.4,0.2,0.9,0.1,1.2-0.2l1.4-1.4c0.3-0.3,0.4-0.8,0.2-1.2l-0.5-1c-0.1-0.1-0.1-0.2,0-0.3c0,0,0,0,0,0
			c0-0.1,0.1-0.2,0.3-0.2l1.1-0.4c0.4-0.2,0.7-0.6,0.7-1v-1.9C243.2,15.1,242.9,14.7,242.5,14.6z M241,16.8l-0.3,0.1
			c-0.7,0.2-1.2,0.8-1.5,1.4c0,0,0,0,0,0c-0.3,0.7-0.3,1.4,0.1,2.1l0.2,0.3l-0.3,0.3l-0.3-0.2c-0.6-0.3-1.4-0.3-2.1-0.1c0,0,0,0,0,0
			c-0.7,0.3-1.2,0.8-1.5,1.5l-0.1,0.3h-0.4l-0.1-0.3c-0.2-0.7-0.8-1.2-1.4-1.5c0,0,0,0,0,0c-0.7-0.3-1.4-0.3-2.1,0.1l-0.3,0.2
			l-0.3-0.3l0.2-0.3c0.3-0.7,0.3-1.4,0.1-2.1c0,0,0,0,0,0c-0.3-0.7-0.8-1.2-1.5-1.4l-0.3-0.1v-0.4l0.3-0.1c0.7-0.2,1.2-0.8,1.5-1.4
			c0,0,0,0,0,0c0.3-0.7,0.3-1.4-0.1-2.1l-0.2-0.3l0.3-0.3l0.3,0.2c0.7,0.3,1.4,0.3,2.1,0.1c0.7-0.3,1.2-0.8,1.4-1.5l0.1-0.3h0.4
			l0.1,0.3c0.2,0.7,0.8,1.2,1.4,1.5c0,0,0,0,0,0c0.7,0.3,1.4,0.3,2.1-0.1l0.3-0.2l0.3,0.3l-0.2,0.3c-0.3,0.7-0.3,1.4-0.1,2.1h0
			c0,0,0,0,0,0c0.3,0.7,0.8,1.2,1.5,1.4l0.3,0.1V16.8z"/>
		<path fill="none" stroke="#59B2DE" stroke-miterlimit="10" d="M234.9,12.8c-2.1,0-3.7,1.7-3.7,3.7s1.7,3.7,3.7,3.7
			s3.7-1.7,3.7-3.7S237,12.8,234.9,12.8z M234.9,18.1c-0.9,0-1.6-0.7-1.6-1.6s0.7-1.6,1.6-1.6c0.9,0,1.6,0.7,1.6,1.6
			S235.8,18.1,234.9,18.1z"/>
	</g>
</g>
<path fill="#289AD6" d="M35.1,78.1h-17c-1.6,0-3-1.4-3-3v-17c0-1.6,1.4-3,3-3h17c1.6,0,3,1.4,3,3v17C38.1,76.8,36.7,78.1,35.1,78.1z
	"/>
<text transform="matrix(1 0 0 1 11.0896 23.0897)" fill="#43A3D2" font-family="'HelvNeueMediumforIBM'" font-size="15">Columns</text>
<text transform="matrix(1 0 0 1 12.97 43.6119)" fill="#848484" font-family="'HelvNeueMediumforIBM'" font-size="12">Type</text>
<text transform="matrix(1 0 0 1 45.4029 71.2239)" fill="#848484" font-family="'HelvNeueMediumforIBM'" font-size="12">A</text>
<text transform="matrix(1 0 0 1 61.1048 71.2238)" opacity="0.7" fill="#848484" font-family="'HelvNeueMediumforIBM'" font-size="12">Major Airport Cities</text>
</svg>
