<?xml version="1.0" encoding="utf-8"?>
<!-- Generator: Adobe Illustrator 18.0.0, SVG Export Plug-In . SVG Version: 6.00 Build 0)  -->
<!DOCTYPE svg PUBLIC "-//W3C//DTD SVG 1.1//EN" "http://www.w3.org/Graphics/SVG/1.1/DTD/svg11.dtd">
<svg version="1.1" id="Layer_1" xmlns="http://www.w3.org/2000/svg" xmlns:xlink="http://www.w3.org/1999/xlink" x="0px" y="0px"
	 viewBox="0 0 155.9 155.9" enable-background="new 0 0 155.9 155.9" xml:space="preserve">
<circle fill="#85BC37" stroke="#4E7C30" stroke-miterlimit="10" cx="37" cy="113.8" r="11.3"/>
<circle fill="#A8A8A8" cx="37.4" cy="43.9" r="7.4"/>
<circle fill="#A8A8A8" stroke="#FFFFFF" stroke-width="1.5" stroke-miterlimit="10" cx="37" cy="43.9" r="8.2"/>
<ellipse fill="#777777" cx="37" cy="78.6" rx="12.1" ry="11.5"/>
<rect x="35.7" y="66.1" fill="#FFFFFF" width="2.5" height="24.3"/>
<circle fill="#A8A8A8" stroke="#FFFFFF" stroke-width="1.5" stroke-miterlimit="10" cx="37" cy="78.4" r="8.2"/>
<circle fill="#777777" cx="37" cy="43.9" r="12.1"/>
<rect x="36.1" y="30.6" fill="#FFFFFF" width="2.5" height="26.5"/>
<rect x="35.9" y="30.6" transform="matrix(0.5092 0.8606 -0.8606 0.5092 55.9264 -10.5001)" fill="#FFFFFF" width="2.5" height="26.5"/>
<rect x="35.6" y="30.2" transform="matrix(-0.5241 0.8517 -0.8517 -0.5241 93.0034 34.6906)" fill="#FFFFFF" width="2.5" height="26.2"/>
<circle fill="#A8A8A8" stroke="#FFFFFF" stroke-width="1.5" stroke-miterlimit="10" cx="37" cy="43.9" r="8.2"/>
<text transform="matrix(1 0 0 1 6.475 19.4855)" fill="#676767" font-family="'HelvNeueforIBM-Bold'" font-size="16">More Predictive</text>
<text transform="matrix(1 0 0 1 1.975 148.7355)" fill="#676767" font-family="'HelvNeueforIBM-Bold'" font-size="15">Easier to Understand</text>
<text transform="matrix(1 0 0 1 66.8083 48.4439)" fill="#404041" font-family="'HelvNeueforIBM'" font-size="14">Combination</text>
<text transform="matrix(1 0 0 1 66.8083 84.4438)" fill="#404041" font-family="'HelvNeueforIBM'" font-size="14">Two Field</text>
<text transform="matrix(1 0 0 1 66.8083 120.4438)" fill="#404041" font-family="'HelvNeueforIBM'" font-size="14">One Field</text>
<rect x="56.7" y="31.8" fill="none" stroke="#85BC36" stroke-miterlimit="10" width="4.1" height="24.3"/>
<rect x="56.7" y="66.8" fill="none" stroke="#85BC36" stroke-miterlimit="10" width="4.1" height="24.3"/>
<rect x="56.7" y="101.8" fill="#87BC38" stroke="#85BC36" stroke-miterlimit="10" width="4.1" height="24.3"/>
</svg>
