<?xml version="1.0" encoding="utf-8"?>
<!-- Generator: Adobe Illustrator 18.1.1, SVG Export Plug-In . SVG Version: 6.00 Build 0)  -->
<svg version="1.1" id="Layer_1" xmlns="http://www.w3.org/2000/svg" xmlns:xlink="http://www.w3.org/1999/xlink" x="0px" y="0px"
	 viewBox="17.3 17.5 48.2 48.9" enable-background="new 17.3 17.5 48.2 48.9" xml:space="preserve">
<g id="Layer_1_1_">
	<path fill="none" stroke="#498313" stroke-miterlimit="10" d="M35,40.3"/>
	<path fill="none" stroke="#498313" stroke-miterlimit="10" d="M27.3,38"/>
</g>
<g id="Layer_2">
	<circle fill="#F9F9F9" cx="41.4" cy="42.3" r="24.1"/>
	<circle fill="#EBEBEB" cx="41.6" cy="42.4" r="18.2"/>
	<circle fill="#D9D9D9" cx="41.3" cy="42.3" r="12.2"/>
	<circle fill="#606162" cx="41.5" cy="42.4" r="6.8"/>
	<circle fill="#7F8184" cx="41.4" cy="42.5" r="4.3"/>
	<circle fill="#606162" cx="41.4" cy="42.5" r="3.3"/>
	<circle fill="#7F8184" cx="41.4" cy="42.5" r="1.8"/>
</g>
<g id="Layer_3">
	<text transform="matrix(1 0 0 1 38.6162 42.1098)" fill="#FFFFFF" font-family="'MyriadPro-Regular'" font-size="1.7188">Measles</text>
	<text transform="matrix(1 0 0 1 38.1011 44.1728)" fill="#FFFFFF" font-family="'MyriadPro-Regular'" font-size="1.7188">Outbreak</text>
</g>
<g id="Layer_4">
	<path fill="none" stroke="#D1D1D1" stroke-miterlimit="10" d="M18.1,43.3c2.4,12.2,14.2,20.1,26.3,17.6c9.7-2,16-11.6,14.1-21.4
		c-1.5-7.8-9.1-12.9-16.8-11.2c-6.2,1.3-10.2,7.4-9,13.7c1.4,7.6,5.7,9.7,11.3,9c6.3-0.8,8.4-5.7,7.2-10.6c-1-4.2-5.6-5.3-8.8-4.6"
		/>
</g>
<g id="Layer_5">
	<ellipse fill="#86C43B" stroke="#498313" stroke-miterlimit="10" cx="26.2" cy="37.7" rx="1.1" ry="1.1"/>
	<line fill="none" stroke="#498313" stroke-miterlimit="10" x1="27.3" y1="38.1" x2="35" y2="40.4"/>
	<ellipse fill="#00A7D8" stroke="#0071A6" stroke-miterlimit="10" cx="32.4" cy="53.5" rx="1.1" ry="1.1"/>
	<line fill="none" stroke="#0071A6" stroke-miterlimit="10" x1="33.1" y1="52.6" x2="37.3" y2="47.5"/>
	<ellipse fill="#FDD300" stroke="#CAAC1D" stroke-miterlimit="10" cx="53.9" cy="49.5" rx="1.1" ry="1.1"/>
	<line fill="none" stroke="#CAAC1D" stroke-miterlimit="10" x1="52.9" y1="48.9" x2="47.2" y2="46"/>
</g>
</svg>
