<?xml version="1.0" encoding="utf-8"?>
<!-- Generator: Adobe Illustrator 18.0.0, SVG Export Plug-In . SVG Version: 6.00 Build 0)  -->
<!DOCTYPE svg PUBLIC "-//W3C//DTD SVG 1.1//EN" "http://www.w3.org/Graphics/SVG/1.1/DTD/svg11.dtd">
<svg version="1.1" id="Layer_3" xmlns="http://www.w3.org/2000/svg" xmlns:xlink="http://www.w3.org/1999/xlink" x="0px" y="0px"
	 viewBox="0 0 320 107" enable-background="new 0 0 320 107" xml:space="preserve">
<rect x="123.8" y="22.7" fill="#5CC1F4" width="42.3" height="60.7"/>
<rect x="171.5" y="52.7" fill="#95C11F" width="43" height="30"/>
<rect x="219.8" y="78.8" fill="#5CC1F4" width="43" height="4"/>
<text transform="matrix(1 0 0 1 42.3381 31.6671)"><tspan x="0" y="0" fill="#444444" font-family="'MyriadPro-Regular'" font-size="15">Participant</tspan><tspan x="0" y="18" fill="#444444" font-family="'MyriadPro-Regular'" font-size="15">reaction </tspan><tspan x="0" y="36" fill="#444444" font-family="'MyriadPro-Regular'" font-size="15">rate:</tspan></text>
<text transform="matrix(1 0 0 1 137.0048 17.5001)" fill="#444444" font-family="'MyriadPro-Regular'" font-size="10">IND</text>
<text transform="matrix(1 0 0 1 184.0048 48.5001)" fill="#444444" font-family="'MyriadPro-Regular'" font-size="10">DET</text>
<text transform="matrix(1 0 0 1 232.0048 74.5001)" fill="#444444" font-family="'MyriadPro-Regular'" font-size="10">TEN</text>
<g>
	<text transform="matrix(1 0 0 1 123.8333 95.6671)" fill="#83857F" font-family="'MyriadPro-Regular'" font-size="12">Highest</text>
</g>
<g>
	<text transform="matrix(1 0 0 1 172.5002 95.6671)" fill="#83857F" font-family="'MyriadPro-Regular'" font-size="12">Median</text>
</g>
<g>
	<text transform="matrix(1 0 0 1 220.8336 95.6672)" fill="#83857F" font-family="'MyriadPro-Regular'" font-size="12">Lowest</text>
</g>
</svg>
