<?xml version="1.0" encoding="utf-8"?>
<!-- Generator: Adobe Illustrator 18.1.1, SVG Export Plug-In . SVG Version: 6.00 Build 0)  -->
<svg version="1.1" id="Layer_1" xmlns="http://www.w3.org/2000/svg" xmlns:xlink="http://www.w3.org/1999/xlink" x="0px" y="0px"
	 viewBox="0 0 85 85" enable-background="new 0 0 85 85" xml:space="preserve">
<g>
	<circle fill="#E3E2E2" cx="42.5" cy="29.8" r="10.4"/>
	<path fill="#E3E2E2" d="M63,63.8c0-11.2-9.1-20.3-20.3-20.3s-20.3,9.1-20.3,20.3c0,0,15,9.7,20.3,9.3C47.9,72.7,60.7,68,63,63.8"/>
	<path fill="#E2E1E1" d="M42.7,73.1c-17.3,0-31.4-14.1-31.4-31.4c0-17.3,14.1-31.4,31.4-31.4s31.4,14.1,31.4,31.4
		C74.1,59,60,73.1,42.7,73.1z M42.7,12.9c-15.9,0-28.8,12.9-28.8,28.8c0,15.9,12.9,28.8,28.8,28.8s28.8-12.9,28.8-28.8
		C71.5,25.8,58.6,12.9,42.7,12.9z"/>
</g>
</svg>
