<?xml version="1.0" encoding="utf-8"?>
<!-- Generator: Adobe Illustrator 18.1.1, SVG Export Plug-In . SVG Version: 6.00 Build 0)  -->
<svg version="1.1" id="Layer_1" xmlns="http://www.w3.org/2000/svg" xmlns:xlink="http://www.w3.org/1999/xlink" x="0px" y="0px"
	 viewBox="0 0 85 85" enable-background="new 0 0 85 85" xml:space="preserve">
<path fill="#E3E3E2" d="M42.5,75.1l-6.2-29.2H23.4l0.8-1.8c0.5-1.2,4.7-10.9,9.7-12.4V18.3c-2.3-0.8-5.5-3.1-6-8.1l-0.1-1.4h29.5
	l-0.1,1.4c-0.5,5-3.7,7.3-6,8.1v13.4c5,1.5,9.2,11.2,9.7,12.4l0.8,1.8H48.7L42.5,75.1z M27.4,43.3h11l4.1,19.3l4.1-19.3h11
	c-2.1-4.3-5.4-9.2-7.8-9.2h-1.3V16.2l1.1-0.2c0.2,0,3.6-0.7,4.7-4.7H30.7c1.1,4.1,4.6,4.7,4.7,4.7l1.1,0.2v17.9h-1.3
	C32.8,34.1,29.5,39,27.4,43.3z"/>
</svg>
