<svg xmlns="http://www.w3.org/2000/svg" style="display:none;">

<symbol id="left-arrow" viewBox="0 0 112 112">
	<title>Left Arrow</title>
	<path d="M58.8,29.2L85.7,56L58.8,82.8l-5.7-5.7L70.3,60H24v-8h46.3L53.2,34.8L58.8,29.2z M112,56c0,30.9-25.1,56-56,56
		C25.1,112,0,86.9,0,56S25.1,0,56,0C86.9,0,112,25.1,112,56z M108,56c0-28.7-23.3-52-52-52C27.3,4,4,27.3,4,56s23.3,52,52,52
		C84.7,108,108,84.7,108,56z"/>
</symbol>


<symbol id="right-arrow" viewBox="0 0 112 112">
	<path d="M56,0C25.1,0,0,25.1,0,56s25.1,56,56,56c30.9,0,56-25.1,56-56S86.9,0,56,0z M56,108C27.3,108,4,84.7,4,56S27.3,4,56,4
	s52,23.3,52,52S84.7,108,56,108z M41.7,52H88v8H41.7l17.2,17.2l-5.7,5.7L26.3,56l26.8-26.8l5.7,5.7L41.7,52z"/>
</symbol>


<symbol id="cancel" viewBox="0 0 112 112">
<path d="M78.8,38.8L61.7,56l17.2,17.2l-5.7,5.7L56,61.7L38.8,78.8l-5.7-5.7L50.3,56L33.2,38.8l5.7-5.7L56,50.3l17.2-17.2L78.8,38.8z
	 M112,56c0,30.9-25.1,56-56,56C25.1,112,0,86.9,0,56S25.1,0,56,0C86.9,0,112,25.1,112,56z M108,56c0-28.7-23.3-52-52-52S4,27.3,4,56
	s23.3,52,52,52S108,84.7,108,56z"/>
</symbol>


<symbol id="confirm" viewBox="0 0 112 112">
<path d="M77.2,37.2l5.7,5.7L48,77.7L29.2,58.8l5.7-5.7L48,66.3L77.2,37.2z M112,56c0,30.9-25.1,56-56,56C25.1,112,0,86.9,0,56
	S25.1,0,56,0C86.9,0,112,25.1,112,56z M108,56c0-28.7-23.3-52-52-52S4,27.3,4,56s23.3,52,52,52S108,84.7,108,56z"/>
</symbol>


<symbol id="remove" viewBox="0 0 112 112">
<path d="M28,52h56v8H28V52z M112,56c0,30.9-25.1,56-56,56C25.1,112,0,86.9,0,56S25.1,0,56,0C86.9,0,112,25.1,112,56z M108,56
	c0-28.7-23.3-52-52-52S4,27.3,4,56s23.3,52,52,52S108,84.7,108,56z"/>
</symbol>


</svg>