<!-- Generator: Adobe Illustrator 18.1.1, SVG Export Plug-In  -->
<svg version="1.1"
	 xmlns="http://www.w3.org/2000/svg" xmlns:xlink="http://www.w3.org/1999/xlink" xmlns:a="http://ns.adobe.com/AdobeSVGViewerExtensions/3.0/"
	 x="0px" y="0px" width="80px" height="80px" viewBox="0 0 80 80" enable-background="new 0 0 80 80" xml:space="preserve">
<defs>
</defs>
<g>
	<path fill="#008471" d="M33.2,44.9c-4.7-0.1-8.7,3-8.7,6.5c0,3.6,3.4,6.6,8.2,6.6c6.7,0,9-2.8,9-6.4c0-0.4-0.1-0.9-0.2-1.3
		c-0.5-2-2.6-3.2-5.2-4.9C35.3,45.1,34.3,44.9,33.2,44.9z"/>
	<path fill="#008471" d="M0,0v80h80V0H0z M43.1,29.4c0,2.6-1.4,4.7-3.5,6.3c-2,1.6-2.4,2.2-2.4,3.5c0,1.1,2.4,2.8,3.5,3.6
		c3.8,2.9,4.6,4.7,4.6,8.2c0,4.5-4.8,8.9-12.6,8.9C25.8,60,20,57.2,20,52.8c0-4.5,4.8-9.2,11.6-9.2c0.7,0,1.4,0,2.1,0
		c-0.9-0.9-1.7-1.7-1.7-3.1c0-0.8,0.3-1.6,0.6-2.3c-0.4,0-0.8,0-1.1,0c-5.6,0-8.9-4-8.9-8.9c0-4.9,5-9.3,11-9.3c3.1,0,11.8,0,11.8,0
		l-2.6,2.8h-3.1C41.9,24,43.1,26.6,43.1,29.4z M60,28.7h-5.4v5.4h-2.7v-5.4h-5.4V26h5.4v-5.4h2.7V26H60V28.7z"/>
	<path fill="#008471" d="M31.9,21.9c-3.2-0.1-5.3,3.1-4.8,7.3c0.5,4.2,3.6,7.1,6.7,7.2c3.2,0.1,5-2.6,4.5-6.8
		C37.8,25.4,35.1,22,31.9,21.9z"/>
</g>
</svg>
