<!-- Generator: Adobe Illustrator 18.1.1, SVG Export Plug-In  -->
<svg version="1.1"
	 xmlns="http://www.w3.org/2000/svg" xmlns:xlink="http://www.w3.org/1999/xlink" xmlns:a="http://ns.adobe.com/AdobeSVGViewerExtensions/3.0/"
	 x="0px" y="0px" width="80px" height="80px" viewBox="0 0 80 80" enable-background="new 0 0 80 80" xml:space="preserve">
<defs>
</defs>
<path fill="#008471" d="M0,0v80h80V0H0z M44.1,48.9c-2.5,0-4.8-1.3-5.6-2.9c0,0-1.3,5.3-1.6,6.3c-1,3.6-3.9,7.2-4.1,7.5
	c-0.2,0.2-0.5,0.1-0.5-0.1c-0.1-0.5-0.8-5,0.1-8.7c0.4-1.9,3-12.5,3-12.5s-0.7-1.5-0.7-3.6c0-3.4,2-5.9,4.4-5.9
	c2.1,0,3.1,1.6,3.1,3.4c0,2.1-1.3,5.2-2,8.2c-0.6,2.4,1.2,4.4,3.6,4.4c4.4,0,7.3-5.6,7.3-12.2c0-5-3.4-8.8-9.6-8.8
	c-7,0-11.3,5.2-11.3,11c0,2,0.6,3.4,1.5,4.5c0.4,0.5,0.5,0.7,0.3,1.3c-0.1,0.4-0.4,1.4-0.5,1.8c-0.2,0.6-0.6,0.8-1.1,0.6
	c-3.2-1.3-4.7-4.8-4.7-8.8C25.6,27.8,31.1,20,42,20c8.8,0,14.5,6.3,14.5,13.2C56.5,42.2,51.5,48.9,44.1,48.9z"/>
</svg>
