<!-- Generator: Adobe Illustrator 18.1.1, SVG Export Plug-In  -->
<svg version="1.1"
	 xmlns="http://www.w3.org/2000/svg" xmlns:xlink="http://www.w3.org/1999/xlink" xmlns:a="http://ns.adobe.com/AdobeSVGViewerExtensions/3.0/"
	 x="0px" y="0px" width="99.4px" height="99.4px" viewBox="0 0 99.4 99.4" enable-background="new 0 0 99.4 99.4"
	 xml:space="preserve">
<defs>
</defs>
<g>
	<path fill="#008471" d="M71.5,30.1c1.1,0,2.2-1.1,2.2-2.2c0-1.1-1-2.1-2.1-2.2c-1.1-0.1-2.2,1-2.3,2.2C69.3,29,70.3,30.1,71.5,30.1
		z"/>
	<path fill="#008471" d="M63.9,45.8c-6.5-3.2-13.4-3.9-20.5-2.6c-4.7,0.8-9,2.5-12.5,5.8c-3.1,2.9-4.9,6.3-4,10.7
		c0.7,3.4,2.7,5.9,5.4,7.9c5.1,3.8,11.1,5.1,18,5.3c1.2-0.1,3.1-0.2,5-0.5c4.9-0.8,9.5-2.5,13.2-5.9c4.5-4.1,5.5-9.7,2.4-14.5
		C69.2,49.1,66.7,47.2,63.9,45.8z M33.8,53.6c0-2.2,1.8-3.9,3.9-3.9c2.2,0,4,1.8,4,4c0,2.2-1.8,3.9-3.9,3.9
		C35.6,57.6,33.8,55.8,33.8,53.6z M60.6,65.8c-1.6,1-3.2,2-5,2.6c-1.9,0.7-4,0.9-5.2,1.2c-4.7-0.2-8.3-1.3-11.5-3.5
		c-0.9-0.7-1.5-1.6-1.1-2.7c0.3-0.7,1.1-1.5,1.9-1.7c0.6-0.2,1.6,0.3,2.3,0.7c2,1.2,4,2,6.3,2.2c3.1,0.3,5.9-0.4,8.5-1.9
		c0.4-0.2,0.8-0.5,1.2-0.7c1.2-0.6,2.5-0.4,3.2,0.6C61.9,63.7,61.8,65.1,60.6,65.8z M61.5,57.6c-2.2,0-3.9-1.8-3.9-4
		c0-2.2,1.8-4,4-3.9c2.2,0,3.9,1.8,3.9,4C65.5,55.9,63.7,57.6,61.5,57.6z"/>
	<path fill="#008471" d="M74.2,41.9c-1.6-0.4-3.3,0.5-4.2,2.2c0.9,0.9,1.8,1.6,2.7,2.5c0.8,0.9,1.5,1.8,2.3,2.7
		c1.6-0.7,2.6-2.3,2.4-3.9C77.2,43.6,76,42.2,74.2,41.9z"/>
	<path fill="#008471" d="M0,0v99.4h99.4V0H0z M81.4,47.2c-0.8,2.6-2.2,4.7-4.7,5.8c2,6.6-0.3,11.9-4.2,15.9c-3.6,3.7-8.1,6-13,7.3
		c-2.1,0.6-4.2,0.9-6.4,1.3c-2.3,0-4.6,0-6.9,0c-0.3-0.1-0.5-0.2-0.8-0.2C40,76.6,35,75,30.4,71.9c-3.9-2.7-6.9-6.2-8.1-11
		c-0.7-2.7-0.4-5.3,0.3-8c-2.6-1.2-3.9-3.3-4.7-5.8c0-1,0-2,0-3c0.1-0.3,0.3-0.6,0.4-0.9c1.4-4.1,5.6-6.4,9.7-5.3
		c2.1,0.6,3.6,1.9,4.8,3.7c0.2-0.1,0.4-0.1,0.5-0.2c4-2,8.2-3.2,12.6-3.6c0.8-0.1,1.1-0.5,1.4-1.1c1.8-4.1,3.7-8.3,5.5-12.4
		c0.5-1.1,1.1-2,2.3-2.6c0.2,0,0.3,0,0.5,0c3.3,1,6.6,2,9.9,2.9c0.3,0.1,0.8,0,1-0.2c0.9-1.4,2.3-2,3.7-2.7c0.8,0,1.7,0,2.5,0
		c0.1,0.1,0.2,0.2,0.3,0.2c3,1.1,4.5,3.2,4.4,6.1c-0.1,2.6-2,4.8-4.6,5.4c-2.6,0.6-5.1-0.6-6.7-3.3c-0.2-0.3-0.5-0.6-0.9-0.7
		c-2.5-0.8-5.1-1.5-7.6-2.2c-0.3-0.1-0.9,0.1-1,0.3c-1.5,3.3-3,6.6-4.5,10c5.2,0.4,9.9,1.6,14.4,4c0.2-0.3,0.4-0.5,0.5-0.7
		c2.9-3.9,8.3-4.5,11.8-1.1c1.1,1.1,1.7,2.8,2.6,4.3C81.4,45.2,81.4,46.2,81.4,47.2z"/>
	<path fill="#008471" d="M25.2,41.8c-1.8,0.4-3,1.7-3.3,3.4c-0.2,1.6,0.7,3.2,2.3,3.9c1.7-1.8,3.4-3.6,5-5.3
		C28.4,42.3,26.8,41.5,25.2,41.8z"/>
</g>
</svg>
