<!-- Generator: Adobe Illustrator 18.1.1, SVG Export Plug-In  -->
<svg version="1.1"
	 xmlns="http://www.w3.org/2000/svg" xmlns:xlink="http://www.w3.org/1999/xlink" xmlns:a="http://ns.adobe.com/AdobeSVGViewerExtensions/3.0/"
	 x="0px" y="0px" width="80px" height="80px" viewBox="0 0 80 80" enable-background="new 0 0 80 80" xml:space="preserve">
<defs>
</defs>
<path fill="#008471" d="M0,0c0,0.9,0.1,1.7,0.1,2.6c0,24.9,0,49.8,0,74.8c0,0.8,0,1.6,0,2.5c1,0,1.8,0,2.5,0c24.9,0,49.8,0,74.8,0
	c0.9,0,1.7,0.1,2.6,0.1c0-26.7,0-53.3,0-80C53.3,0,26.7,0,0,0z M51.8,62.2c-4.8,2.5-9.7,2.9-14.5,0.4c-4.5-2.3-6.2-6.3-6.2-11.2
	c0-4.7,0-9.4,0-14.4c-1.9,0-3.6,0-5.6,0c0-2.3,0-4.3,0-6.4c0-0.4,0.3-0.9,0.6-1.1c5.4-2.4,7.8-6.9,8.6-12.7c2.5,0,4.9,0,7.6,0
	c0,3.8,0,7.7,0,11.8c2.9,0,5.5,0,8.3,0c0,2.8,0,5.4,0,8.2c-2.8,0-5.5,0-8.6,0c0,1.5,0,2.8,0,4.1c0,2.9,0,5.9,0,8.8
	c0,4.6,2.1,6.2,6.5,5.2c0.6-0.1,1.3-0.2,2.1-0.4c0.7,2,1.5,4,2,6.1C52.8,61,52.3,61.9,51.8,62.2z"/>
</svg>
