<!-- Generator: Adobe Illustrator 18.1.1, SVG Export Plug-In  -->
<svg version="1.1"
	 xmlns="http://www.w3.org/2000/svg" xmlns:xlink="http://www.w3.org/1999/xlink" xmlns:a="http://ns.adobe.com/AdobeSVGViewerExtensions/3.0/"
	 x="0px" y="0px" width="99.4px" height="99.4px" viewBox="0 0 99.4 99.4" enable-background="new 0 0 99.4 99.4"
	 xml:space="preserve">
<defs>
</defs>
<path fill="#008471" d="M0,0v99.4h99.4V0H0z M69.4,39.5c0,0.4,0,0.9,0,1.3c0,13.5-10.3,29-29,29c-5.8,0-11.1-1.7-15.6-4.6
	c0.8,0.1,1.6,0.1,2.4,0.1c4.8,0,9.2-1.6,12.7-4.4c-4.5-0.1-8.2-3-9.5-7.1c0.6,0.1,1.3,0.2,1.9,0.2c0.9,0,1.8-0.1,2.7-0.4
	c-4.7-0.9-8.2-5.1-8.2-10c0,0,0-0.1,0-0.1c1.4,0.8,2.9,1.2,4.6,1.3c-2.7-1.8-4.5-4.9-4.5-8.5c0-1.9,0.5-3.6,1.4-5.1
	c5,6.2,12.5,10.2,21,10.6c-0.2-0.7-0.3-1.5-0.3-2.3c0-5.6,4.6-10.2,10.2-10.2c2.9,0,5.6,1.2,7.4,3.2c2.3-0.5,4.5-1.3,6.5-2.5
	c-0.8,2.4-2.4,4.4-4.5,5.6c2.1-0.2,4-0.8,5.9-1.6C73.1,36.3,71.4,38.1,69.4,39.5z"/>
</svg>
