<!-- Generator: Adobe Illustrator 18.1.1, SVG Export Plug-In  -->
<svg version="1.1"
	 xmlns="http://www.w3.org/2000/svg" xmlns:xlink="http://www.w3.org/1999/xlink" xmlns:a="http://ns.adobe.com/AdobeSVGViewerExtensions/3.0/"
	 x="0px" y="0px" width="80px" height="80px" viewBox="0 0 80 80" enable-background="new 0 0 80 80" xml:space="preserve">
<defs>
</defs>
<path fill="#008471" d="M0,0v80h80V0H0z M59.8,30.9c-2.2,12.6-14.7,23.3-18.5,25.7c-3.8,2.4-7.2-1-8.4-3.6
	c-1.4-2.9-5.7-18.9-6.8-20.2c-1.1-1.3-4.5,1.3-4.5,1.3L20,32c0,0,6.8-8.1,12-9.1c5.5-1.1,5.5,8.4,6.8,13.7c1.3,5.1,2.1,8,3.2,8
	c1.1,0,3.2-2.8,5.6-7.2c2.3-4.4-0.1-8.2-4.7-5.5C44.8,21,62,18.3,59.8,30.9z"/>
</svg>
