<!-- Generator: Adobe Illustrator 18.1.1, SVG Export Plug-In  -->
<svg version="1.1"
	 xmlns="http://www.w3.org/2000/svg" xmlns:xlink="http://www.w3.org/1999/xlink" xmlns:a="http://ns.adobe.com/AdobeSVGViewerExtensions/3.0/"
	 x="0px" y="0px" width="99.7px" height="99.7px" viewBox="0 0 99.7 99.7" enable-background="new 0 0 99.7 99.7"
	 xml:space="preserve">
<defs>
</defs>
<g>
	<path fill="#008471" d="M34.5,48.7c0-0.7-0.4-1.1-1.1-1.1c-2,0-4.2,3.8-4.7,5.5C31.2,53,34.5,51.7,34.5,48.7z"/>
	<path fill="#008471" d="M45.3,47.9c-3.3,0-6.6,5.6-6.6,8.6c0,1.1,0.4,2.3,1.6,2.3c1.1,0,2.2-0.7,3.1-1.5c0.8-0.9,1.6-2,2.3-3.2
		c0.7-1.5,1.2-3.1,1.2-4.2C46.9,48.7,46.5,47.9,45.3,47.9z"/>
	<path fill="#008471" d="M0,0v99.7h99.7V0H0z M21.4,59.5l-2.3-8.6l-5,8.6h-0.7L9.3,42c-0.2-0.7-0.6-1-1.7-1H7.2v-0.7h6.3v0.7h-0.2
		c-0.7,0-1.5,0.1-1.5,0.8c0,0.4,0,0.7,0.2,1L15,56l3.7-6.4l-2-7.7c-0.2-0.7-0.7-1-1.7-1h-0.3v-0.7h5.8v0.7H20
		c-0.6,0-0.8,0.5-0.7,0.9l1.2,4.9h0l2.2-4c0.2-0.5,0.3-0.9,0.3-1.1c0-0.6-0.3-0.7-1.2-0.7h-0.3v-0.7h5v0.7h-0.4
		c-1.3,0-1.7,0.8-2.3,1.9L20.7,48l2.1,8.1h0L29,43.2c0.2-0.5,0.4-0.9,0.4-1.5s-0.3-0.7-1.6-0.7h-0.3v-0.7h5.2v0.7h-0.2
		c-1,0-1.3,0.7-1.9,1.8l-8.5,16.8H21.4z M43.8,58.2c-1.3,0.7-2.6,1.2-3.9,1.2c-1.8,0-3.2-1-3.2-2.9c0-0.6,0.1-1.3,0.3-2v0l-1.3,1.4
		c-1.8,2-3.7,3.6-6.1,3.6c-2.5,0-3.3-1.9-3.3-3.7c0-4.2,3.8-9,7.7-9c1.2,0,2.6,0.4,2.6,1.9c0,3.6-5.1,4.9-8,5.2
		c-0.1,0.7-0.2,1.3-0.2,2c0,1.3,1,2,2.2,2c1.6,0,3.2-1,4.7-2.5l1.9-1.9l2.6-10.5l0,0.1c0.3-1.2-0.1-2.4-1.4-2.4h-0.8v-0.7l5.4,0
		l-3,10.3v0c1.5-1.7,3.7-3.9,6.1-3.9c2.2,0,3.1,1.3,3.1,3.4c0,2-1,4-2.5,5.8C45.7,56.8,44.8,57.6,43.8,58.2z M72.6,59.2h-7.7v-1h1.4
		c0.4,0,0.5-0.1,0.5-0.5V43.6h0l-7.1,14.9c0,0.1-0.1,0.5-0.4,0.5c-0.2,0-0.3-0.3-0.3-0.5l-7.2-14.4h0V52c0,1.6,0,3.8,0.2,5.2
		c0.2,0.9,0.4,1,1.3,1h1.3v1h-6.1v-1h0.9c0.8,0,1,0,1-0.3V45.2c0-2.6-0.2-4-2-4h-0.9v-1h6.2l7,13.5L67,40.2h3.6v13.9
		c0,4,0.2,4,1.2,4h0.7V59.2z M81.2,59.2h-7.1V45.3c0-3.9-0.1-4-1.2-4H72v-1h9.5c7.4,0,11,4.4,11,9C92.5,53.2,90,59.2,81.2,59.2z"/>
	<path fill="#008471" d="M79.6,41.4c-1.6,0-1.7,0-1.7,0.5v9.8c0,6.3,0.1,6.4,1.2,6.4c5.3,0,9.2-2.7,9.2-7.5
		C88.3,44.6,84.2,41.4,79.6,41.4z"/>
</g>
</svg>
