<!-- Generator: Adobe Illustrator 18.1.1, SVG Export Plug-In  -->
<svg version="1.1"
	 xmlns="http://www.w3.org/2000/svg" xmlns:xlink="http://www.w3.org/1999/xlink" xmlns:a="http://ns.adobe.com/AdobeSVGViewerExtensions/3.0/"
	 x="0px" y="0px" width="80px" height="80px" viewBox="0 0 80 80" enable-background="new 0 0 80 80" xml:space="preserve">
<defs>
</defs>
<g>
	<polygon fill="#008471" points="25.6,43.6 28,43.6 28,55.4 30.3,55.4 30.3,43.6 32.6,43.6 32.6,41.7 25.6,41.7 	"/>
	<path fill="#008471" d="M39.6,33.9c0.3,0,0.6-0.1,0.7-0.3c0.2-0.2,0.3-0.4,0.3-0.7v-6.1c0-0.2-0.1-0.4-0.3-0.6
		c-0.2-0.1-0.4-0.2-0.7-0.2c-0.3,0-0.5,0.1-0.7,0.2c-0.2,0.2-0.3,0.3-0.3,0.6v6.1c0,0.3,0.1,0.5,0.2,0.7
		C39.1,33.8,39.3,33.9,39.6,33.9z"/>
	<path fill="#008471" d="M44.7,45.1c-0.3,0-0.6,0.1-0.9,0.2c-0.3,0.2-0.6,0.4-0.9,0.7v-4.4h-2v13.7h2v-0.8c0.3,0.3,0.6,0.5,0.9,0.7
		c0.3,0.1,0.7,0.2,1.1,0.2c0.6,0,1.1-0.2,1.4-0.6c0.3-0.4,0.5-0.9,0.5-1.6v-5.6c0-0.8-0.2-1.5-0.5-1.9
		C45.8,45.3,45.3,45.1,44.7,45.1z M44.6,53c0,0.3-0.1,0.6-0.2,0.7c-0.1,0.1-0.3,0.2-0.5,0.2c-0.2,0-0.3,0-0.5-0.1
		c-0.2-0.1-0.3-0.2-0.5-0.4v-6.3c0.1-0.1,0.3-0.2,0.4-0.3c0.1-0.1,0.3-0.1,0.4-0.1c0.3,0,0.5,0.1,0.6,0.3c0.1,0.2,0.2,0.4,0.2,0.8
		V53z"/>
	<path fill="#008471" d="M37.3,52.9c-0.2,0.2-0.4,0.4-0.6,0.5c-0.2,0.1-0.4,0.2-0.6,0.2c-0.2,0-0.3,0-0.4-0.2
		c-0.1-0.1-0.1-0.3-0.1-0.5v-7.8h-2v8.5c0,0.6,0.1,1.1,0.4,1.4c0.2,0.3,0.6,0.5,1.1,0.5c0.4,0,0.8-0.1,1.2-0.3
		c0.4-0.2,0.8-0.5,1.2-0.9v1.1h2V45.2h-2V52.9z"/>
	<path fill="#008471" d="M0,0v80h80V0H0z M44.8,24.4h2.3V33c0,0.3,0.1,0.5,0.1,0.6c0.1,0.1,0.3,0.2,0.5,0.2c0.2,0,0.4-0.1,0.6-0.2
		c0.3-0.2,0.5-0.4,0.7-0.6v-8.5h2.3v11.2H49v-1.2c-0.4,0.5-0.9,0.8-1.3,1c-0.5,0.2-0.9,0.4-1.3,0.4c-0.5,0-0.9-0.2-1.2-0.5
		c-0.3-0.3-0.4-0.8-0.4-1.5V24.4z M36.4,27c0-0.9,0.3-1.6,0.9-2.1c0.6-0.5,1.4-0.8,2.5-0.8c0.9,0,1.7,0.3,2.3,0.8
		c0.6,0.5,0.9,1.2,0.9,2.1v5.8c0,1-0.3,1.7-0.9,2.2c-0.6,0.5-1.4,0.8-2.4,0.8c-1,0-1.8-0.3-2.4-0.8c-0.6-0.6-0.9-1.3-0.9-2.3V27z
		 M30.2,20.4l1.7,6H32l1.6-6h2.6l-3,8.8v6.3h-2.6v-6l-3.1-9.1H30.2z M60,52.3c0,4-3.3,7.3-7.3,7.3H27.3c-4,0-7.3-3.3-7.3-7.3v-5.9
		c0-4,3.3-7.3,7.3-7.3h25.4c4,0,7.3,3.3,7.3,7.3V52.3z"/>
	<path fill="#008471" d="M50.8,45c-0.9,0-1.6,0.3-2.2,0.8c-0.6,0.6-0.9,1.3-0.9,2.1v4.5c0,1,0.3,1.7,0.8,2.3
		c0.5,0.6,1.2,0.8,2.1,0.8c1,0,1.8-0.3,2.3-0.8c0.5-0.5,0.8-1.3,0.8-2.3V52h-2.1v0.5c0,0.6-0.1,1-0.2,1.2c-0.1,0.2-0.4,0.3-0.7,0.3
		c-0.3,0-0.6-0.1-0.7-0.3c-0.1-0.2-0.2-0.6-0.2-1.1v-1.9h3.9V48c0-1-0.2-1.7-0.7-2.2C52.4,45.3,51.7,45,50.8,45z M51.6,49h-1.8v-1
		c0-0.4,0.1-0.7,0.2-0.9c0.1-0.2,0.4-0.3,0.7-0.3c0.3,0,0.5,0.1,0.7,0.3c0.1,0.2,0.2,0.5,0.2,0.9V49z"/>
</g>
</svg>
